SplineFontDB: 3.0
FontName: fatfree
FullName: Fat Free
FamilyName: Fat Free
Weight: Book
Copyright: (c)1999, Ace Fonts -- http://www.acefonts.com
Version: FF1.0
ItalicAngle: 0
UnderlinePosition: -140
UnderlineWidth: 48
Ascent: 1638
Descent: 410
InvalidEm: 0
sfntRevision: 0x00010000
LayerCount: 3
Layer: 0 1 "Back" 1
Layer: 1 1 "Fore" 0
Layer: 2 0 "Back 2" 1
XUID: [1021 945 2036861496 10425077]
FSType: 8
OS2Version: 0
OS2_WeightWidthSlopeOnly: 0
OS2_UseTypoMetrics: 1
CreationTime: 935971200
ModificationTime: 1422538108
PfmFamily: 17
TTFWeight: 400
TTFWidth: 5
LineGap: 67
VLineGap: 0
Panose: 2 0 0 0 0 0 0 0 0 0
OS2TypoAscent: 1491
OS2TypoAOffset: 0
OS2TypoDescent: -431
OS2TypoDOffset: 0
OS2TypoLinegap: 307
OS2WinAscent: 2000
OS2WinAOffset: 0
OS2WinDescent: 750
OS2WinDOffset: 0
HheadAscent: 1854
HheadAOffset: 0
HheadDescent: -434
HheadDOffset: 0
OS2SubXSize: 1434
OS2SubYSize: 1331
OS2SubXOff: 0
OS2SubYOff: 283
OS2SupXSize: 1434
OS2SupYSize: 1331
OS2SupXOff: 0
OS2SupYOff: 977
OS2StrikeYSize: 102
OS2StrikeYPos: 530
OS2CapHeight: 0
OS2XHeight: 0
OS2Vendor: 'HL  '
OS2UnicodeRanges: 00000000.00000000.00000000.00000000
DEI: 91125
ShortTable: maxp 16
  1
  0
  247
  649
  10
  0
  0
  2
  8
  64
  10
  0
  82
  190
  0
  0
EndShort
LangName: 1033 "+AKkA-1999, Ace Fonts -- http://www.acefonts.com" "" "Regular" "Fat Free" "" "FF1.0"
GaspTable: 1 65535 2 0
Encoding: UnicodeBmp
UnicodeInterp: none
NameList: AGL For New Fonts
DisplaySize: -48
AntiAlias: 1
FitToEm: 1
WinInfo: 90 30 12
BeginChars: 65539 249

StartChar: .notdef
Encoding: 65536 -1 0
Width: 500
Flags: W
LayerCount: 3
Back
Fore
SplineSet
256 0 m 1,0,-1
 256 1280 l 1,1,-1
 1280 1280 l 1,2,-1
 1280 0 l 1,3,-1
 256 0 l 1,0,-1
288 32 m 1,4,-1
 1248 32 l 1,5,-1
 1248 1248 l 1,6,-1
 288 1248 l 1,7,-1
 288 32 l 1,4,-1
EndSplineSet
Validated: 1
Layer: 2
EndChar

StartChar: exclam
Encoding: 33 33 4
Width: 476
Flags: W
LayerCount: 3
Back
Fore
SplineSet
200 1776 m 1,0,-1
 156 1776 l 1,1,-1
 144 1772 l 1,2,-1
 116 1768 l 1,3,-1
 88 1764 l 1,4,5
 48 1768 48 1768 16 1755 c 1,6,7
 4 1739 4 1739 0 1722 c 1,8,9
 4 1681 4 1681 12 1651 c 1,10,11
 12 1626 12 1626 16 1610 c 1,12,-1
 16 1551 l 1,13,-1
 20 1522 l 1,14,-1
 16 1514 l 1,15,-1
 20 1502 l 1,16,-1
 16 1493 l 1,17,18
 20 1456 20 1456 16 1427 c 1,19,20
 20 1418 20 1418 24 1402 c 1,21,-1
 24 1377 l 1,22,23
 36 1335 36 1335 40 1273 c 1,24,-1
 44 1260 l 1,25,-1
 40 1248 l 1,26,-1
 40 1127 l 2,27,28
 40 1114 40 1114 44 1089 c 2,29,-1
 56 1023 l 1,30,-1
 56 990 l 1,31,32
 60 940 60 940 56 906 c 1,33,-1
 60 881 l 1,34,-1
 60 840 l 1,35,36
 72 802 72 802 72 769 c 2,37,-1
 72 686 l 2,38,39
 72 652 72 652 76 627 c 1,40,-1
 72 619 l 1,41,-1
 80 498 l 1,42,43
 136 457 136 457 192 498 c 1,44,-1
 232 486 l 1,45,-1
 284 502 l 1,46,47
 284 544 284 544 256 565 c 1,48,-1
 260 594 l 1,49,-1
 260 619 l 1,50,-1
 256 632 l 1,51,-1
 260 648 l 1,52,53
 256 690 256 690 264 748 c 0,54,55
 268 769 268 769 268 781 c 2,56,-1
 272 898 l 1,57,-1
 276 906 l 1,58,59
 276 952 276 952 284 981 c 1,60,-1
 280 994 l 1,61,-1
 280 1052 l 1,62,-1
 284 1064 l 1,63,-1
 288 1148 l 2,64,65
 288 1181 288 1181 292 1206 c 2,66,-1
 296 1252 l 1,67,-1
 296 1281 l 1,68,69
 300 1289 300 1289 296 1310 c 1,70,-1
 300 1335 l 1,71,-1
 308 1402 l 1,72,-1
 304 1427 l 1,73,-1
 304 1551 l 1,74,-1
 300 1564 l 1,75,-1
 304 1593 l 2,76,77
 304 1614 304 1614 308 1626 c 1,78,-1
 304 1647 l 1,79,-1
 308 1676 l 1,80,-1
 312 1701 l 1,81,-1
 320 1751 l 1,82,83
 292 1785 292 1785 252 1789 c 1,84,-1
 232 1789 l 1,85,-1
 200 1776 l 1,0,-1
252 1693 m 1,87,-1
 252 1606 l 1,88,-1
 248 1597 l 1,89,-1
 252 1589 l 1,90,91
 244 1551 244 1551 244 1522 c 2,92,-1
 248 1472 l 1,93,94
 248 1393 248 1393 240 1343 c 1,95,-1
 240 1314 l 2,96,97
 240 1298 240 1298 236 1273 c 1,98,99
 236 1239 236 1239 232 1218 c 1,100,-1
 232 1160 l 1,101,-1
 228 1144 l 1,102,-1
 228 1127 l 1,103,-1
 224 1102 l 1,104,105
 224 1064 224 1064 220 1035 c 1,106,-1
 220 973 l 1,107,-1
 216 952 l 1,108,-1
 216 881 l 1,109,-1
 212 860 l 1,110,-1
 212 840 l 2,111,112
 212 806 212 806 204 781 c 1,113,-1
 204 765 l 1,114,-1
 200 719 l 2,115,116
 200 681 200 681 188 623 c 1,117,118
 192 577 192 577 180 548 c 1,119,120
 132 552 132 552 132 598 c 2,121,-1
 132 615 l 1,122,123
 140 652 140 652 134 685.5 c 128,-1,124
 128 719 128 719 132 748 c 1,125,-1
 132 802 l 1,126,-1
 128 827 l 1,127,-1
 116 890 l 1,128,-1
 112 915 l 1,129,130
 116 935 116 935 112 948 c 0,131,132
 108 994 108 994 116 1023 c 1,133,-1
 96 1127 l 1,134,-1
 96 1152 l 1,135,-1
 92 1189 l 1,136,-1
 96 1218 l 1,137,-1
 96 1318 l 1,138,-1
 84 1352 l 1,139,-1
 84 1377 l 1,140,-1
 72 1427 l 1,141,-1
 68 1506 l 1,142,-1
 72 1514 l 1,143,-1
 60 1681 l 1,144,-1
 80 1701 l 1,145,-1
 108 1706 l 1,146,147
 152 1706 152 1706 180 1714 c 1,148,86
 224 1710 224 1710 252 1693 c 1,87,-1
24 161 m 1,150,151
 -8 -60 -8 -60 232 -1 c 1,152,-1
 240 11 l 2,153,154
 256 28 256 28 264 40 c 1,155,156
 324 286 324 286 156 298 c 1,157,149
 52 257 52 257 24 161 c 1,150,151
212 86 m 1,159,-1
 184 57 l 1,160,161
 60 32 60 32 84 144 c 0,162,163
 92 169 92 169 108 186 c 1,164,165
 160 186 160 186 196 211 c 1,166,158
 236 153 236 153 212 86 c 1,159,-1
EndSplineSet
Validated: 41
Layer: 2
EndChar

StartChar: quotedbl
Encoding: 34 34 5
Width: 809
Flags: W
LayerCount: 3
Back
Fore
SplineSet
-18 1681 m 1,1,-1
 -13 1669 l 1,2,3
 -21 1591 -21 1591 1 1530 c 1,4,5
 43 1472 43 1472 57 1433 c 0,6,7
 73 1393 73 1393 87 1373 c 1,8,-1
 93 1338 l 1,9,10
 148 1245 148 1245 186 1361 c 1,11,12
 320 1515 320 1515 294 1702 c 1,13,14
 225 1829 225 1829 97 1820 c 1,15,0
 3 1773 3 1773 -18 1681 c 1,1,-1
206 1514 m 1,17,-1
 200 1501 l 1,18,19
 177 1482 177 1482 144 1485 c 1,20,21
 70 1504 70 1504 48 1618 c 1,22,23
 48 1723 48 1723 112 1726 c 1,24,-1
 141 1750 l 1,25,16
 307 1696 307 1696 206 1514 c 1,17,-1
360 1683 m 1,27,-1
 365 1672 l 1,28,29
 358 1594 358 1594 379 1532 c 1,30,31
 421 1474 421 1474 435 1436 c 0,32,33
 451 1396 451 1396 465 1376 c 1,34,-1
 471 1340 l 1,35,36
 526 1248 526 1248 564 1363 c 1,37,38
 698 1518 698 1518 672 1704 c 1,39,40
 603 1831 603 1831 475 1823 c 1,41,26
 381 1776 381 1776 360 1683 c 1,27,-1
585 1516 m 2,43,-1
 578 1503 l 1,44,45
 555 1485 555 1485 522 1488 c 1,46,47
 448 1507 448 1507 426 1621 c 1,48,49
 426 1726 426 1726 490 1728 c 1,50,-1
 519 1753 l 1,51,42
 685 1698 685 1698 585 1516 c 2,43,-1
EndSplineSet
Validated: 41
Layer: 2
EndChar

StartChar: numbersign
Encoding: 35 35 6
Width: 1780
Flags: W
LayerCount: 3
Back
Fore
SplineSet
400 1759 m 1,1,-1
 400 1726 l 1,2,-1
 396 1713 l 1,3,-1
 392 1684 l 1,4,-1
 376 1626 l 1,5,6
 376 1559 376 1559 348 1509 c 1,7,8
 352 1443 352 1443 328 1393 c 1,9,10
 276 1384 276 1384 236 1397 c 1,11,12
 140 1384 140 1384 68 1418 c 1,13,14
 36 1414 36 1414 16 1389 c 1,15,16
 16 1359 16 1359 24 1335 c 1,17,18
 24 1301 24 1301 20 1276 c 0,19,20
 8 1201 8 1201 16 1151 c 1,21,22
 48 1131 48 1131 76 1122 c 1,23,-1
 88 1122 l 1,24,25
 148 1135 148 1135 194 1128.5 c 128,-1,26
 240 1122 240 1122 276 1131 c 1,27,-1
 296 1118 l 1,28,-1
 296 1089 l 1,29,-1
 280 998 l 1,30,-1
 276 977 l 1,31,-1
 268 960 l 1,32,33
 244 881 244 881 244 815 c 1,34,35
 204 731 204 731 212 648 c 1,36,37
 120 607 120 607 32 631 c 1,38,39
 16 611 16 611 4 607 c 1,40,-1
 8 561 l 1,41,-1
 4 536 l 1,42,43
 8 498 8 498 0 440 c 1,44,45
 4 365 4 365 16 315 c 1,46,-1
 48 299 l 1,47,48
 132 319 132 319 196 307 c 1,49,-1
 188 295 l 1,50,51
 180 265 180 265 180 240 c 1,52,-1
 176 228 l 2,53,54
 164 182 164 182 168 149 c 1,55,56
 152 103 152 103 152 66 c 1,57,-1
 164 37 l 1,58,-1
 204 16 l 1,59,-1
 232 20 l 1,60,-1
 252 24 l 1,61,62
 280 20 280 20 328 24 c 0,63,64
 360 24 360 24 384 26 c 128,-1,65
 408 28 408 28 452 32 c 1,66,-1
 468 37 l 1,67,68
 524 28 524 28 568 37 c 1,69,70
 552 82 552 82 508 78 c 1,71,-1
 496 95 l 1,72,-1
 512 141 l 1,73,-1
 508 153 l 1,74,-1
 512 166 l 1,75,76
 512 186 512 186 516 199 c 1,77,-1
 512 207 l 1,78,-1
 516 220 l 1,79,80
 520 265 520 265 528 295 c 1,81,-1
 540 307 l 1,82,83
 600 299 600 299 648 315 c 1,84,-1
 692 315 l 1,85,-1
 700 311 l 1,86,87
 732 319 732 319 756 311 c 1,88,89
 800 319 800 319 832 319 c 1,90,91
 832 311 832 311 828 290 c 2,92,-1
 812 207 l 1,93,94
 812 182 812 182 808 145 c 2,95,-1
 804 116 l 2,96,97
 792 53 792 53 796 12 c 1,98,-1
 808 -1 l 1,99,-1
 824 -5 l 1,100,-1
 876 -1 l 1,101,-1
 892 3 l 1,102,-1
 924 7 l 1,103,-1
 948 7 l 1,104,-1
 956 3 l 1,105,106
 1024 -1 1024 -1 1052 3 c 1,107,108
 1072 -1 1072 -1 1088 7 c 1,109,-1
 1088 24 l 2,110,111
 1088 49 1088 49 1092 95 c 0,112,113
 1096 132 1096 132 1092 191 c 1,114,-1
 1096 203 l 1,115,-1
 1108 274 l 1,116,117
 1108 324 1108 324 1120 361 c 1,118,119
 1140 344 1140 344 1156 340 c 1,120,-1
 1188 344 l 1,121,-1
 1232 344 l 1,122,-1
 1264 353 l 1,123,124
 1292 353 1292 353 1312 357 c 1,125,-1
 1324 365 l 1,126,-1
 1364 365 l 1,127,128
 1388 369 1388 369 1404 369 c 0,129,130
 1444 374 1444 374 1472 369 c 1,131,132
 1520 378 1520 378 1560 369 c 1,133,-1
 1588 386 l 1,134,135
 1620 386 1620 386 1640 394 c 1,136,-1
 1644 407 l 1,137,-1
 1640 461 l 1,138,-1
 1628 486 l 1,139,-1
 1632 503 l 1,140,-1
 1628 532 l 1,141,-1
 1624 607 l 1,142,-1
 1648 669 l 1,143,-1
 1644 694 l 1,144,145
 1612 711 1612 711 1580 702 c 1,146,-1
 1560 677 l 1,147,148
 1552 681 1552 681 1532 681 c 0,149,150
 1468 673 1468 673 1424 677 c 1,151,152
 1416 673 1416 673 1396 669 c 1,153,-1
 1368 669 l 1,154,155
 1352 661 1352 661 1336 665 c 1,156,-1
 1320 661 l 1,157,-1
 1252 652 l 1,158,159
 1192 636 1192 636 1156 652 c 1,160,161
 1156 690 1156 690 1168 719 c 1,162,163
 1176 760 1176 760 1176 790 c 1,164,-1
 1188 810 l 1,165,166
 1200 848 1200 848 1200 877 c 0,167,168
 1200 889 1200 889 1204 894 c 1,169,-1
 1204 914 l 1,170,-1
 1208 927 l 2,171,172
 1220 968 1220 968 1220 998 c 1,173,-1
 1224 1010 l 1,174,-1
 1228 1043 l 1,175,-1
 1244 1106 l 1,176,-1
 1280 1127 l 1,177,-1
 1292 1127 l 1,178,-1
 1324 1135 l 2,179,180
 1340 1135 1340 1135 1352 1139 c 128,-1,181
 1364 1143 1364 1143 1388 1139 c 1,182,-1
 1396 1143 l 1,183,184
 1492 1151 1492 1151 1552 1143 c 1,185,186
 1564 1114 1564 1114 1580 1097 c 1,187,188
 1596 1097 1596 1097 1608 1106 c 1,189,-1
 1612 1172 l 1,190,-1
 1608 1181 l 1,191,192
 1608 1210 1608 1210 1612 1231 c 1,193,194
 1608 1255 1608 1255 1612 1276 c 1,195,196
 1632 1314 1632 1314 1632 1347 c 1,197,198
 1620 1384 1620 1384 1604 1409 c 1,199,-1
 1588 1414 l 1,200,-1
 1524 1409 l 2,201,202
 1492 1409 1492 1409 1468 1405 c 1,203,-1
 1460 1401 l 1,204,-1
 1432 1397 l 1,205,-1
 1404 1397 l 1,206,207
 1344 1401 1344 1401 1304 1397 c 1,208,-1
 1296 1405 l 1,209,-1
 1296 1434 l 1,210,-1
 1308 1480 l 2,211,212
 1312 1501 1312 1501 1316 1538 c 0,213,214
 1320 1584 1320 1584 1328 1601 c 1,215,-1
 1324 1613 l 1,216,-1
 1328 1638 l 1,217,-1
 1332 1663 l 1,218,219
 1352 1738 1352 1738 1348 1788 c 1,220,221
 1332 1800 1332 1800 1312 1805 c 1,222,223
 1204 1755 1204 1755 1108 1805 c 1,224,225
 1048 1792 1048 1792 1028 1742 c 1,226,-1
 1032 1713 l 1,227,-1
 1028 1680 l 1,228,229
 1028 1642 1028 1642 1020 1613 c 1,230,231
 1020 1505 1020 1505 984 1426 c 1,232,233
 940 1422 940 1422 908 1422 c 1,234,235
 872 1430 872 1430 840 1418 c 1,236,237
 764 1434 764 1434 700 1418 c 1,238,-1
 688 1434 l 1,239,-1
 692 1455 l 1,240,-1
 696 1584 l 2,241,242
 696 1597 696 1597 700 1601 c 2,243,-1
 704 1626 l 1,244,-1
 708 1655 l 2,245,246
 708 1671 708 1671 716 1684 c 1,247,-1
 716 1709 l 1,248,-1
 724 1759 l 1,249,250
 800 1759 800 1759 788 1796 c 1,251,252
 748 1805 748 1805 696 1805 c 1,253,-1
 652 1809 l 1,254,255
 628 1805 628 1805 600 1809 c 1,256,257
 584 1805 584 1805 552 1809 c 1,258,-1
 540 1805 l 1,259,-1
 520 1809 l 1,260,261
 476 1805 476 1805 448 1809 c 1,262,0
 412 1788 412 1788 400 1759 c 1,1,-1
572 1767 m 1,264,-1
 652 1763 l 1,265,-1
 664 1746 l 1,266,267
 668 1705 668 1705 656 1676 c 1,268,269
 656 1663 656 1663 652 1659 c 2,270,-1
 648 1634 l 1,271,272
 648 1601 648 1601 640 1580 c 2,273,-1
 636 1567 l 1,274,275
 636 1547 636 1547 632 1526 c 2,276,-1
 624 1501 l 1,277,278
 624 1463 624 1463 616 1434 c 1,279,-1
 620 1422 l 1,280,281
 620 1389 620 1389 628 1368 c 1,282,-1
 640 1368 l 1,283,284
 664 1359 664 1359 690 1361.5 c 128,-1,285
 716 1364 716 1364 732 1372 c 1,286,287
 792 1368 792 1368 816 1372 c 1,288,-1
 840 1364 l 1,289,290
 876 1372 876 1372 908 1364 c 1,291,-1
 968 1368 l 1,292,293
 976 1318 976 1318 1016 1301 c 1,294,295
 1036 1318 1036 1318 1044 1339 c 1,296,297
 1048 1405 1048 1405 1064 1451 c 1,298,-1
 1068 1484 l 1,299,-1
 1068 1509 l 1,300,-1
 1072 1522 l 1,301,-1
 1068 1559 l 1,302,303
 1080 1601 1080 1601 1080 1634 c 1,304,-1
 1084 1647 l 1,305,306
 1084 1671 1084 1671 1092 1690 c 128,-1,307
 1100 1709 1100 1709 1100 1726 c 1,308,-1
 1128 1734 l 1,309,-1
 1220 1734 l 1,310,311
 1256 1738 1256 1738 1284 1730 c 1,312,-1
 1284 1684 l 1,313,-1
 1280 1671 l 1,314,315
 1276 1638 1276 1638 1268 1617 c 1,316,-1
 1268 1580 l 1,317,-1
 1264 1555 l 1,318,-1
 1252 1526 l 1,319,320
 1236 1426 1236 1426 1236 1364 c 1,321,-1
 1244 1355 l 1,322,-1
 1260 1330 l 1,323,324
 1288 1330 1288 1330 1312 1343 c 1,325,-1
 1380 1343 l 1,326,327
 1412 1347 1412 1347 1436 1343 c 1,328,-1
 1448 1343 l 1,329,330
 1480 1347 1480 1347 1496 1355 c 1,331,-1
 1508 1351 l 1,332,333
 1532 1359 1532 1359 1556 1355 c 1,334,-1
 1560 1343 l 1,335,336
 1560 1264 1560 1264 1556 1214 c 1,337,-1
 1536 1206 l 1,338,339
 1496 1210 1496 1210 1468 1206 c 1,340,341
 1436 1210 1436 1210 1416 1201 c 1,342,-1
 1392 1210 l 1,343,-1
 1376 1206 l 1,344,-1
 1276 1185 l 1,345,346
 1236 1206 1236 1206 1196 1193 c 1,347,348
 1180 1147 1180 1147 1184 1110 c 1,349,-1
 1180 1085 l 1,350,351
 1168 1047 1168 1047 1168 1018 c 1,352,-1
 1164 998 l 1,353,-1
 1156 977 l 1,354,355
 1140 923 1140 923 1136 877 c 0,356,357
 1132 864 1132 864 1128 860 c 2,358,-1
 1116 802 l 2,359,360
 1116 790 1116 790 1112 785 c 1,361,-1
 1112 769 l 1,362,-1
 1100 731 l 1,363,-1
 1092 677 l 2,364,365
 1088 631 1088 631 1096 598 c 1,366,367
 1120 582 1120 582 1148 582 c 1,368,-1
 1168 590 l 1,369,-1
 1192 590 l 1,370,-1
 1208 594 l 1,371,372
 1264 594 1264 594 1300 607 c 1,373,-1
 1364 607 l 1,374,-1
 1380 611 l 1,375,-1
 1412 611 l 1,376,-1
 1428 615 l 1,377,-1
 1444 611 l 1,378,-1
 1472 615 l 2,379,380
 1528 623 1528 623 1560 623 c 1,381,-1
 1568 615 l 1,382,-1
 1568 573 l 1,383,-1
 1576 523 l 1,384,-1
 1576 461 l 1,385,-1
 1564 453 l 1,386,-1
 1528 432 l 1,387,-1
 1500 428 l 1,388,-1
 1404 428 l 1,389,-1
 1388 432 l 1,390,-1
 1332 419 l 1,391,-1
 1320 415 l 2,392,393
 1296 411 1296 411 1280 403 c 1,394,395
 1272 407 1272 407 1264 403 c 2,396,-1
 1208 399 l 1,397,398
 1168 407 1168 407 1136 399 c 1,399,400
 1104 428 1104 428 1072 423 c 1,401,402
 1056 407 1056 407 1052 386 c 0,403,404
 1048 374 1048 374 1052 369 c 2,405,-1
 1056 353 l 1,406,-1
 1052 340 l 1,407,-1
 1048 311 l 2,408,409
 1048 295 1048 295 1044 270 c 1,410,411
 1032 236 1032 236 1032 207 c 1,412,-1
 1028 195 l 1,413,-1
 1028 132 l 1,414,415
 1024 82 1024 82 1016 49 c 1,416,-1
 972 53 l 1,417,-1
 960 53 l 1,418,-1
 932 49 l 1,419,420
 904 57 904 57 880 49 c 1,421,-1
 860 66 l 1,422,-1
 860 82 l 1,423,424
 868 111 868 111 868 136 c 2,425,-1
 868 153 l 1,426,-1
 872 161 l 1,427,428
 868 186 868 186 876 232 c 1,429,-1
 884 249 l 1,430,-1
 888 278 l 1,431,-1
 892 328 l 1,432,433
 904 357 904 357 904 382 c 1,434,-1
 884 399 l 1,435,-1
 872 399 l 1,436,437
 848 394 848 394 832 382 c 1,438,-1
 820 382 l 1,439,-1
 788 378 l 2,440,441
 736 369 736 369 704 374 c 1,442,443
 656 365 656 365 620 369 c 1,444,445
 596 361 596 361 556 357 c 1,446,447
 512 365 512 365 484 365 c 1,448,-1
 472 353 l 1,449,-1
 468 332 l 1,450,-1
 460 274 l 1,451,-1
 460 257 l 1,452,453
 456 249 456 249 452 228 c 1,454,-1
 452 178 l 1,455,-1
 448 166 l 1,456,-1
 452 157 l 1,457,458
 436 116 436 116 436 82 c 1,459,-1
 424 78 l 1,460,-1
 380 74 l 1,461,-1
 368 70 l 1,462,-1
 236 70 l 1,463,-1
 224 87 l 1,464,-1
 236 136 l 1,465,466
 232 228 232 228 268 295 c 1,467,468
 268 328 268 328 264 349 c 1,469,470
 180 390 180 390 96 357 c 1,471,472
 72 374 72 374 60 390 c 1,473,474
 52 440 52 440 60 482 c 1,475,476
 56 532 56 532 68 565 c 1,477,-1
 88 569 l 1,478,-1
 112 569 l 1,479,480
 156 577 156 577 184 577 c 0,481,482
 244 569 244 569 292 586 c 1,483,484
 296 619 296 619 276 636 c 1,485,486
 280 648 280 648 288 652 c 1,487,488
 284 735 284 735 304 794 c 1,489,-1
 304 806 l 1,490,491
 316 864 316 864 318 881 c 128,-1,492
 320 898 320 898 324 923 c 1,493,-1
 324 948 l 1,494,-1
 332 968 l 1,495,496
 336 1006 336 1006 344 1035 c 1,497,498
 344 1097 344 1097 380 1139 c 1,499,-1
 380 1156 l 1,500,501
 364 1181 364 1181 340 1185 c 1,502,-1
 328 1181 l 1,503,-1
 264 1181 l 1,504,-1
 252 1176 l 1,505,-1
 236 1181 l 1,506,-1
 212 1176 l 1,507,-1
 168 1181 l 1,508,-1
 156 1185 l 1,509,510
 112 1181 112 1181 76 1189 c 1,511,-1
 68 1197 l 1,512,-1
 72 1218 l 1,513,-1
 76 1280 l 1,514,-1
 80 1314 l 1,515,-1
 84 1343 l 1,516,-1
 96 1355 l 1,517,-1
 108 1351 l 1,518,519
 140 1351 140 1351 192 1343 c 1,520,521
 232 1343 232 1343 264 1330 c 1,522,523
 312 1347 312 1347 352 1330 c 1,524,-1
 392 1347 l 1,525,-1
 396 1368 l 2,526,527
 404 1393 404 1393 404 1414 c 1,528,529
 416 1451 416 1451 420 1480 c 1,530,-1
 420 1526 l 1,531,532
 432 1559 432 1559 436 1586 c 128,-1,533
 440 1613 440 1613 436 1638 c 1,534,535
 448 1671 448 1671 452 1696 c 0,536,537
 456 1730 456 1730 464 1751 c 1,538,-1
 484 1759 l 1,539,-1
 540 1767 l 1,540,263
 560 1763 560 1763 572 1767 c 1,264,-1
760 1193 m 1,541,-1
 732 1193 l 1,542,543
 724 1189 724 1189 704 1185 c 1,544,-1
 696 1189 l 1,545,-1
 688 1185 l 1,546,547
 648 1189 648 1189 616 1181 c 1,548,-1
 588 1156 l 1,549,550
 580 1127 580 1127 580 1102 c 2,551,-1
 576 1060 l 1,552,553
 576 1010 576 1010 572 993 c 1,554,555
 572 968 572 968 568 952 c 1,556,-1
 568 906 l 1,557,558
 544 819 544 819 540 790 c 1,559,560
 480 681 480 681 532 586 c 1,561,562
 560 577 560 577 584 586 c 1,563,-1
 596 586 l 1,564,565
 652 598 652 598 696 594 c 1,566,567
 720 602 720 602 744 598 c 1,568,-1
 772 607 l 1,569,-1
 848 607 l 1,570,571
 884 594 884 594 916 594 c 1,572,573
 936 607 936 607 948 623 c 1,574,575
 940 665 940 665 944 694 c 1,576,-1
 944 711 l 1,577,578
 956 752 956 752 956 781 c 0,579,580
 960 827 960 827 968 860 c 1,581,582
 968 894 968 894 972 919 c 0,583,584
 980 952 980 952 980 977 c 1,585,-1
 984 989 l 1,586,-1
 988 1014 l 1,587,-1
 992 1052 l 1,588,-1
 992 1114 l 1,589,-1
 1004 1151 l 1,590,591
 1024 1164 1024 1164 1024 1181 c 1,592,-1
 1004 1197 l 1,593,-1
 948 1206 l 1,594,-1
 924 1201 l 1,595,596
 896 1210 896 1210 872 1201 c 1,597,598
 848 1210 848 1210 828 1210 c 1,599,-1
 760 1193 l 1,541,-1
864 1143 m 1,600,601
 904 1156 904 1156 936 1139 c 1,602,-1
 932 1114 l 1,603,-1
 936 1085 l 1,604,-1
 932 1056 l 1,605,-1
 932 1006 l 1,606,-1
 928 981 l 2,607,608
 920 956 920 956 916 923 c 2,609,-1
 912 894 l 1,610,-1
 908 864 l 1,611,-1
 896 831 l 1,612,613
 892 790 892 790 880 760 c 2,614,-1
 876 748 l 1,615,-1
 880 669 l 1,616,617
 856 656 856 656 840 656 c 2,618,-1
 800 656 l 1,619,-1
 788 661 l 1,620,621
 700 644 700 644 648 648 c 1,622,623
 608 636 608 636 584 652 c 1,624,625
 580 686 580 686 584 713 c 128,-1,626
 588 740 588 740 596 752 c 1,627,-1
 592 760 l 1,628,-1
 596 769 l 1,629,-1
 608 806 l 1,630,-1
 608 819 l 1,631,-1
 612 848 l 1,632,633
 624 877 624 877 628 902 c 1,634,-1
 628 985 l 1,635,-1
 632 993 l 1,636,-1
 632 1027 l 1,637,-1
 636 1072 l 1,638,639
 644 1093 644 1093 640 1114 c 1,640,-1
 644 1122 l 1,641,642
 664 1122 664 1122 692 1135 c 1,643,644
 712 1139 712 1139 724 1135 c 1,645,-1
 740 1139 l 1,646,647
 804 1139 804 1139 844 1151 c 1,648,-1
 864 1143 l 1,600,601
EndSplineSet
Validated: 41
Layer: 2
EndChar

StartChar: dollar
Encoding: 36 36 7
Width: 1000
Flags: W
LayerCount: 3
Back
Fore
SplineSet
452 1945 m 1,1,-1
 436 1933 l 1,2,3
 396 1937 396 1937 360 1929 c 1,4,5
 344 1913 344 1913 340 1897 c 1,6,7
 352 1845 352 1845 344 1797 c 1,8,9
 296 1753 296 1753 236 1737 c 1,10,11
 216 1717 216 1717 192 1709 c 1,12,13
 164 1681 164 1681 156 1653 c 1,14,15
 -8 1473 -8 1473 20 1245 c 1,16,-1
 20 1189 l 1,17,-1
 24 1173 l 1,18,19
 24 1149 24 1149 32 1133 c 0,20,21
 36 1125 36 1125 40 1105 c 1,22,-1
 36 1097 l 1,23,-1
 40 1085 l 1,24,25
 44 1045 44 1045 52 1017 c 1,26,27
 56 981 56 981 68 957 c 1,28,29
 208 773 208 773 408 709 c 1,30,-1
 440 689 l 2,31,32
 464 677 464 677 480 661 c 1,33,-1
 504 649 l 1,34,-1
 508 637 l 1,35,36
 532 601 532 601 544 573 c 1,37,38
 540 533 540 533 540 505 c 2,39,-1
 540 445 l 1,40,41
 508 329 508 329 412 337 c 1,42,43
 328 297 328 297 276 425 c 1,44,-1
 264 449 l 1,45,46
 264 497 264 497 244 533 c 1,47,48
 192 521 192 521 156 541 c 1,49,50
 96 513 96 513 40 529 c 1,51,-1
 16 525 l 1,52,53
 4 497 4 497 0 473 c 1,54,55
 16 273 16 273 124 141 c 1,56,-1
 144 137 l 1,57,58
 176 113 176 113 192 93 c 1,59,-1
 204 89 l 2,60,61
 228 81 228 81 244 65 c 1,62,63
 296 45 296 45 328 21 c 1,64,65
 328 13 328 13 332 -7 c 1,66,67
 328 -63 328 -63 336 -99 c 1,68,69
 396 -123 396 -123 456 -75 c 1,70,-1
 508 -79 l 1,71,72
 556 -103 556 -103 588 -63 c 1,73,74
 560 1 560 1 556 49 c 1,75,76
 584 61 584 61 608 57 c 1,77,-1
 628 69 l 1,78,79
 668 101 668 101 704 117 c 1,80,81
 840 305 840 305 820 509 c 1,82,-1
 832 537 l 1,83,84
 832 573 832 573 840 601 c 1,85,-1
 840 613 l 1,86,87
 824 661 824 661 828 701 c 1,88,-1
 828 713 l 1,89,90
 816 741 816 741 816 761 c 1,91,92
 812 773 812 773 792 789 c 1,93,-1
 788 801 l 1,94,95
 776 821 776 821 764 829 c 1,96,97
 752 849 752 849 748 861 c 2,98,-1
 736 877 l 1,99,-1
 692 937 l 1,100,-1
 680 945 l 1,101,102
 648 957 648 957 628 973 c 1,103,-1
 600 985 l 1,104,-1
 576 993 l 1,105,-1
 568 997 l 1,106,107
 532 1009 532 1009 508 1025 c 1,108,109
 444 1049 444 1049 400 1077 c 1,110,111
 288 1193 288 1193 328 1333 c 1,112,113
 384 1421 384 1421 444 1465 c 1,114,115
 468 1457 468 1457 492 1457 c 0,116,117
 588 1453 588 1453 588 1313 c 2,118,-1
 588 1245 l 2,119,120
 588 1209 588 1209 592 1185 c 1,121,122
 616 1169 616 1169 632 1153 c 1,123,124
 724 1145 724 1145 792 1161 c 1,125,126
 824 1145 824 1145 856 1157 c 1,127,128
 896 1561 896 1561 580 1765 c 1,129,-1
 584 1785 l 1,130,131
 552 1857 552 1857 584 1921 c 1,132,-1
 576 1949 l 1,133,134
 544 1965 544 1965 516 1961 c 1,135,0
 484 1941 484 1941 452 1945 c 1,1,-1
512 1893 m 1,136,-1
 516 1769 l 1,137,138
 544 1741 544 1741 548 1709 c 1,139,140
 560 1689 560 1689 576 1681 c 1,141,-1
 596 1685 l 1,142,143
 720 1585 720 1585 764 1457 c 1,144,145
 840 1329 840 1329 796 1201 c 1,146,147
 716 1189 716 1189 652 1201 c 1,148,149
 652 1233 652 1233 640 1253 c 1,150,151
 656 1325 656 1325 628 1381 c 1,152,153
 620 1449 620 1449 580 1489 c 1,154,-1
 552 1493 l 1,155,156
 480 1513 480 1513 432 1513 c 1,157,-1
 416 1501 l 1,158,-1
 392 1489 l 2,159,160
 360 1477 360 1477 340 1461 c 1,161,162
 244 1329 244 1329 264 1181 c 1,163,-1
 272 1177 l 1,164,165
 280 1153 280 1153 292 1137 c 1,166,167
 304 1105 304 1105 320 1085 c 1,168,169
 332 1057 332 1057 344 1041 c 1,170,-1
 364 1033 l 1,171,172
 380 1017 380 1017 400 1009 c 1,173,174
 436 981 436 981 452 973 c 1,175,176
 632 945 632 945 696 821 c 1,177,178
 800 709 800 709 760 557 c 1,179,180
 796 305 796 305 640 145 c 1,181,182
 576 105 576 105 512 113 c 1,183,184
 500 97 500 97 492 89 c 1,185,186
 512 25 512 25 512 -11 c 1,187,188
 452 -43 452 -43 400 -47 c 1,189,190
 388 -35 388 -35 384 -23 c 1,191,192
 400 25 400 25 388 69 c 1,193,194
 368 77 368 77 356 89 c 1,195,196
 224 117 224 117 128 229 c 1,197,198
 48 353 48 353 60 485 c 1,199,200
 124 497 124 497 172 469 c 1,201,-1
 192 473 l 1,202,-1
 204 453 l 1,203,204
 240 345 240 345 316 281 c 1,205,-1
 332 277 l 1,206,-1
 360 273 l 1,207,208
 384 265 384 265 408 265 c 1,209,-1
 432 257 l 1,210,-1
 480 289 l 1,211,-1
 488 297 l 1,212,213
 544 325 544 325 576 369 c 1,214,-1
 584 373 l 1,215,216
 624 509 624 509 596 625 c 1,217,218
 568 677 568 677 532 701 c 1,219,220
 516 705 516 705 492 721 c 1,221,-1
 472 729 l 1,222,223
 440 753 440 753 416 765 c 1,224,-1
 400 761 l 1,225,-1
 384 773 l 1,226,-1
 340 797 l 1,227,-1
 324 809 l 1,228,-1
 296 821 l 2,229,230
 252 837 252 837 224 861 c 2,231,-1
 216 869 l 1,232,-1
 196 897 l 1,233,-1
 132 965 l 1,234,235
 120 997 120 997 104 1017 c 1,236,-1
 104 1033 l 1,237,238
 100 1057 100 1057 88 1073 c 1,239,-1
 88 1129 l 1,240,-1
 76 1169 l 1,241,-1
 80 1185 l 1,242,-1
 72 1225 l 1,243,244
 84 1273 84 1273 72 1313 c 1,245,246
 72 1481 72 1481 176 1585 c 1,247,248
 260 1717 260 1717 396 1721 c 1,249,-1
 412 1741 l 1,250,-1
 396 1789 l 1,251,-1
 404 1877 l 1,252,-1
 412 1885 l 1,253,-1
 500 1897 l 1,254,-1
 512 1893 l 1,136,-1
EndSplineSet
Validated: 41
Layer: 2
EndChar

StartChar: percent
Encoding: 37 37 8
Width: 1640
Flags: W
LayerCount: 3
Back
Fore
SplineSet
1008 1799 m 1,1,-1
 992 1795 l 1,2,-1
 924 1795 l 1,3,4
 828 1783 828 1783 768 1791 c 1,5,6
 736 1787 736 1787 716 1774 c 1,7,8
 712 1750 712 1750 708 1745 c 0,9,10
 704 1725 704 1725 696 1712 c 0,11,12
 668 1667 668 1667 660 1630 c 1,13,-1
 648 1605 l 1,14,-1
 636 1576 l 1,15,-1
 628 1568 l 1,16,17
 604 1510 604 1510 584 1477 c 1,18,19
 576 1448 576 1448 560 1427 c 1,20,-1
 556 1410 l 1,21,22
 536 1373 536 1373 532 1344 c 1,23,-1
 516 1295 l 1,24,-1
 508 1282 l 1,25,-1
 496 1262 l 1,26,27
 468 1204 468 1204 456 1187 c 2,28,-1
 444 1162 l 1,29,-1
 432 1133 l 1,30,-1
 428 1109 l 1,31,32
 412 1088 412 1088 408 1067 c 1,33,34
 396 1047 396 1047 392 1030 c 2,35,-1
 380 1005 l 1,36,-1
 240 662 l 2,37,38
 228 641 228 641 224 629 c 0,39,40
 200 592 200 592 190 556.5 c 128,-1,41
 180 521 180 521 176 493 c 1,42,43
 164 464 164 464 160 443 c 1,44,45
 140 406 140 406 130 379 c 128,-1,46
 120 352 120 352 116 348 c 2,47,-1
 104 298 l 1,48,49
 92 273 92 273 88 257 c 0,50,51
 80 232 80 232 68 203 c 1,52,53
 44 166 44 166 36 133 c 1,54,-1
 0 54 l 1,55,56
 16 25 16 25 20 1 c 1,57,-1
 96 1 l 1,58,-1
 112 5 l 1,59,-1
 140 5 l 1,60,-1
 148 1 l 1,61,-1
 184 5 l 1,62,-1
 228 5 l 1,63,64
 316 21 316 21 376 9 c 1,65,66
 400 17 400 17 412 29 c 1,67,68
 412 75 412 75 368 71 c 1,69,-1
 364 83 l 1,70,-1
 372 100 l 1,71,-1
 372 112 l 1,72,-1
 380 129 l 1,73,-1
 380 141 l 1,74,-1
 400 195 l 1,75,-1
 428 286 l 1,76,77
 436 298 436 298 444 327 c 2,78,-1
 468 385 l 1,79,-1
 468 397 l 1,80,-1
 480 418 l 1,81,82
 484 455 484 455 496 480 c 2,83,-1
 508 513 l 1,84,-1
 520 542 l 1,85,-1
 536 567 l 2,86,87
 544 579 544 579 556 604 c 1,88,89
 560 629 560 629 576 662 c 1,90,-1
 604 757 l 1,91,-1
 612 770 l 1,92,-1
 620 794 l 1,93,-1
 644 840 l 1,94,95
 652 873 652 873 668 894 c 1,96,97
 672 918 672 918 692 956 c 1,98,99
 704 1009 704 1009 724 1047 c 2,100,-1
 736 1076 l 1,101,-1
 768 1129 l 1,102,-1
 772 1146 l 1,103,-1
 780 1167 l 1,104,105
 804 1208 804 1208 816 1241 c 1,106,-1
 824 1257 l 1,107,108
 848 1324 848 1324 884 1394 c 0,109,110
 908 1439 908 1439 916 1468 c 1,111,-1
 924 1477 l 1,112,-1
 936 1501 l 1,113,-1
 972 1559 l 1,114,-1
 976 1572 l 1,115,-1
 988 1601 l 1,116,-1
 1020 1692 l 1,117,118
 1036 1716 1036 1716 1056 1729 c 1,119,120
 1076 1807 1076 1807 1024 1816 c 1,121,0
 1012 1807 1012 1807 1008 1799 c 1,1,-1
-200 1489 m 1,123,124
 -216 1245 -216 1245 -8 1171 c 1,125,-1
 24 1162 l 1,126,-1
 36 1162 l 1,127,-1
 88 1150 l 1,128,-1
 192 1150 l 1,129,-1
 220 1175 l 1,130,131
 284 1200 284 1200 316 1237 c 1,132,133
 428 1332 428 1332 404 1473 c 1,134,135
 352 1708 352 1708 168 1741 c 1,136,137
 120 1770 120 1770 76 1774 c 1,138,122
 -212 1725 -212 1725 -200 1489 c 1,123,124
972 1696 m 1,140,141
 948 1654 948 1654 940 1617 c 1,142,143
 924 1592 924 1592 914 1567.5 c 128,-1,144
 904 1543 904 1543 900 1539 c 2,145,-1
 888 1526 l 1,146,-1
 884 1514 l 2,147,148
 872 1489 872 1489 860 1473 c 1,149,150
 848 1435 848 1435 832 1406 c 1,151,-1
 828 1390 l 1,152,153
 808 1353 808 1353 804 1340 c 2,154,-1
 768 1257 l 1,155,156
 752 1233 752 1233 732 1187 c 0,157,158
 716 1142 716 1142 708 1129 c 2,159,-1
 696 1100 l 1,160,-1
 684 1084 l 1,161,-1
 680 1067 l 1,162,-1
 664 1042 l 1,163,164
 664 1030 664 1030 660 1026 c 2,165,-1
 656 1014 l 1,166,-1
 644 985 l 1,167,-1
 604 885 l 1,168,169
 592 844 592 844 576 823 c 1,170,-1
 528 679 l 1,171,-1
 524 662 l 1,172,-1
 504 617 l 1,173,-1
 460 534 l 1,174,-1
 440 459 l 1,175,176
 420 414 420 414 412 381 c 0,177,178
 408 369 408 369 404 364 c 2,179,-1
 400 348 l 1,180,-1
 384 306 l 1,181,182
 384 294 384 294 372 273 c 1,183,-1
 352 207 l 1,184,-1
 340 178 l 1,185,-1
 336 153 l 1,186,-1
 312 87 l 1,187,-1
 316 71 l 1,188,-1
 308 63 l 1,189,-1
 256 63 l 1,190,191
 152 38 152 38 64 63 c 1,192,193
 72 108 72 108 92 137 c 1,194,195
 104 170 104 170 116 191 c 0,196,197
 136 244 136 244 140 265 c 2,198,-1
 160 319 l 2,199,200
 172 340 172 340 176 352 c 2,201,-1
 208 439 l 2,202,203
 224 476 224 476 236 538 c 1,204,-1
 260 584 l 1,205,206
 272 625 272 625 292 654 c 1,207,208
 304 691 304 691 320 720 c 1,209,-1
 324 737 l 1,210,211
 344 778 344 778 352 807 c 2,212,-1
 356 819 l 2,213,214
 368 852 368 852 380 869 c 1,215,-1
 396 914 l 1,216,-1
 408 947 l 1,217,-1
 416 956 l 1,218,-1
 440 1014 l 1,219,220
 472 1067 472 1067 480 1117 c 1,221,-1
 508 1167 l 1,222,223
 528 1216 528 1216 548 1245 c 1,224,-1
 576 1303 l 1,225,226
 576 1315 576 1315 580 1325.5 c 128,-1,227
 584 1336 584 1336 588 1340 c 2,228,-1
 616 1415 l 2,229,230
 628 1448 628 1448 644 1468 c 1,231,-1
 684 1555 l 1,232,-1
 688 1568 l 1,233,234
 708 1605 708 1605 716 1634 c 1,235,236
 728 1654 728 1654 732 1667 c 2,237,-1
 756 1712 l 1,238,-1
 764 1721 l 1,239,-1
 780 1725 l 1,240,241
 800 1725 800 1725 820 1729 c 2,242,-1
 844 1737 l 1,243,-1
 936 1745 l 2,244,139
 992 1750 992 1750 972 1696 c 1,140,141
344 1481 m 1,246,247
 368 1332 368 1332 252 1262 c 1,248,249
 108 1146 108 1146 -36 1241 c 1,250,251
 -160 1336 -160 1336 -144 1481 c 1,252,253
 -156 1592 -156 1592 -76 1642 c 1,254,255
 -48 1692 -48 1692 0 1679 c 1,256,257
 20 1692 20 1692 32 1704 c 1,258,245
 284 1721 284 1721 344 1481 c 1,246,247
-28 1394 m 1,260,261
 28 1324 28 1324 108 1311 c 1,262,263
 260 1320 260 1320 244 1464 c 0,264,265
 228 1617 228 1617 52 1592 c 1,266,259
 -72 1526 -72 1526 -28 1394 c 1,260,261
72 1522 m 1,267,-1
 104 1526 l 1,268,-1
 152 1530 l 1,269,-1
 184 1497 l 1,270,271
 200 1295 200 1295 36 1398 c 1,272,273
 0 1468 0 1468 44 1530 c 1,274,-1
 72 1522 l 1,267,-1
672 216 m 1,276,277
 744 25 744 25 912 -8 c 1,278,279
 932 -20 932 -20 944 -24 c 0,280,281
 1272 -53 1272 -53 1312 265 c 1,282,283
 1316 364 1316 364 1268 439 c 1,284,285
 1220 555 1220 555 1116 588 c 1,286,287
 1028 658 1028 658 928 658 c 1,288,275
 644 513 644 513 672 216 c 1,276,277
1236 385 m 0,290,291
 1280 286 1280 286 1236 195 c 1,292,293
 1204 91 1204 91 1128 46 c 1,294,295
 824 -45 824 -45 724 253 c 1,296,297
 732 480 732 480 900 588 c 1,298,299
 920 584 920 584 940 592 c 1,300,289
 1164 563 1164 563 1236 385 c 0,290,291
864 311 m 1,302,303
 884 178 884 178 1056 182 c 1,304,305
 1180 195 1180 195 1164 344 c 1,306,307
 1128 505 1128 505 972 484 c 1,308,301
 852 435 852 435 864 311 c 1,302,303
1052 393 m 1,310,311
 1096 397 1096 397 1112 356 c 1,312,313
 1112 282 1112 282 1076 232 c 1,314,315
 960 207 960 207 928 294 c 1,316,317
 904 393 904 393 992 418 c 1,318,309
 1028 414 1028 414 1052 393 c 1,310,311
EndSplineSet
Validated: 41
Layer: 2
EndChar

StartChar: ampersand
Encoding: 38 38 9
Width: 1270
Flags: W
LayerCount: 3
Back
Fore
SplineSet
432 1776 m 1,1,-1
 344 1760 l 1,2,-1
 336 1756 l 1,3,4
 264 1712 264 1712 228 1660 c 1,5,-1
 224 1644 l 1,6,-1
 204 1604 l 2,7,8
 188 1580 188 1580 180 1556 c 2,9,-1
 176 1544 l 1,10,-1
 160 1456 l 1,11,-1
 160 1400 l 1,12,-1
 156 1388 l 1,13,14
 156 1364 156 1364 152 1348 c 1,15,-1
 156 1332 l 1,16,-1
 152 1320 l 1,17,-1
 156 1296 l 1,18,-1
 152 1284 l 1,19,-1
 152 1252 l 1,20,21
 164 1220 164 1220 160 1192 c 1,22,-1
 208 1092 l 1,23,-1
 208 1080 l 1,24,25
 228 1048 228 1048 232 1016 c 1,26,-1
 180 892 l 1,27,28
 0 628 0 628 0 336 c 1,29,-1
 12 276 l 1,30,-1
 60 148 l 2,31,32
 68 124 68 124 80 108 c 1,33,-1
 88 104 l 1,34,35
 144 52 144 52 216 36 c 1,36,-1
 224 28 l 1,37,-1
 248 24 l 1,38,-1
 264 16 l 1,39,-1
 292 12 l 1,40,-1
 320 8 l 1,41,42
 360 12 360 12 392 0 c 1,43,44
 568 48 568 48 676 164 c 1,45,-1
 684 168 l 1,46,47
 716 192 716 192 740 204 c 1,48,-1
 752 188 l 1,49,-1
 764 176 l 1,50,-1
 808 108 l 1,51,-1
 832 52 l 1,52,-1
 840 44 l 1,53,-1
 864 24 l 1,54,-1
 896 24 l 1,55,-1
 904 28 l 1,56,-1
 936 36 l 1,57,58
 984 40 984 40 1016 48 c 1,59,-1
 1048 40 l 1,60,61
 1072 28 1072 28 1092 24 c 1,62,-1
 1108 36 l 1,63,64
 1116 68 1116 68 1108 96 c 1,65,-1
 1064 144 l 1,66,67
 1052 176 1052 176 1036 196 c 2,68,-1
 1024 208 l 1,69,-1
 912 392 l 1,70,71
 956 460 956 460 1020 488 c 1,72,73
 1040 508 1040 508 1068 508 c 1,74,-1
 1088 520 l 1,75,76
 1092 532 1092 532 1096 536 c 1,77,-1
 1088 568 l 1,78,-1
 1064 612 l 1,79,-1
 1056 620 l 1,80,-1
 1048 636 l 1,81,-1
 988 724 l 1,82,83
 964 776 964 776 912 784 c 1,84,-1
 904 772 l 1,85,-1
 888 760 l 1,86,87
 828 732 828 732 792 692 c 0,88,89
 776 676 776 676 756 672 c 1,90,-1
 748 684 l 1,91,-1
 684 748 l 1,92,-1
 680 760 l 1,93,-1
 668 772 l 1,94,-1
 628 840 l 1,95,-1
 616 852 l 1,96,97
 588 892 588 892 568 912 c 1,98,99
 564 940 564 940 556 956 c 1,100,101
 576 976 576 976 584 988 c 1,102,103
 656 1036 656 1036 684 1108 c 1,104,105
 840 1272 840 1272 784 1472 c 1,106,107
 760 1756 760 1756 476 1780 c 1,108,0
 452 1772 452 1772 432 1776 c 1,1,-1
728 1476 m 1,110,111
 764 1268 764 1268 632 1136 c 1,112,-1
 632 1124 l 1,113,114
 592 1080 592 1080 564 1052 c 1,115,-1
 552 1044 l 1,116,117
 528 1008 528 1008 500 992 c 1,118,119
 488 964 488 964 492 936 c 1,120,-1
 496 928 l 1,121,122
 516 904 516 904 524 884 c 2,123,-1
 528 876 l 1,124,125
 556 852 556 852 572 828 c 1,126,-1
 580 820 l 1,127,128
 596 780 596 780 632 728 c 1,129,130
 660 664 660 664 708 628 c 1,131,132
 724 596 724 596 744 580 c 1,133,134
 768 584 768 584 784 592 c 1,135,136
 840 676 840 676 928 700 c 1,137,-1
 980 648 l 1,138,-1
 984 636 l 1,139,-1
 1020 576 l 1,140,141
 984 540 984 540 948 524 c 1,142,-1
 936 512 l 1,143,144
 924 492 924 492 912 480 c 1,145,146
 864 472 864 472 836 452 c 1,147,-1
 840 416 l 1,148,-1
 852 400 l 1,149,-1
 872 364 l 1,150,-1
 884 340 l 1,151,-1
 896 324 l 1,152,-1
 908 300 l 2,153,154
 928 264 928 264 936 236 c 1,155,-1
 956 216 l 1,156,-1
 980 172 l 1,157,-1
 984 160 l 1,158,-1
 992 156 l 1,159,160
 1008 124 1008 124 1024 104 c 1,161,-1
 1004 96 l 1,162,-1
 940 92 l 1,163,164
 908 84 908 84 884 88 c 1,165,166
 864 108 864 108 864 120 c 1,167,-1
 852 132 l 1,168,-1
 848 148 l 1,169,-1
 832 168 l 1,170,-1
 820 188 l 1,171,172
 784 224 784 224 776 264 c 1,173,-1
 772 272 l 1,174,-1
 756 292 l 1,175,-1
 732 292 l 1,176,-1
 716 276 l 1,177,-1
 644 228 l 2,178,179
 620 208 620 208 604 200 c 1,180,-1
 596 192 l 1,181,-1
 576 168 l 1,182,183
 556 152 556 152 544 136 c 1,184,185
 520 128 520 128 504 116 c 1,186,187
 468 104 468 104 448 84 c 1,188,189
 416 80 416 80 396 64 c 1,190,191
 328 60 328 60 284 92 c 1,192,-1
 252 84 l 1,193,-1
 244 92 l 1,194,195
 168 120 168 120 116 172 c 1,196,-1
 112 188 l 1,197,198
 92 220 92 220 92 248 c 1,199,200
 76 264 76 264 72 280 c 2,201,-1
 68 288 l 1,202,203
 68 328 68 328 56 360 c 1,204,-1
 60 388 l 1,205,-1
 64 420 l 1,206,207
 80 488 80 488 76 536 c 1,208,-1
 100 572 l 1,209,-1
 104 584 l 2,210,211
 112 620 112 620 112 648 c 1,212,-1
 132 684 l 1,213,214
 152 736 152 736 172 768 c 1,215,-1
 176 784 l 1,216,-1
 188 800 l 1,217,-1
 224 864 l 1,218,-1
 236 880 l 1,219,-1
 248 904 l 1,220,-1
 260 924 l 1,221,222
 272 952 272 952 288 968 c 1,223,-1
 300 992 l 1,224,-1
 300 1020 l 1,225,226
 100 1352 100 1352 300 1648 c 1,227,-1
 332 1668 l 2,228,229
 352 1676 352 1676 364 1684 c 2,230,-1
 432 1716 l 1,231,109
 708 1720 708 1720 728 1476 c 1,110,111
464 1540 m 1,232,-1
 440 1528 l 1,233,234
 344 1372 344 1372 396 1220 c 1,235,-1
 396 1208 l 1,236,-1
 400 1176 l 1,237,-1
 404 1148 l 1,238,-1
 424 1132 l 2,239,240
 440 1120 440 1120 460 1116 c 1,241,-1
 472 1124 l 1,242,243
 492 1164 492 1164 504 1172 c 1,244,245
 524 1216 524 1216 540 1240 c 0,246,247
 568 1272 568 1272 576 1300 c 2,248,-1
 580 1312 l 1,249,250
 596 1332 596 1332 604 1352 c 2,251,-1
 620 1380 l 1,252,253
 620 1540 620 1540 496 1544 c 1,254,-1
 464 1540 l 1,232,-1
568 1404 m 1,256,-1
 544 1348 l 1,257,-1
 524 1316 l 1,258,-1
 516 1308 l 1,259,-1
 456 1216 l 1,260,261
 396 1356 396 1356 492 1476 c 1,262,-1
 516 1484 l 1,263,255
 568 1468 568 1468 568 1404 c 1,256,-1
332 796 m 1,264,-1
 324 776 l 1,265,-1
 288 712 l 1,266,267
 264 680 264 680 256 656 c 1,268,-1
 248 644 l 1,269,-1
 236 600 l 2,270,271
 228 580 228 580 220 568 c 2,272,-1
 204 520 l 1,273,274
 196 408 196 408 224 328 c 1,275,276
 268 284 268 284 312 268 c 1,277,-1
 324 268 l 1,278,-1
 388 276 l 1,279,280
 464 300 464 300 512 352 c 1,281,282
 692 448 692 448 532 580 c 1,283,284
 520 608 520 608 508 624 c 2,285,-1
 484 664 l 1,286,287
 476 688 476 688 460 706 c 128,-1,288
 444 724 444 724 432 740 c 2,289,-1
 412 768 l 1,290,291
 404 796 404 796 388 812 c 1,292,293
 364 816 364 816 348 816 c 1,294,-1
 332 796 l 1,264,-1
424 672 m 1,295,296
 432 652 432 652 444 640 c 1,297,-1
 444 628 l 1,298,-1
 452 620 l 1,299,300
 460 596 460 596 472 584 c 1,301,-1
 476 572 l 1,302,-1
 496 540 l 1,303,-1
 508 520 l 1,304,-1
 524 496 l 1,305,-1
 528 488 l 1,306,-1
 544 468 l 1,307,308
 408 280 408 280 292 356 c 1,309,-1
 284 364 l 1,310,-1
 268 388 l 1,311,-1
 256 424 l 1,312,-1
 260 432 l 1,313,314
 284 608 284 608 372 732 c 1,315,-1
 424 672 l 1,295,296
EndSplineSet
Validated: 41
Layer: 2
EndChar

StartChar: quotesingle
Encoding: 39 39 10
Width: 430
Flags: W
LayerCount: 3
Back
Fore
SplineSet
2 1705 m 1,1,-1
 6 1693 l 1,2,3
 -14 1617 -14 1617 -2 1553 c 1,4,5
 46 1493 46 1493 102 1465 c 1,6,7
 110 1405 110 1405 58 1385 c 1,8,-1
 46 1349 l 1,9,10
 98 1249 98 1249 154 1357 c 1,11,12
 310 1489 310 1489 314 1677 c 1,13,14
 266 1813 266 1813 138 1825 c 1,15,0
 38 1793 38 1793 2 1705 c 1,1,-1
198 1505 m 1,17,-1
 190 1493 l 1,18,19
 178 1525 178 1525 162 1545 c 1,20,21
 62 1517 62 1517 58 1633 c 1,22,23
 74 1737 74 1737 138 1729 c 1,24,-1
 170 1749 l 1,25,16
 326 1669 326 1669 198 1505 c 1,17,-1
EndSplineSet
Validated: 41
Layer: 2
EndChar

StartChar: parenleft
Encoding: 40 40 11
Width: 670
Flags: W
LayerCount: 3
Back
Fore
SplineSet
320 1815 m 1,0,-1
 312 1807 l 1,1,2
 292 1795 292 1795 280 1791 c 2,3,-1
 236 1767 l 1,4,-1
 208 1743 l 1,5,6
 196 1727 196 1727 176 1715 c 2,7,-1
 152 1695 l 2,8,9
 120 1671 120 1671 104 1655 c 1,10,-1
 80 1639 l 1,11,-1
 64 1619 l 1,12,-1
 52 1587 l 1,13,14
 36 1559 36 1559 40 1535 c 1,15,-1
 20 1507 l 1,16,-1
 24 1495 l 1,17,-1
 28 1467 l 1,18,19
 24 1423 24 1423 28 1395 c 0,20,21
 28 1383 28 1383 20 1363 c 1,22,-1
 24 1327 l 1,23,24
 20 1319 20 1319 20 1299 c 2,25,-1
 24 1263 l 1,26,-1
 20 1235 l 1,27,-1
 12 1203 l 1,28,29
 12 1143 12 1143 0 1103 c 1,30,-1
 0 1079 l 1,31,32
 4 1067 4 1067 0 1063 c 1,33,-1
 8 963 l 2,34,35
 8 935 8 935 0 911 c 1,36,-1
 0 895 l 1,37,38
 8 847 8 847 4 815 c 1,39,-1
 4 799 l 1,40,-1
 8 791 l 1,41,42
 0 771 0 771 4 755 c 2,43,-1
 8 639 l 1,44,-1
 0 627 l 1,45,-1
 4 611 l 1,46,-1
 8 583 l 1,47,48
 8 523 8 523 16 483 c 1,49,-1
 16 431 l 1,50,51
 -8 287 -8 287 24 175 c 1,52,-1
 52 143 l 1,53,-1
 60 123 l 1,54,-1
 88 75 l 1,55,56
 132 31 132 31 144 7 c 1,57,-1
 168 -1 l 1,58,-1
 248 -49 l 1,59,60
 304 -65 304 -65 340 -89 c 1,61,62
 360 -93 360 -93 372 -89 c 1,63,64
 416 -109 416 -109 452 -105 c 0,65,66
 512 -93 512 -93 532 -49 c 1,67,68
 532 -29 532 -29 528 -17 c 1,69,-1
 528 11 l 1,70,71
 544 107 544 107 500 179 c 1,72,73
 364 183 364 183 304 255 c 1,74,-1
 300 267 l 1,75,76
 296 295 296 295 280 339 c 1,77,-1
 280 363 l 1,78,79
 276 379 276 379 276 407 c 1,80,81
 288 447 288 447 288 479 c 1,82,-1
 280 503 l 1,83,-1
 276 539 l 1,84,-1
 276 615 l 2,85,86
 276 627 276 627 272 631 c 1,87,-1
 276 651 l 1,88,-1
 276 715 l 1,89,-1
 272 731 l 1,90,91
 284 779 284 779 276 819 c 1,92,93
 288 875 288 875 280 915 c 1,94,-1
 292 951 l 1,95,-1
 292 1023 l 1,96,-1
 296 1035 l 1,97,-1
 300 1059 l 1,98,99
 300 1123 300 1123 312 1167 c 1,100,-1
 312 1219 l 1,101,102
 324 1267 324 1267 316 1307 c 1,103,-1
 320 1327 l 1,104,105
 340 1387 340 1387 332 1439 c 1,106,107
 348 1463 348 1463 352 1483 c 1,108,-1
 392 1507 l 1,109,-1
 456 1543 l 1,110,111
 476 1515 476 1515 496 1499 c 1,112,113
 516 1507 516 1507 532 1527 c 1,114,-1
 532 1567 l 1,115,-1
 528 1579 l 1,116,-1
 528 1603 l 1,117,-1
 524 1615 l 1,118,119
 524 1639 524 1639 520 1655 c 2,120,-1
 516 1699 l 1,121,-1
 516 1755 l 1,122,123
 528 1791 528 1791 524 1819 c 1,124,125
 460 1851 460 1851 400 1847 c 1,126,-1
 320 1815 l 1,0,-1
456 1767 m 1,128,-1
 460 1743 l 1,129,-1
 468 1619 l 1,130,131
 356 1599 356 1599 288 1523 c 1,132,133
 284 1459 284 1459 264 1415 c 1,134,135
 264 1391 264 1391 272 1375 c 1,136,-1
 268 1367 l 1,137,138
 264 1319 264 1319 264 1287 c 2,139,-1
 264 1275 l 1,140,-1
 260 1243 l 1,141,-1
 256 1215 l 2,142,143
 252 1171 252 1171 240 1139 c 1,144,-1
 240 1079 l 1,145,-1
 236 1055 l 1,146,-1
 232 1023 l 1,147,148
 232 963 232 963 224 923 c 2,149,-1
 220 899 l 1,150,-1
 220 847 l 1,151,-1
 216 823 l 1,152,-1
 216 727 l 1,153,154
 208 679 208 679 220 595 c 1,155,-1
 216 583 l 1,156,-1
 212 571 l 1,157,-1
 216 547 l 1,158,-1
 216 519 l 1,159,160
 212 503 212 503 212 475 c 0,161,162
 208 431 208 431 210 405 c 128,-1,163
 212 379 212 379 216 343 c 0,164,165
 220 283 220 283 232 243 c 1,166,167
 316 135 316 135 432 111 c 0,168,169
 444 107 444 107 448 99 c 1,170,171
 444 51 444 51 456 19 c 1,172,-1
 436 -17 l 1,173,174
 404 -25 404 -25 384 -25 c 1,175,176
 196 31 196 31 92 179 c 1,177,178
 88 199 88 199 80 211 c 1,179,-1
 76 255 l 1,180,181
 80 279 80 279 76 295 c 1,182,-1
 80 311 l 1,183,-1
 84 427 l 1,184,-1
 80 455 l 1,185,-1
 76 527 l 1,186,-1
 72 551 l 1,187,188
 72 583 72 583 68 627 c 1,189,-1
 64 639 l 1,190,191
 64 667 64 667 60 687 c 1,192,193
 68 743 68 743 56 791 c 1,194,195
 60 807 60 807 58 819 c 128,-1,196
 56 831 56 831 56 851 c 2,197,-1
 68 919 l 1,198,199
 60 955 60 955 72 1007 c 1,200,-1
 68 1027 l 1,201,-1
 64 1071 l 1,202,203
 72 1103 72 1103 68 1127 c 1,204,205
 72 1139 72 1139 68 1147 c 1,206,-1
 76 1171 l 1,207,-1
 72 1183 l 1,208,-1
 80 1207 l 1,209,210
 76 1279 76 1279 92 1335 c 1,211,-1
 92 1347 l 2,212,213
 92 1379 92 1379 88 1403 c 1,214,215
 92 1427 92 1427 88 1443 c 1,216,-1
 96 1455 l 1,217,218
 96 1475 96 1475 100 1487 c 1,219,220
 100 1523 100 1523 108 1551 c 1,221,222
 208 1687 208 1687 340 1743 c 1,223,-1
 348 1751 l 1,224,-1
 400 1779 l 1,225,127
 432 1779 432 1779 456 1767 c 1,128,-1
EndSplineSet
Validated: 41
Layer: 2
EndChar

StartChar: parenright
Encoding: 41 41 12
Width: 640
Flags: W
LayerCount: 3
Back
Fore
SplineSet
21 1895 m 1,1,-1
 14 1870 l 1,2,-1
 23 1851 l 1,3,-1
 24 1839 l 1,4,5
 22 1807 22 1807 28 1763 c 1,6,-1
 29 1735 l 1,7,-1
 39 1704 l 1,8,-1
 46 1656 l 1,9,10
 69 1597 69 1597 131 1628 c 1,11,12
 144 1609 144 1609 157 1602 c 1,13,14
 162 1578 162 1578 163 1562 c 2,15,-1
 173 1522 l 1,16,-1
 186 1503 l 1,17,-1
 196 1459 l 1,18,19
 210 1424 210 1424 215 1396 c 1,20,-1
 212 1384 l 1,21,-1
 222 1349 l 1,22,-1
 223 1325 l 1,23,-1
 221 1293 l 1,24,25
 227 1257 227 1257 220 1228 c 1,26,-1
 236 1165 l 1,27,28
 233 1137 233 1137 242 1113 c 1,29,30
 240 1081 240 1081 245 1057 c 1,31,-1
 242 1037 l 1,32,33
 250 962 250 962 248 933 c 0,34,35
 250 893 250 893 247 865 c 2,36,-1
 244 845 l 1,37,-1
 245 825 l 1,38,39
 239 793 239 793 237 749 c 1,40,-1
 238 733 l 1,41,42
 231 708 231 708 232.5 686 c 128,-1,43
 234 664 234 664 231 648 c 1,44,-1
 227 640 l 1,45,-1
 226 588 l 1,46,-1
 220 539 l 2,47,48
 221 527 221 527 218 503 c 0,49,50
 219 483 219 483 224 472 c 1,51,52
 222 435 222 435 227 408 c 1,53,-1
 217 375 l 1,54,55
 204 318 204 318 189 285 c 1,56,-1
 143 247 l 1,57,58
 104 237 104 237 77 212 c 1,59,60
 40 226 40 226 9 212 c 1,61,62
 -2 191 -2 191 -1 171 c 1,63,-1
 31 97 l 1,64,-1
 37 69 l 1,65,-1
 45 -10 l 1,66,-1
 49 -22 l 1,67,68
 52 -66 52 -66 65 -98 c 1,69,-1
 98 -104 l 1,70,-1
 109 -91 l 1,71,72
 193 -95 193 -95 255 -56 c 1,73,74
 358 -26 358 -26 427 42 c 1,75,-1
 455 111 l 2,76,77
 466 128 466 128 472 172 c 1,78,79
 482 209 482 209 484.5 235 c 128,-1,80
 487 261 487 261 482 281 c 1,81,-1
 484 317 l 1,82,-1
 505 450 l 1,83,-1
 504 470 l 2,84,85
 504 482 504 482 510 511 c 1,86,-1
 504 554 l 1,87,-1
 507 566 l 1,88,-1
 506 586 l 1,89,-1
 513 607 l 1,90,-1
 512 619 l 1,91,-1
 522 667 l 1,92,93
 512 707 512 707 518 743 c 1,94,95
 519 803 519 803 509 843 c 1,96,-1
 500 935 l 1,97,98
 501 983 501 983 498 1008.5 c 128,-1,99
 495 1034 495 1034 490 1050 c 1,100,-1
 482 1198 l 1,101,-1
 473 1222 l 1,102,103
 471 1254 471 1254 466 1277 c 2,104,-1
 460 1309 l 1,105,-1
 455 1337 l 1,106,-1
 458 1361 l 1,107,-1
 449 1517 l 1,108,109
 421 1607 421 1607 432 1688 c 1,110,111
 422 1740 422 1740 400 1779 c 1,112,-1
 353 1820 l 1,113,114
 317 1830 317 1830 296 1853 c 1,115,-1
 283 1857 l 2,116,117
 263 1859 263 1859 251 1867 c 0,118,119
 160 1922 160 1922 79 1934 c 1,120,0
 53 1901 53 1901 21 1895 c 1,1,-1
346 1732 m 1,122,-1
 350 1724 l 1,123,-1
 360 1700 l 1,124,125
 361 1668 361 1668 367 1645 c 1,126,-1
 367 1629 l 1,127,-1
 400 1462 l 1,128,-1
 401 1438 l 1,129,130
 391 1402 391 1402 397 1370 c 2,131,-1
 402 1354 l 1,132,-1
 407 1338 l 1,133,-1
 409 1286 l 2,134,135
 411 1262 411 1262 420 1231 c 1,136,137
 422 1207 422 1207 426 1191 c 1,138,-1
 423 1179 l 1,139,-1
 428 1155 l 1,140,-1
 434 1039 l 1,141,-1
 445 992 l 1,142,-1
 442 968 l 1,143,144
 448 932 448 932 445 904 c 1,145,-1
 451 872 l 1,146,-1
 457 844 l 1,147,148
 458 820 458 820 455 804 c 2,149,-1
 458 748 l 1,150,-1
 454 736 l 1,151,-1
 453 692 l 1,152,153
 460 636 460 636 446 595 c 1,154,155
 451 560 451 560 449 531 c 0,156,157
 450 519 450 519 447 499 c 2,158,-1
 444 479 l 1,159,-1
 445 463 l 1,160,-1
 432 394 l 1,161,-1
 429 374 l 2,162,163
 427 338 427 338 421 310 c 1,164,165
 423 262 423 262 421 230 c 1,166,167
 411 189 411 189 396 164 c 1,168,169
 394 132 394 132 383 103 c 1,170,171
 308 19 308 19 212 10 c 1,172,173
 158 -25 158 -25 102 -24 c 1,174,175
 100 4 100 4 95 24 c 1,176,-1
 98 40 l 1,177,178
 84 88 84 88 86 128 c 1,179,-1
 97 144 l 1,180,181
 215 179 215 179 266 281 c 1,182,-1
 289 367 l 1,183,-1
 284 467 l 1,184,-1
 280 478 l 1,185,186
 286 503 286 503 285 523 c 0,187,188
 288 555 288 555 282 583 c 1,189,-1
 293 599 l 1,190,-1
 296 632 l 1,191,-1
 295 724 l 1,192,-1
 298 736 l 1,193,-1
 301 764 l 1,194,-1
 302 812 l 1,195,-1
 312 853 l 1,196,-1
 311 865 l 1,197,198
 301 900 301 900 304 928.5 c 128,-1,199
 307 957 307 957 313 977 c 1,200,-1
 307 1033 l 2,201,202
 305 1061 305 1061 300 1080 c 1,203,-1
 303 1093 l 1,204,-1
 299 1104 l 2,205,206
 294 1128 294 1128 296 1148 c 1,207,-1
 287 1184 l 1,208,-1
 290 1196 l 1,209,210
 289 1216 289 1216 284 1228 c 1,211,212
 287 1252 287 1252 277 1287 c 1,213,-1
 281 1300 l 1,214,-1
 276 1392 l 1,215,-1
 250 1502 l 1,216,-1
 248 1546 l 1,217,-1
 238 1574 l 1,218,-1
 234 1582 l 1,219,220
 228 1617 228 1617 218 1645 c 1,221,222
 167 1702 167 1702 99 1699 c 1,223,-1
 86 1718 l 1,224,225
 66 1797 66 1797 87 1866 c 1,226,121
 245 1830 245 1830 346 1732 c 1,122,-1
EndSplineSet
Validated: 41
Layer: 2
EndChar

StartChar: asterisk
Encoding: 42 42 13
Width: 1050
Flags: W
LayerCount: 3
Back
Fore
SplineSet
272 1829 m 1,1,2
 172 1869 172 1869 196 1761 c 1,3,-1
 224 1725 l 1,4,-1
 236 1705 l 2,5,6
 256 1665 256 1665 276 1645 c 1,7,-1
 272 1621 l 1,8,9
 224 1609 224 1609 180 1617 c 1,10,11
 108 1605 108 1605 48 1633 c 1,12,-1
 16 1621 l 1,13,-1
 4 1589 l 1,14,15
 40 1509 40 1509 0 1445 c 1,16,-1
 0 1421 l 1,17,18
 24 1393 24 1393 48 1377 c 1,19,-1
 104 1385 l 2,20,21
 128 1385 128 1385 144 1389 c 1,22,23
 188 1377 188 1377 224 1385 c 1,24,-1
 240 1373 l 1,25,-1
 196 1317 l 1,26,27
 164 1293 164 1293 152 1273 c 1,28,29
 148 1245 148 1245 156 1221 c 1,30,31
 196 1201 196 1201 220 1229 c 1,32,-1
 232 1229 l 1,33,34
 320 1189 320 1189 404 1193 c 1,35,-1
 420 1209 l 1,36,37
 428 1273 428 1273 468 1305 c 1,38,-1
 484 1289 l 1,39,-1
 548 1177 l 1,40,41
 572 1169 572 1169 592 1169 c 1,42,43
 664 1193 664 1193 720 1189 c 1,44,45
 796 1209 796 1209 724 1273 c 0,46,47
 672 1321 672 1321 652 1377 c 1,48,49
 684 1377 684 1377 708 1381 c 2,50,-1
 724 1385 l 1,51,52
 788 1385 788 1385 828 1397 c 1,53,54
 848 1369 848 1369 876 1369 c 1,55,56
 884 1393 884 1393 884 1413 c 0,57,58
 876 1485 876 1485 884 1533 c 1,59,60
 904 1549 904 1549 908 1569 c 1,61,62
 904 1605 904 1605 884 1629 c 1,63,-1
 804 1629 l 1,64,65
 724 1613 724 1613 672 1621 c 1,66,67
 720 1705 720 1705 796 1745 c 1,68,-1
 792 1773 l 1,69,70
 812 1789 812 1789 812 1817 c 1,71,-1
 784 1829 l 1,72,73
 688 1817 688 1817 636 1849 c 1,74,-1
 612 1849 l 1,75,-1
 568 1817 l 1,76,-1
 552 1793 l 1,77,-1
 536 1777 l 2,78,79
 496 1733 496 1733 476 1701 c 1,80,81
 412 1761 412 1761 412 1841 c 1,82,83
 388 1857 388 1857 360 1857 c 1,84,0
 304 1845 304 1845 272 1829 c 1,1,2
348 1777 m 1,85,-1
 352 1769 l 1,86,87
 412 1717 412 1717 424 1649 c 1,88,-1
 436 1633 l 1,89,90
 472 1625 472 1625 500 1629 c 1,91,-1
 524 1645 l 1,92,93
 568 1797 568 1797 712 1777 c 1,94,95
 668 1693 668 1693 604 1649 c 1,96,97
 596 1629 596 1629 600 1613 c 1,98,99
 600 1585 600 1585 608 1565 c 1,100,-1
 624 1561 l 1,101,-1
 668 1561 l 1,102,-1
 680 1565 l 1,103,-1
 796 1569 l 1,104,-1
 832 1557 l 1,105,106
 840 1525 840 1525 836 1489 c 0,107,108
 832 1465 832 1465 832 1449 c 1,109,-1
 816 1457 l 1,110,-1
 788 1457 l 1,111,112
 696 1425 696 1425 612 1445 c 1,113,-1
 576 1437 l 1,114,115
 564 1417 564 1417 564 1397 c 1,116,117
 572 1373 572 1373 580 1361 c 2,118,-1
 608 1333 l 1,119,120
 620 1313 620 1313 632 1305 c 1,121,-1
 644 1289 l 1,122,123
 660 1261 660 1261 676 1245 c 1,124,125
 540 1205 540 1205 516 1381 c 1,126,127
 496 1393 496 1393 480 1397 c 1,128,129
 460 1389 460 1389 436 1369 c 1,130,-1
 424 1349 l 1,131,-1
 400 1313 l 1,132,-1
 392 1305 l 1,133,134
 368 1269 368 1269 348 1249 c 1,135,-1
 316 1253 l 1,136,-1
 296 1265 l 1,137,138
 264 1273 264 1273 248 1285 c 1,139,140
 348 1381 348 1381 296 1437 c 1,141,-1
 284 1441 l 1,142,143
 256 1441 256 1441 240 1445 c 1,144,-1
 188 1441 l 1,145,-1
 160 1445 l 1,146,-1
 152 1441 l 1,147,-1
 88 1445 l 1,148,-1
 68 1461 l 1,149,150
 72 1513 72 1513 92 1553 c 1,151,-1
 112 1557 l 1,152,-1
 124 1553 l 1,153,-1
 168 1549 l 1,154,-1
 200 1553 l 1,155,156
 236 1549 236 1549 268 1557 c 1,157,158
 292 1549 292 1549 312 1557 c 1,159,160
 372 1629 372 1629 312 1677 c 1,161,162
 292 1721 292 1721 268 1749 c 1,163,164
 284 1773 284 1773 312 1777 c 1,165,-1
 348 1777 l 1,85,-1
EndSplineSet
Validated: 41
Layer: 2
EndChar

StartChar: plus
Encoding: 43 43 14
Width: 1080
Flags: W
LayerCount: 3
Back
Fore
SplineSet
580 1249 m 1,0,-1
 564 1245 l 2,1,2
 536 1237 536 1237 512 1233 c 2,3,-1
 480 1229 l 1,4,5
 456 1221 456 1221 436 1221 c 1,6,-1
 400 1229 l 2,7,8
 372 1233 372 1233 352 1229 c 1,9,10
 344 1217 344 1217 340 1193 c 1,11,12
 340 1149 340 1149 348 1117 c 1,13,-1
 348 1089 l 2,14,15
 348 1045 348 1045 360 1013 c 1,16,17
 360 981 360 981 348 953 c 1,18,-1
 328 945 l 1,19,-1
 244 941 l 1,20,21
 200 945 200 945 172 937 c 1,22,-1
 136 937 l 1,23,24
 80 953 80 953 32 945 c 1,25,26
 20 921 20 921 0 909 c 1,27,-1
 0 857 l 1,28,-1
 4 849 l 1,29,30
 16 789 16 789 16 749 c 1,31,32
 24 717 24 717 20 689 c 1,33,34
 32 669 32 669 44 657 c 1,35,-1
 52 661 l 1,36,37
 60 657 60 657 68 661 c 1,38,-1
 116 661 l 1,39,-1
 140 657 l 1,40,41
 260 685 260 685 360 649 c 1,42,-1
 364 617 l 1,43,-1
 372 573 l 1,44,-1
 372 545 l 2,45,46
 372 537 372 537 376 517 c 1,47,-1
 372 485 l 1,48,-1
 372 437 l 1,49,-1
 380 409 l 1,50,51
 380 365 380 365 400 313 c 1,52,53
 416 305 416 305 432 309 c 1,54,55
 492 361 492 361 568 353 c 0,56,57
 624 345 624 345 640 401 c 1,58,59
 596 489 596 489 596 573 c 1,60,61
 616 593 616 593 624 609 c 1,62,-1
 624 637 l 1,63,64
 688 673 688 673 752 669 c 1,65,-1
 764 669 l 1,66,-1
 792 673 l 1,67,-1
 832 673 l 1,68,69
 872 661 872 661 904 661 c 1,70,-1
 940 677 l 1,71,-1
 948 693 l 1,72,-1
 948 725 l 1,73,74
 912 805 912 805 944 881 c 1,75,76
 944 909 944 909 940 929 c 1,77,78
 916 949 916 949 884 949 c 1,79,-1
 876 945 l 1,80,81
 836 941 836 941 808 929 c 1,82,-1
 796 933 l 1,83,-1
 784 929 l 1,84,-1
 640 937 l 1,85,-1
 620 969 l 1,86,-1
 620 981 l 1,87,-1
 608 1025 l 1,88,-1
 608 1037 l 1,89,-1
 604 1057 l 2,90,91
 592 1121 592 1121 596 1165 c 1,92,-1
 616 1201 l 1,93,94
 612 1237 612 1237 584 1249 c 1,95,-1
 580 1249 l 1,0,-1
536 1169 m 1,96,97
 548 1121 548 1121 544 1085 c 1,98,99
 552 1057 552 1057 552 1033 c 1,100,101
 572 973 572 973 568 921 c 1,102,-1
 592 873 l 1,103,-1
 624 869 l 1,104,105
 664 877 664 877 696 869 c 1,106,107
 720 877 720 877 748 869 c 1,108,-1
 864 865 l 1,109,-1
 872 857 l 1,110,-1
 872 845 l 1,111,112
 868 789 868 789 876 753 c 1,113,-1
 868 745 l 1,114,115
 836 733 836 733 812 733 c 2,116,-1
 752 733 l 1,117,-1
 740 729 l 1,118,119
 692 729 692 729 660 721 c 1,120,-1
 648 721 l 1,121,-1
 636 729 l 1,122,123
 592 729 592 729 560 741 c 1,124,125
 548 733 548 733 544 729 c 0,126,127
 532 693 532 693 534 663 c 128,-1,128
 536 633 536 633 544 609 c 1,129,-1
 544 577 l 1,130,-1
 548 565 l 1,131,132
 548 457 548 457 556 425 c 1,133,134
 504 401 504 401 456 409 c 1,135,136
 440 429 440 429 432 445 c 1,137,-1
 432 525 l 1,138,139
 428 549 428 549 424 553 c 1,140,-1
 424 697 l 1,141,-1
 408 713 l 1,142,-1
 364 741 l 1,143,144
 340 741 340 741 324 737 c 2,145,-1
 296 733 l 1,146,-1
 268 729 l 1,147,148
 236 729 236 729 212 725 c 1,149,-1
 172 725 l 1,150,151
 124 721 124 721 92 725 c 1,152,153
 80 749 80 749 76 777 c 1,154,155
 64 813 64 813 64 841 c 1,156,157
 92 869 92 869 116 881 c 1,158,-1
 260 881 l 1,159,160
 336 865 336 865 404 877 c 1,161,-1
 428 905 l 1,162,163
 428 965 428 965 420 993 c 1,164,165
 420 1045 420 1045 400 1089 c 1,166,167
 400 1125 400 1125 408 1153 c 1,168,169
 460 1173 460 1173 512 1173 c 1,170,-1
 536 1169 l 1,96,97
EndSplineSet
Validated: 41
Layer: 2
EndChar

StartChar: comma
Encoding: 44 44 15
Width: 450
Flags: W
LayerCount: 3
Back
Fore
SplineSet
2 210 m 1,1,-1
 6 198 l 1,2,3
 -14 122 -14 122 -2 58 c 1,4,5
 46 -2 46 -2 102 -30 c 1,6,7
 110 -90 110 -90 58 -110 c 1,8,-1
 46 -146 l 1,9,10
 98 -246 98 -246 154 -138 c 1,11,12
 310 -6 310 -6 314 182 c 1,13,14
 266 318 266 318 138 330 c 1,15,0
 38 298 38 298 2 210 c 1,1,-1
234 74 m 1,17,-1
 230 62 l 1,18,-1
 190 -2 l 1,19,20
 182 26 182 26 166 46 c 1,21,22
 134 50 134 50 114 38 c 1,23,24
 46 86 46 86 66 154 c 1,25,26
 66 238 66 238 138 234 c 1,27,28
 154 250 154 250 170 254 c 1,29,16
 294 194 294 194 234 74 c 1,17,-1
EndSplineSet
Validated: 41
Layer: 2
EndChar

StartChar: hyphen
Encoding: 45 45 16
AltUni2: 002010.ffffffff.0
Width: 910
Flags: W
LayerCount: 3
Back
Fore
SplineSet
900 991 m 1,0,-1
 844 991 l 1,1,-1
 832 987 l 1,2,-1
 804 987 l 1,3,4
 732 979 732 979 684 983 c 1,5,-1
 628 983 l 1,6,7
 596 975 596 975 572 979 c 1,8,-1
 556 979 l 1,9,-1
 468 963 l 1,10,-1
 444 963 l 1,11,-1
 412 959 l 1,12,-1
 404 955 l 1,13,14
 372 959 372 959 348 955 c 1,15,-1
 304 967 l 1,16,17
 276 947 276 947 252 943 c 1,18,-1
 240 907 l 1,19,20
 244 875 244 875 256 847 c 1,21,-1
 256 823 l 1,22,23
 260 775 260 775 252 743 c 1,24,-1
 264 703 l 1,25,-1
 288 695 l 1,26,27
 324 699 324 699 348 719 c 1,28,29
 376 707 376 707 424 715 c 2,30,-1
 468 719 l 1,31,-1
 540 723 l 1,32,-1
 552 719 l 1,33,-1
 580 723 l 1,34,35
 608 719 608 719 636 723 c 0,36,37
 680 731 680 731 732 735 c 1,38,39
 780 731 780 731 812 735 c 2,40,-1
 828 739 l 1,41,-1
 844 743 l 1,42,43
 876 743 876 743 900 747 c 1,44,45
 944 731 944 731 984 743 c 1,46,47
 1000 791 1000 791 976 843 c 1,48,49
 1036 991 1036 991 928 999 c 1,50,-1
 900 991 l 1,0,-1
776 931 m 0,52,53
 828 939 828 939 868 919 c 1,54,55
 908 931 908 931 932 915 c 1,56,-1
 932 903 l 1,57,-1
 924 871 l 1,58,59
 924 835 924 835 912 807 c 1,60,-1
 896 807 l 1,61,-1
 832 799 l 1,62,-1
 812 795 l 1,63,-1
 792 791 l 1,64,-1
 728 787 l 1,65,-1
 684 783 l 2,66,67
 644 779 644 779 616 787 c 1,68,-1
 592 779 l 1,69,70
 516 775 516 775 488 779 c 1,71,-1
 456 775 l 1,72,-1
 428 771 l 2,73,74
 368 763 368 763 324 771 c 1,75,76
 296 839 296 839 312 899 c 1,77,-1
 332 907 l 1,78,-1
 452 911 l 2,79,80
 500 915 500 915 528 923 c 1,81,-1
 584 927 l 1,82,83
 680 927 680 927 736 935 c 1,84,51
 760 931 760 931 776 931 c 0,52,53
EndSplineSet
Validated: 41
Layer: 2
EndChar

StartChar: period
Encoding: 46 46 17
Width: 469
Flags: W
LayerCount: 3
Back
Fore
SplineSet
0 100 m 1,1,2
 52 -40 52 -40 176 -8 c 1,3,4
 280 12 280 12 304 104 c 1,5,6
 332 304 332 304 140 320 c 1,7,0
 -16 260 -16 260 0 100 c 1,1,2
216 236 m 1,9,10
 288 144 288 144 212 68 c 1,11,12
 112 12 112 12 60 108 c 1,13,-1
 60 164 l 1,14,-1
 68 172 l 1,15,-1
 92 176 l 1,16,17
 108 220 108 220 136 248 c 1,18,8
 164 240 164 240 216 236 c 1,9,10
EndSplineSet
Validated: 41
Layer: 2
EndChar

StartChar: slash
Encoding: 47 47 18
Width: 1126
Flags: W
LayerCount: 3
Back
Fore
SplineSet
908 1832 m 1,0,-1
 884 1828 l 1,1,-1
 872 1832 l 1,2,-1
 864 1828 l 1,3,-1
 840 1824 l 1,4,-1
 744 1824 l 1,5,-1
 680 1790 l 1,6,7
 676 1777 676 1777 672 1773 c 2,8,-1
 656 1743 l 1,9,-1
 652 1730 l 1,10,-1
 600 1620 l 1,11,-1
 592 1594 l 1,12,-1
 588 1577 l 1,13,14
 568 1535 568 1535 560 1505 c 0,15,16
 556 1492 556 1492 544 1462 c 2,17,-1
 496 1335 l 1,18,19
 456 1262 456 1262 448 1203 c 1,20,21
 440 1190 440 1190 436 1175 c 128,-1,22
 432 1160 432 1160 412 1131 c 1,23,-1
 408 1114 l 1,24,-1
 400 1092 l 2,25,26
 388 1062 388 1062 384 1041 c 1,27,-1
 304 863 l 1,28,-1
 300 846 l 1,29,-1
 272 773 l 1,30,-1
 264 761 l 1,31,-1
 252 735 l 1,32,-1
 240 709 l 1,33,34
 236 688 236 688 228 675 c 1,35,-1
 212 620 l 1,36,-1
 200 573 l 1,37,-1
 200 556 l 1,38,-1
 184 510 l 1,39,-1
 180 493 l 1,40,-1
 168 467 l 1,41,-1
 120 331 l 1,42,-1
 112 318 l 1,43,-1
 104 297 l 2,44,45
 92 259 92 259 72 233 c 1,46,-1
 24 144 l 1,47,48
 0 80 0 80 0 21 c 1,49,50
 16 4 16 4 32 -5 c 1,51,52
 64 -1 64 -1 88 8 c 1,53,-1
 108 -1 l 1,54,55
 152 4 152 4 180 -1 c 1,56,57
 220 8 220 8 252 4 c 1,58,-1
 260 8 l 1,59,-1
 272 4 l 1,60,-1
 280 8 l 1,61,-1
 312 8 l 1,62,-1
 324 4 l 1,63,64
 364 4 364 4 392 -5 c 1,65,66
 404 4 404 4 408 12 c 0,67,68
 412 50 412 50 424 80 c 2,69,-1
 456 178 l 1,70,-1
 460 203 l 1,71,-1
 480 242 l 1,72,-1
 480 263 l 1,73,-1
 496 293 l 1,74,-1
 500 310 l 1,75,76
 512 335 512 335 516 356 c 1,77,-1
 528 386 l 1,78,79
 528 399 528 399 532 403 c 2,80,-1
 568 522 l 1,81,-1
 588 578 l 1,82,-1
 632 675 l 1,83,84
 652 705 652 705 660 726 c 2,85,-1
 664 739 l 1,86,-1
 676 773 l 1,87,-1
 692 803 l 1,88,-1
 700 829 l 2,89,90
 704 837 704 837 708 854 c 1,91,92
 720 875 720 875 724 888 c 2,93,-1
 788 1058 l 1,94,95
 800 1118 800 1118 824 1160 c 1,96,-1
 832 1186 l 2,97,98
 836 1199 836 1199 840 1203 c 2,99,-1
 856 1245 l 1,100,-1
 868 1267 l 1,101,-1
 904 1360 l 1,102,-1
 916 1390 l 1,103,104
 920 1415 920 1415 932 1432 c 1,105,-1
 936 1449 l 1,106,-1
 952 1505 l 1,107,-1
 980 1560 l 1,108,-1
 984 1586 l 1,109,-1
 1008 1654 l 2,110,111
 1020 1692 1020 1692 1036 1717 c 1,112,113
 1040 1849 1040 1849 920 1836 c 1,114,-1
 908 1832 l 1,0,-1
992 1768 m 1,116,117
 964 1730 964 1730 960 1692 c 1,118,-1
 956 1679 l 1,119,-1
 952 1649 l 1,120,-1
 936 1603 l 1,121,122
 908 1547 908 1547 900 1509 c 1,123,-1
 892 1492 l 1,124,125
 892 1479 892 1479 884 1466 c 1,126,-1
 872 1420 l 1,127,-1
 844 1356 l 1,128,129
 844 1343 844 1343 840 1339 c 2,130,-1
 808 1258 l 1,131,-1
 800 1250 l 1,132,-1
 792 1228 l 1,133,134
 768 1182 768 1182 760 1148 c 2,135,-1
 756 1131 l 1,136,-1
 724 1024 l 1,137,138
 712 999 712 999 708 977 c 1,139,-1
 648 837 l 1,140,141
 640 803 640 803 628 782 c 2,142,-1
 504 488 l 1,143,-1
 500 467 l 1,144,-1
 496 450 l 1,145,-1
 484 408 l 1,146,-1
 480 391 l 1,147,-1
 472 369 l 2,148,149
 468 356 468 356 464 352 c 2,150,-1
 448 305 l 2,151,152
 436 276 436 276 432 254 c 1,153,-1
 424 242 l 1,154,-1
 412 212 l 1,155,-1
 408 186 l 1,156,157
 400 165 400 165 392 152 c 1,158,-1
 384 118 l 1,159,-1
 356 63 l 1,160,-1
 344 59 l 1,161,-1
 336 63 l 1,162,-1
 212 63 l 1,163,-1
 184 67 l 1,164,-1
 160 67 l 1,165,166
 100 55 100 55 52 76 c 1,167,168
 60 114 60 114 76 144 c 1,169,-1
 80 157 l 1,170,-1
 92 178 l 1,171,-1
 108 208 l 1,172,-1
 116 216 l 1,173,-1
 136 250 l 1,174,175
 148 284 148 284 160 301 c 1,176,-1
 164 318 l 1,177,-1
 188 386 l 1,178,-1
 204 416 l 1,179,-1
 208 433 l 1,180,-1
 220 463 l 2,181,182
 228 484 228 484 236 497 c 1,183,-1
 236 510 l 1,184,-1
 244 527 l 1,185,-1
 244 539 l 1,186,-1
 284 684 l 1,187,-1
 292 692 l 1,188,-1
 312 739 l 1,189,-1
 352 850 l 1,190,-1
 368 875 l 1,191,-1
 372 884 l 2,192,193
 384 905 384 905 388 918 c 2,194,-1
 400 948 l 1,195,-1
 420 1003 l 1,196,-1
 432 1028 l 1,197,-1
 452 1088 l 1,198,-1
 460 1101 l 1,199,-1
 500 1211 l 1,200,-1
 512 1233 l 1,201,-1
 520 1267 l 1,202,203
 544 1305 544 1305 552 1330 c 2,204,-1
 568 1377 l 1,205,-1
 572 1386 l 1,206,207
 588 1432 588 1432 604 1462 c 1,208,-1
 608 1475 l 2,209,210
 628 1552 628 1552 656 1598 c 1,211,-1
 656 1611 l 1,212,213
 672 1637 672 1637 680 1660 c 128,-1,214
 688 1683 688 1683 700 1696 c 1,215,-1
 728 1756 l 1,216,-1
 740 1747 l 1,217,218
 772 1747 772 1747 792 1760 c 0,219,220
 800 1764 800 1764 820 1768 c 1,221,-1
 848 1768 l 1,222,-1
 936 1785 l 1,223,115
 968 1781 968 1781 992 1768 c 1,116,117
EndSplineSet
Validated: 41
Layer: 2
EndChar

StartChar: zero
Encoding: 48 48 19
Width: 1190
Flags: W
LayerCount: 3
Back
Fore
SplineSet
304 1636 m 1,1,2
 272 1624 272 1624 256 1608 c 2,3,-1
 200 1548 l 1,4,-1
 180 1520 l 1,5,-1
 168 1508 l 1,6,-1
 160 1488 l 1,7,-1
 144 1468 l 1,8,9
 136 1448 136 1448 124 1432 c 1,10,11
 112 1404 112 1404 100 1388 c 1,12,13
 92 1364 92 1364 80 1348 c 1,14,15
 76 1316 76 1316 60 1296 c 1,16,17
 60 1280 60 1280 52 1256 c 1,18,19
 52 1232 52 1232 44 1214 c 128,-1,20
 36 1196 36 1196 36 1180 c 1,21,-1
 24 1140 l 2,22,23
 24 1128 24 1128 20 1124 c 2,24,-1
 16 1072 l 1,25,-1
 12 1028 l 1,26,27
 4 988 4 988 4 964 c 1,28,-1
 0 952 l 1,29,30
 4 928 4 928 0 908 c 1,31,-1
 0 720 l 1,32,-1
 12 656 l 1,33,34
 12 632 12 632 16 628 c 1,35,-1
 16 612 l 1,36,37
 20 568 20 568 28 544 c 1,38,-1
 32 512 l 2,39,40
 40 476 40 476 44 456 c 0,41,42
 48 432 48 432 48 416 c 1,43,-1
 56 404 l 1,44,-1
 60 380 l 2,45,46
 64 360 64 360 72 348 c 2,47,-1
 116 228 l 1,48,-1
 124 220 l 1,49,-1
 140 200 l 1,50,-1
 164 156 l 1,51,-1
 216 96 l 1,52,53
 340 20 340 20 460 16 c 1,54,-1
 488 12 l 1,55,-1
 496 8 l 1,56,-1
 588 4 l 1,57,-1
 600 0 l 1,58,59
 652 12 652 12 688 12 c 1,60,-1
 696 16 l 1,61,-1
 716 32 l 2,62,63
 740 52 740 52 756 60 c 0,64,65
 780 76 780 76 784 84 c 2,66,-1
 804 100 l 1,67,68
 816 116 816 116 828 120 c 1,69,70
 848 148 848 148 872 164 c 1,71,-1
 880 172 l 1,72,73
 916 216 916 216 948 240 c 1,74,-1
 948 248 l 1,75,-1
 960 256 l 1,76,77
 976 320 976 320 1012 364 c 1,78,-1
 1020 384 l 1,79,80
 1020 408 1020 408 1028 424 c 1,81,82
 1028 440 1028 440 1030 456 c 128,-1,83
 1032 472 1032 472 1040 492 c 1,84,85
 1044 528 1044 528 1052 556 c 1,86,-1
 1048 580 l 1,87,-1
 1052 600 l 1,88,-1
 1048 620 l 1,89,-1
 1052 664 l 1,90,91
 1048 708 1048 708 1052 736 c 1,92,-1
 1048 768 l 1,93,-1
 1052 788 l 1,94,95
 1052 812 1052 812 1048 828 c 1,96,-1
 1048 868 l 1,97,-1
 1044 900 l 1,98,-1
 1048 984 l 1,99,-1
 1044 996 l 1,100,-1
 1040 1016 l 1,101,-1
 1040 1040 l 1,102,-1
 1036 1052 l 1,103,104
 1036 1096 1036 1096 1028 1124 c 1,105,-1
 1028 1136 l 1,106,107
 1012 1208 1012 1208 1016 1256 c 1,108,109
 992 1304 992 1304 988 1344 c 1,110,111
 972 1360 972 1360 964 1382 c 128,-1,112
 956 1404 956 1404 936 1436 c 0,113,114
 900 1488 900 1488 888 1532 c 1,115,-1
 852 1568 l 1,116,117
 828 1604 828 1604 784 1644 c 1,118,119
 760 1656 760 1656 744 1672 c 1,120,-1
 716 1680 l 1,121,-1
 688 1696 l 1,122,123
 660 1704 660 1704 644 1720 c 1,124,125
 620 1728 620 1728 604 1740 c 1,126,-1
 592 1740 l 1,127,128
 556 1752 556 1752 528 1748 c 0,129,0
 392 1716 392 1716 304 1636 c 1,1,2
592 1664 m 1,130,131
 612 1652 612 1652 640 1644 c 1,132,133
 660 1632 660 1632 672 1628 c 0,134,135
 716 1616 716 1616 744 1600 c 1,136,-1
 764 1584 l 1,137,-1
 796 1548 l 1,138,-1
 816 1524 l 1,139,-1
 844 1484 l 1,140,141
 848 1468 848 1468 864 1448 c 1,142,-1
 940 1304 l 1,143,144
 944 1276 944 1276 956 1256 c 1,145,-1
 956 1212 l 1,146,-1
 960 1188 l 2,147,148
 972 1140 972 1140 972 1104 c 1,149,-1
 976 1096 l 1,150,-1
 980 1016 l 1,151,152
 992 980 992 980 988 948 c 0,153,154
 984 936 984 936 988 928 c 2,155,-1
 992 800 l 1,156,-1
 988 784 l 1,157,-1
 992 768 l 1,158,-1
 988 752 l 1,159,-1
 992 736 l 1,160,-1
 992 708 l 1,161,162
 988 668 988 668 992 640 c 1,163,-1
 992 580 l 1,164,-1
 984 548 l 1,165,166
 984 496 984 496 968 460 c 1,167,168
 968 428 968 428 956 400 c 0,169,170
 848 168 848 168 640 56 c 1,171,-1
 572 60 l 1,172,173
 492 52 492 52 424 80 c 1,174,175
 288 116 288 116 204 208 c 1,176,-1
 184 240 l 1,177,-1
 172 264 l 1,178,-1
 160 284 l 1,179,-1
 140 332 l 2,180,181
 132 360 132 360 120 380 c 1,182,183
 112 408 112 408 112 424 c 2,184,-1
 108 476 l 1,185,186
 96 492 96 492 92 512 c 1,187,-1
 92 524 l 2,188,189
 92 544 92 544 88 556 c 2,190,-1
 76 620 l 1,191,-1
 72 664 l 1,192,-1
 68 800 l 1,193,-1
 60 808 l 1,194,-1
 60 828 l 2,195,196
 60 840 60 840 64 844 c 1,197,198
 60 856 60 856 64 876 c 1,199,-1
 60 892 l 1,200,-1
 64 908 l 1,201,-1
 68 952 l 1,202,-1
 68 992 l 1,203,-1
 76 1012 l 1,204,-1
 76 1096 l 1,205,206
 88 1120 88 1120 92 1124 c 2,207,-1
 96 1172 l 1,208,-1
 104 1200 l 1,209,210
 120 1228 120 1228 136 1276 c 0,211,212
 152 1312 152 1312 156 1340 c 1,213,-1
 168 1364 l 1,214,-1
 176 1372 l 1,215,216
 188 1400 188 1400 200 1416 c 2,217,-1
 208 1424 l 1,218,219
 220 1460 220 1460 236 1484 c 1,220,-1
 268 1516 l 1,221,-1
 280 1524 l 1,222,-1
 304 1552 l 1,223,-1
 316 1560 l 1,224,-1
 336 1588 l 1,225,226
 376 1604 376 1604 400 1632 c 1,227,228
 428 1640 428 1640 452 1636 c 1,229,-1
 464 1648 l 1,230,231
 508 1656 508 1656 532 1676 c 1,232,-1
 592 1664 l 1,130,131
476 1420 m 1,233,234
 448 1408 448 1408 440 1400 c 2,235,-1
 372 1360 l 1,236,-1
 320 1268 l 1,237,238
 312 1236 312 1236 296 1216 c 1,239,-1
 284 1164 l 1,240,-1
 268 1112 l 1,241,-1
 268 1100 l 1,242,-1
 264 1080 l 1,243,244
 268 1056 268 1056 264 1036 c 2,245,-1
 252 1000 l 1,246,-1
 248 976 l 1,247,-1
 240 908 l 1,248,249
 244 872 244 872 236 848 c 1,250,-1
 240 828 l 1,251,252
 240 796 240 796 248 776 c 1,253,-1
 248 760 l 2,254,255
 248 728 248 728 252 708 c 2,256,-1
 256 676 l 1,257,-1
 260 632 l 1,258,-1
 260 596 l 1,259,-1
 268 576 l 1,260,-1
 268 560 l 1,261,-1
 284 492 l 1,262,-1
 288 472 l 1,263,-1
 300 408 l 1,264,-1
 308 400 l 1,265,-1
 344 328 l 1,266,267
 428 264 428 264 520 264 c 2,268,-1
 584 264 l 1,269,270
 712 328 712 328 756 452 c 1,271,272
 816 532 816 532 800 624 c 1,273,-1
 816 680 l 1,274,-1
 820 708 l 1,275,-1
 816 736 l 1,276,277
 820 748 820 748 816 760 c 1,278,-1
 828 824 l 1,279,280
 820 848 820 848 824 868 c 0,281,282
 824 880 824 880 820 884 c 2,283,-1
 816 960 l 1,284,-1
 812 980 l 2,285,286
 800 1028 800 1028 800 1064 c 1,287,-1
 796 1080 l 1,288,-1
 784 1124 l 1,289,-1
 776 1148 l 1,290,-1
 776 1160 l 1,291,-1
 756 1232 l 1,292,-1
 724 1284 l 1,293,-1
 716 1304 l 1,294,295
 692 1332 692 1332 680 1356 c 1,296,-1
 668 1360 l 1,297,-1
 664 1368 l 1,298,299
 628 1380 628 1380 608 1404 c 1,300,301
 584 1416 584 1416 572 1428 c 1,302,-1
 488 1428 l 1,303,-1
 476 1420 l 1,233,234
572 1340 m 1,305,-1
 580 1332 l 1,306,-1
 604 1312 l 1,307,308
 664 1276 664 1276 696 1228 c 1,309,-1
 720 1152 l 1,310,311
 716 1140 716 1140 720 1132 c 2,312,-1
 728 1116 l 1,313,314
 732 1088 732 1088 740 1066 c 128,-1,315
 748 1044 748 1044 752 1008 c 0,316,317
 756 948 756 948 768 908 c 1,318,319
 764 876 764 876 764 856 c 2,320,-1
 764 844 l 2,321,322
 764 808 764 808 760 780 c 1,323,-1
 760 768 l 1,324,325
 756 744 756 744 760 724 c 1,326,-1
 760 692 l 1,327,328
 748 656 748 656 744 628 c 1,329,330
 748 568 748 568 728 512 c 1,331,-1
 724 504 l 1,332,-1
 692 464 l 1,333,-1
 680 444 l 1,334,335
 656 384 656 384 624 352 c 1,336,337
 548 312 548 312 472 320 c 1,338,339
 420 340 420 340 384 380 c 1,340,-1
 380 388 l 2,341,342
 372 412 372 412 360 428 c 1,343,-1
 360 440 l 1,344,345
 348 464 348 464 348 488 c 1,346,-1
 344 496 l 1,347,-1
 332 524 l 1,348,-1
 332 548 l 1,349,350
 324 572 324 572 324 596 c 1,351,352
 312 652 312 652 316 692 c 1,353,-1
 312 704 l 1,354,-1
 308 732 l 1,355,-1
 312 748 l 1,356,357
 300 804 300 804 308 848 c 1,358,-1
 300 880 l 1,359,360
 312 904 312 904 316 928 c 1,361,-1
 312 936 l 1,362,-1
 316 948 l 1,363,364
 316 976 316 976 324 1000 c 1,365,366
 324 1152 324 1152 388 1268 c 1,367,368
 444 1328 444 1328 516 1348 c 1,369,304
 548 1340 548 1340 572 1340 c 1,305,-1
EndSplineSet
Validated: 41
Layer: 2
EndChar

StartChar: one
Encoding: 49 49 20
Width: 1022
Flags: W
LayerCount: 3
Back
Fore
SplineSet
316 1821 m 1,0,-1
 304 1804 l 1,1,-1
 280 1775 l 1,2,-1
 268 1767 l 1,3,-1
 256 1750 l 1,4,-1
 140 1628 l 1,5,-1
 128 1619 l 1,6,-1
 116 1603 l 1,7,-1
 36 1527 l 1,8,-1
 12 1506 l 1,9,10
 20 1455 20 1455 8 1417 c 1,11,-1
 8 1371 l 1,12,13
 4 1295 4 1295 16 1245 c 1,14,15
 0 1228 0 1228 0 1207 c 1,16,17
 88 1161 88 1161 172 1190 c 1,18,-1
 240 1186 l 1,19,-1
 244 1173 l 1,20,-1
 248 1035 l 1,21,-1
 252 1018 l 1,22,-1
 252 744 l 1,23,-1
 248 715 l 1,24,25
 252 669 252 669 250 637.5 c 128,-1,26
 248 606 248 606 256 580 c 1,27,28
 252 538 252 538 252 509 c 2,29,-1
 256 462 l 1,30,-1
 260 454 l 1,31,-1
 256 408 l 1,32,-1
 256 395 l 1,33,34
 252 345 252 345 252 311 c 1,35,-1
 224 303 l 1,36,-1
 212 307 l 1,37,38
 148 286 148 286 88 303 c 1,39,40
 56 298 56 298 32 286 c 1,41,-1
 32 261 l 1,42,43
 64 139 64 139 40 29 c 1,44,45
 60 4 60 4 92 0 c 1,46,-1
 164 0 l 1,47,-1
 188 4 l 1,48,-1
 216 8 l 1,49,-1
 228 4 l 1,50,51
 264 8 264 8 276 4 c 1,52,-1
 296 8 l 1,53,-1
 324 12 l 1,54,55
 384 12 384 12 424 25 c 1,56,-1
 476 33 l 1,57,58
 512 29 512 29 544 38 c 2,59,-1
 568 42 l 1,60,61
 628 38 628 38 668 50 c 1,62,-1
 696 50 l 1,63,64
 748 63 748 63 788 59 c 1,65,-1
 804 71 l 1,66,67
 804 109 804 109 784 134 c 1,68,-1
 800 298 l 1,69,-1
 784 319 l 1,70,-1
 728 319 l 2,71,72
 700 319 700 319 680 324 c 1,73,74
 620 311 620 311 572 324 c 1,75,-1
 568 357 l 1,76,-1
 572 383 l 1,77,78
 568 433 568 433 576 467 c 1,79,-1
 576 479 l 1,80,-1
 572 500 l 1,81,-1
 568 530 l 1,82,-1
 564 555 l 1,83,-1
 564 757 l 1,84,-1
 568 770 l 1,85,86
 568 803 568 803 572 828 c 1,87,-1
 572 900 l 1,88,89
 580 950 580 950 576 988 c 2,90,-1
 572 1051 l 1,91,-1
 576 1081 l 1,92,-1
 576 1127 l 1,93,-1
 572 1136 l 1,94,-1
 576 1144 l 1,95,-1
 572 1211 l 1,96,-1
 576 1224 l 1,97,-1
 572 1283 l 1,98,-1
 576 1295 l 1,99,100
 572 1325 572 1325 576 1346 c 0,101,102
 576 1359 576 1359 580 1388 c 1,103,104
 580 1426 580 1426 572 1447 c 1,105,106
 580 1527 580 1527 576 1624 c 1,107,108
 564 1708 564 1708 580 1771 c 1,109,110
 568 1792 568 1792 556 1804 c 1,111,112
 532 1809 532 1809 512 1800 c 1,113,-1
 500 1800 l 1,114,-1
 468 1809 l 1,115,-1
 456 1809 l 1,116,117
 396 1821 396 1821 356 1817 c 1,118,-1
 332 1834 l 1,119,-1
 316 1821 l 1,0,-1
528 1733 m 1,121,-1
 524 1712 l 1,122,-1
 528 1687 l 1,123,124
 524 1674 524 1674 528 1670 c 1,125,126
 524 1645 524 1645 528 1628 c 1,127,-1
 528 1552 l 1,128,-1
 532 1544 l 1,129,-1
 528 1535 l 1,130,131
 528 1489 528 1489 524 1476 c 1,132,-1
 524 1451 l 1,133,134
 528 1434 528 1434 530 1417.5 c 128,-1,135
 532 1401 532 1401 528 1375 c 1,136,-1
 528 1228 l 2,137,138
 528 1207 528 1207 532 1194 c 1,139,-1
 528 1165 l 1,140,-1
 532 1140 l 1,141,-1
 532 1110 l 1,142,-1
 528 1098 l 1,143,-1
 532 942 l 2,144,145
 532 892 532 892 528 858 c 1,146,-1
 528 812 l 1,147,-1
 524 786 l 1,148,-1
 528 765 l 1,149,-1
 524 744 l 1,150,-1
 524 723 l 1,151,152
 528 694 528 694 524 669 c 1,153,-1
 528 656 l 1,154,-1
 528 517 l 1,155,-1
 532 500 l 1,156,-1
 532 357 l 1,157,158
 536 315 536 315 516 286 c 1,159,160
 536 261 536 261 548 240 c 1,161,-1
 572 240 l 1,162,-1
 580 248 l 1,163,-1
 592 273 l 1,164,-1
 604 273 l 1,165,-1
 656 282 l 1,166,167
 680 277 680 277 702 277 c 128,-1,168
 724 277 724 277 740 273 c 1,169,-1
 740 218 l 1,170,171
 736 155 736 155 740 113 c 1,172,173
 712 101 712 101 688 101 c 1,174,-1
 664 92 l 1,175,-1
 564 88 l 1,176,-1
 544 80 l 1,177,-1
 464 75 l 2,178,179
 448 75 448 75 436 73 c 128,-1,180
 424 71 424 71 412 69 c 128,-1,181
 400 67 400 67 380 63 c 1,182,183
 336 63 336 63 308 54 c 2,184,-1
 292 50 l 1,185,-1
 112 46 l 1,186,-1
 100 59 l 1,187,-1
 100 134 l 1,188,-1
 96 147 l 1,189,190
 96 193 96 193 88 227 c 1,191,192
 140 256 140 256 188 252 c 1,193,-1
 208 261 l 1,194,195
 240 256 240 256 256 261 c 1,196,-1
 264 240 l 1,197,198
 288 244 288 244 300 252 c 1,199,200
 300 265 300 265 304 290 c 1,201,202
 292 324 292 324 292 353 c 2,203,-1
 300 450 l 1,204,-1
 296 471 l 1,205,-1
 292 597 l 2,206,207
 288 631 288 631 292 669 c 0,208,209
 292 702 292 702 288 723 c 1,210,-1
 292 736 l 1,211,-1
 292 896 l 2,212,213
 292 934 292 934 296 955 c 1,214,-1
 292 976 l 1,215,-1
 288 1127 l 1,216,217
 296 1182 296 1182 296 1220 c 1,218,-1
 272 1237 l 1,219,-1
 236 1224 l 1,220,221
 228 1228 228 1228 224 1224 c 1,222,-1
 180 1228 l 2,223,224
 140 1232 140 1232 112 1224 c 1,225,-1
 88 1228 l 1,226,227
 72 1245 72 1245 52 1253 c 1,228,-1
 48 1279 l 1,229,-1
 60 1489 l 1,230,-1
 92 1523 l 1,231,232
 128 1569 128 1569 168 1590 c 1,233,-1
 176 1603 l 1,234,235
 208 1636 208 1636 224 1661 c 2,236,-1
 232 1674 l 1,237,-1
 264 1708 l 1,238,239
 308 1737 308 1737 332 1771 c 1,240,241
 368 1767 368 1767 396 1775 c 1,242,120
 480 1775 480 1775 528 1733 c 1,121,-1
EndSplineSet
Validated: 41
Layer: 2
EndChar

StartChar: two
Encoding: 50 50 21
Width: 1256
Flags: W
LayerCount: 3
Back
Fore
SplineSet
552 1798 m 1,1,-1
 532 1793 l 1,2,-1
 524 1798 l 1,3,4
 488 1785 488 1785 460 1785 c 1,5,-1
 448 1781 l 2,6,7
 428 1773 428 1773 416 1765 c 1,8,-1
 372 1760 l 1,9,-1
 340 1756 l 1,10,11
 296 1740 296 1740 280 1740 c 1,12,13
 88 1592 88 1592 44 1378 c 1,14,15
 8 1320 8 1320 0 1271 c 1,16,17
 0 1246 0 1246 12 1230 c 1,18,-1
 24 1226 l 2,19,20
 44 1222 44 1222 60 1230 c 1,21,-1
 68 1226 l 1,22,23
 104 1213 104 1213 132 1213 c 1,24,-1
 144 1209 l 1,25,26
 240 1160 240 1160 308 1143 c 1,27,-1
 320 1156 l 1,28,-1
 332 1185 l 1,29,-1
 336 1209 l 1,30,31
 352 1242 352 1242 366 1260.5 c 128,-1,32
 380 1279 380 1279 388 1300 c 1,33,-1
 404 1320 l 1,34,-1
 416 1349 l 1,35,-1
 472 1427 l 1,36,-1
 512 1444 l 1,37,38
 780 1440 780 1440 716 1193 c 1,39,-1
 696 1176 l 1,40,-1
 644 1131 l 2,41,42
 612 1106 612 1106 592 1082 c 1,43,-1
 584 1078 l 1,44,45
 520 1028 520 1028 496 1016 c 1,46,-1
 484 1004 l 1,47,-1
 444 975 l 1,48,-1
 440 967 l 1,49,50
 416 946 416 946 404 930 c 1,51,52
 340 888 340 888 304 843 c 2,53,-1
 240 773 l 1,54,-1
 232 761 l 1,55,56
 184 720 184 720 164 674 c 0,57,58
 152 650 152 650 136 637 c 1,59,-1
 112 596 l 1,60,61
 108 580 108 580 92 559 c 1,62,63
 80 526 80 526 66 503.5 c 128,-1,64
 52 481 52 481 40 473 c 1,65,-1
 44 461 l 1,66,-1
 36 448 l 1,67,-1
 24 428 l 1,68,69
 16 395 16 395 4 370 c 1,70,71
 8 329 8 329 20 300 c 1,72,-1
 20 243 l 1,73,74
 24 218 24 218 24 201 c 2,75,-1
 28 164 l 1,76,-1
 28 127 l 1,77,78
 36 78 36 78 32 41 c 1,79,-1
 44 20 l 1,80,81
 80 12 80 12 104 0 c 1,82,83
 152 4 152 4 184 0 c 1,84,-1
 264 4 l 1,85,-1
 320 8 l 1,86,-1
 352 16 l 1,87,-1
 376 16 l 1,88,89
 428 20 428 20 464 16 c 1,90,-1
 476 20 l 1,91,-1
 500 20 l 1,92,93
 576 37 576 37 644 25 c 1,94,-1
 704 25 l 2,95,96
 720 25 720 25 748 33 c 1,97,-1
 780 33 l 1,98,99
 828 37 828 37 860 33 c 1,100,-1
 928 37 l 1,101,102
 1000 53 1000 53 1060 33 c 1,103,-1
 1072 49 l 1,104,-1
 1064 156 l 1,105,106
 1056 189 1056 189 1064 218 c 1,107,108
 1056 275 1056 275 1068 321 c 0,109,110
 1072 350 1072 350 1048 366 c 1,111,112
 1008 362 1008 362 976 370 c 1,113,-1
 964 370 l 1,114,-1
 932 366 l 1,115,116
 900 374 900 374 872 370 c 2,117,-1
 856 366 l 1,118,119
 824 366 824 366 800 370 c 1,120,-1
 788 366 l 1,121,-1
 756 362 l 2,122,123
 724 354 724 354 700 354 c 1,124,-1
 684 350 l 1,125,-1
 608 350 l 1,126,127
 568 354 568 354 540 341 c 1,128,129
 508 345 508 345 480 341 c 1,130,-1
 468 350 l 1,131,132
 476 387 476 387 500 407 c 1,133,-1
 508 432 l 1,134,-1
 524 452 l 1,135,-1
 540 473 l 1,136,137
 560 485 560 485 568 498 c 0,138,139
 600 551 600 551 644 584 c 1,140,141
 656 605 656 605 668 613 c 2,142,-1
 688 629 l 2,143,144
 720 654 720 654 736 670 c 2,145,-1
 784 724 l 2,146,147
 792 732 792 732 812 744 c 1,148,-1
 852 790 l 1,149,150
 888 814 888 814 908 839 c 1,151,-1
 920 847 l 1,152,153
 964 897 964 897 996 921 c 1,154,155
 1148 1189 1148 1189 1076 1456 c 1,156,157
 1012 1785 1012 1785 660 1810 c 1,158,-1
 624 1810 l 1,159,0
 596 1802 596 1802 552 1798 c 1,1,-1
1036 1185 m 1,161,-1
 1028 1168 l 1,162,-1
 1028 1156 l 1,163,-1
 1004 1090 l 1,164,-1
 1000 1061 l 1,165,-1
 980 1008 l 1,166,-1
 944 954 l 1,167,-1
 924 934 l 1,168,169
 884 905 884 905 868 868 c 1,170,-1
 832 843 l 1,171,-1
 800 810 l 1,172,-1
 792 806 l 1,173,-1
 744 761 l 1,174,-1
 740 753 l 1,175,176
 716 732 716 732 692 703 c 1,177,178
 668 687 668 687 656 670 c 2,179,-1
 588 600 l 1,180,181
 568 588 568 588 560 572 c 1,182,-1
 548 563 l 1,183,-1
 540 547 l 1,184,-1
 476 469 l 2,185,186
 448 440 448 440 432 415 c 1,187,-1
 432 403 l 1,188,189
 408 358 408 358 404 312 c 1,190,191
 428 292 428 292 480 296 c 2,192,-1
 596 300 l 1,193,-1
 620 296 l 1,194,-1
 640 300 l 1,195,-1
 692 300 l 1,196,-1
 712 304 l 1,197,198
 744 304 744 304 768 317 c 1,199,200
 792 308 792 308 810 308 c 128,-1,201
 828 308 828 308 840 312 c 1,202,203
 864 312 864 312 880 317 c 1,204,205
 940 308 940 308 988 317 c 1,206,-1
 1012 296 l 1,207,-1
 1008 284 l 1,208,-1
 1012 160 l 1,209,210
 1020 119 1020 119 1012 86 c 1,211,-1
 980 94 l 1,212,-1
 968 94 l 1,213,214
 944 86 944 86 912 86 c 1,215,-1
 884 82 l 1,216,217
 844 90 844 90 812 82 c 1,218,-1
 780 82 l 2,219,220
 740 82 740 82 712 74 c 1,221,-1
 660 74 l 1,222,223
 572 86 572 86 512 70 c 1,224,225
 480 70 480 70 456 62 c 1,226,227
 440 62 440 62 416 66 c 1,228,-1
 284 49 l 2,229,230
 260 45 260 45 244 45 c 2,231,-1
 92 45 l 1,232,-1
 88 57 l 1,233,234
 84 82 84 82 76 99 c 1,235,-1
 76 144 l 1,236,237
 68 169 68 169 68 185 c 2,238,-1
 68 214 l 1,239,-1
 64 226 l 1,240,-1
 68 234 l 1,241,-1
 68 251 l 1,242,243
 60 271 60 271 68 288 c 1,244,245
 60 321 60 321 64 345 c 1,246,247
 76 374 76 374 76 399 c 1,248,-1
 88 424 l 1,249,-1
 152 547 l 1,250,-1
 156 559 l 1,251,-1
 196 629 l 1,252,-1
 216 654 l 2,253,254
 236 679 236 679 244 695 c 2,255,-1
 264 720 l 1,256,257
 308 757 308 757 328 794 c 1,258,259
 348 810 348 810 360 827 c 1,260,-1
 372 835 l 1,261,262
 404 868 404 868 452 905 c 1,263,-1
 476 930 l 1,264,-1
 496 942 l 1,265,-1
 500 950 l 1,266,267
 552 991 552 991 592 1012 c 1,268,269
 620 1045 620 1045 648 1057 c 1,270,-1
 656 1069 l 1,271,-1
 680 1094 l 1,272,273
 744 1135 744 1135 780 1189 c 1,274,275
 796 1312 796 1312 756 1415 c 1,276,277
 728 1452 728 1452 708 1468 c 1,278,279
 536 1526 536 1526 420 1460 c 1,280,-1
 392 1423 l 1,281,282
 380 1394 380 1394 368 1378 c 1,283,-1
 356 1349 l 2,284,285
 344 1329 344 1329 332 1316 c 0,286,287
 324 1312 324 1312 324 1304 c 0,288,289
 292 1242 292 1242 264 1205 c 1,290,-1
 236 1209 l 1,291,292
 156 1263 156 1263 72 1267 c 1,293,294
 120 1538 120 1538 288 1674 c 1,295,296
 300 1674 300 1674 304 1678 c 0,297,298
 336 1682 336 1682 352 1695 c 1,299,-1
 372 1699 l 1,300,-1
 388 1703 l 1,301,-1
 444 1715 l 1,302,-1
 472 1723 l 2,303,304
 492 1728 492 1728 512 1736 c 1,305,306
 568 1740 568 1740 604 1752 c 1,307,160
 1076 1769 1076 1769 1036 1185 c 1,161,-1
EndSplineSet
Validated: 41
Layer: 2
EndChar

StartChar: three
Encoding: 51 51 22
Width: 1195
Flags: W
LayerCount: 3
Back
Fore
SplineSet
552 1772 m 2,0,1
 524 1768 524 1768 512 1772 c 1,2,3
 472 1756 472 1756 436 1752 c 1,4,5
 220 1655 220 1655 112 1481 c 1,6,7
 80 1452 80 1452 64 1424 c 1,8,-1
 80 1396 l 1,9,10
 100 1388 100 1388 112 1379 c 0,11,12
 212 1299 212 1299 312 1274 c 0,13,14
 336 1270 336 1270 356 1274 c 1,15,16
 372 1339 372 1339 420 1371 c 1,17,18
 492 1485 492 1485 584 1408 c 1,19,20
 640 1383 640 1383 672 1343 c 1,21,22
 744 1096 744 1096 512 1064 c 1,23,24
 488 1044 488 1044 480 1027 c 1,25,26
 492 987 492 987 488 951 c 1,27,-1
 492 938 l 1,28,29
 492 910 492 910 496 906 c 2,30,-1
 500 821 l 1,31,32
 492 797 492 797 492 777 c 1,33,-1
 520 760 l 1,34,35
 564 773 564 773 604 760 c 1,36,37
 732 671 732 671 732 534 c 1,38,39
 756 409 756 409 656 344 c 1,40,41
 432 239 432 239 236 352 c 1,42,-1
 216 372 l 1,43,44
 204 400 204 400 184 417 c 1,45,-1
 156 404 l 1,46,-1
 148 392 l 1,47,-1
 92 364 l 1,48,-1
 84 356 l 2,49,50
 68 340 68 340 46 332 c 128,-1,51
 24 324 24 324 12 311 c 1,52,-1
 8 303 l 1,53,-1
 0 279 l 1,54,55
 -4 206 -4 206 52 170 c 2,56,-1
 80 154 l 1,57,58
 112 129 112 129 136 117 c 0,59,60
 208 89 208 89 252 44 c 1,61,-1
 268 44 l 1,62,63
 308 28 308 28 340 28 c 1,64,-1
 364 20 l 1,65,-1
 380 16 l 1,66,67
 444 12 444 12 484 0 c 1,68,-1
 504 0 l 1,69,-1
 516 4 l 1,70,-1
 548 8 l 1,71,-1
 576 8 l 1,72,-1
 588 12 l 1,73,74
 636 16 636 16 668 24 c 1,75,-1
 692 36 l 1,76,-1
 740 69 l 1,77,78
 780 89 780 89 800 113 c 1,79,80
 1076 311 1076 311 1024 607 c 1,81,-1
 1024 619 l 1,82,-1
 1016 647 l 1,83,-1
 996 728 l 2,84,85
 988 773 988 773 976 801 c 1,86,-1
 968 809 l 1,87,-1
 956 829 l 1,88,89
 924 866 924 866 908 894 c 0,90,91
 888 938 888 938 864 963 c 1,92,93
 872 983 872 983 892 995 c 1,94,-1
 924 1032 l 1,95,-1
 932 1044 l 2,96,97
 944 1064 944 1064 956 1076 c 1,98,-1
 972 1112 l 1,99,-1
 988 1133 l 1,100,101
 1016 1185 1016 1185 1028 1201 c 1,102,-1
 1028 1218 l 1,103,-1
 1036 1270 l 1,104,-1
 1032 1278 l 1,105,106
 1036 1315 1036 1315 1032 1343 c 1,107,-1
 1032 1416 l 1,108,109
 1028 1436 1028 1436 1032 1448 c 1,110,-1
 1028 1481 l 1,111,-1
 1024 1509 l 1,112,113
 896 1780 896 1780 596 1780 c 1,114,-1
 552 1772 l 2,0,1
960 1505 m 1,116,-1
 964 1493 l 1,117,-1
 968 1468 l 1,118,-1
 972 1440 l 1,119,-1
 976 1327 l 1,120,-1
 980 1315 l 1,121,-1
 980 1286 l 1,122,123
 972 1242 972 1242 972 1214 c 1,124,125
 948 1177 948 1177 928 1157 c 1,126,127
 872 1015 872 1015 736 991 c 1,128,-1
 724 979 l 1,129,130
 724 947 724 947 744 926 c 1,131,132
 768 930 768 930 788 922 c 1,133,134
 944 797 944 797 960 623 c 1,135,136
 1012 388 1012 388 844 231 c 1,137,-1
 832 214 l 1,138,-1
 812 190 l 1,139,-1
 788 166 l 1,140,-1
 632 69 l 1,141,142
 380 24 380 24 204 150 c 1,143,-1
 164 166 l 1,144,145
 132 190 132 190 104 198 c 1,146,147
 76 226 76 226 64 255 c 1,148,149
 104 320 104 320 160 344 c 1,150,151
 444 133 444 133 732 324 c 1,152,153
 756 348 756 348 764 372 c 0,154,155
 840 538 840 538 752 680 c 0,156,157
 748 692 748 692 744 696 c 2,158,-1
 736 708 l 1,159,-1
 704 765 l 1,160,-1
 692 773 l 1,161,162
 648 793 648 793 620 817 c 1,163,164
 576 821 576 821 548 833 c 1,165,166
 544 841 544 841 540 862 c 1,167,168
 544 894 544 894 540 910 c 2,169,-1
 536 955 l 2,170,171
 532 987 532 987 544 1011 c 1,172,-1
 608 1023 l 1,173,174
 808 1153 808 1153 720 1383 c 1,175,-1
 692 1404 l 1,176,-1
 684 1412 l 1,177,-1
 632 1448 l 2,178,179
 456 1574 456 1574 344 1371 c 1,180,-1
 296 1327 l 1,181,182
 208 1359 208 1359 148 1424 c 1,183,-1
 156 1460 l 1,184,-1
 176 1485 l 1,185,186
 192 1497 192 1497 200 1509 c 2,187,-1
 276 1590 l 1,188,-1
 288 1598 l 2,189,190
 312 1618 312 1618 332 1626 c 2,191,-1
 368 1646 l 1,192,-1
 376 1655 l 1,193,-1
 400 1667 l 2,194,195
 432 1679 432 1679 452 1695 c 1,196,-1
 468 1699 l 1,197,-1
 480 1695 l 1,198,-1
 504 1703 l 1,199,-1
 520 1703 l 1,200,-1
 544 1715 l 1,201,202
 584 1711 584 1711 612 1719 c 1,203,115
 856 1715 856 1715 960 1505 c 1,116,-1
EndSplineSet
Validated: 41
Layer: 2
EndChar

StartChar: four
Encoding: 52 52 23
Width: 1218
Flags: W
LayerCount: 3
Back
Fore
SplineSet
696 1792 m 1,0,-1
 604 1787 l 1,1,-1
 596 1792 l 1,2,-1
 564 1783 l 1,3,-1
 556 1779 l 1,4,5
 512 1775 512 1775 484 1763 c 1,6,-1
 480 1754 l 1,7,8
 452 1701 452 1701 428 1672 c 1,9,-1
 396 1601 l 2,10,11
 380 1560 380 1560 360 1535 c 1,12,-1
 356 1527 l 2,13,14
 320 1456 320 1456 280 1415 c 1,15,-1
 276 1403 l 1,16,-1
 264 1386 l 1,17,18
 252 1353 252 1353 236 1336 c 1,19,-1
 208 1291 l 1,20,-1
 200 1283 l 1,21,22
 184 1241 184 1241 160 1216 c 1,23,-1
 152 1196 l 1,24,-1
 128 1163 l 1,25,-1
 108 1138 l 1,26,27
 68 1101 68 1101 48 1055 c 1,28,29
 20 1038 20 1038 0 1014 c 1,30,31
 4 960 4 960 20 927 c 1,32,-1
 20 914 l 1,33,-1
 16 881 l 1,34,-1
 4 778 l 1,35,36
 16 757 16 757 36 749 c 1,37,38
 36 728 36 728 52 716 c 1,39,-1
 116 712 l 1,40,-1
 140 716 l 1,41,-1
 160 712 l 1,42,-1
 344 720 l 1,43,-1
 356 724 l 1,44,-1
 364 720 l 1,45,-1
 376 724 l 1,46,47
 432 716 432 716 472 728 c 1,48,49
 508 724 508 724 536 712 c 1,50,-1
 536 683 l 1,51,-1
 540 670 l 1,52,53
 540 649 540 649 544 637 c 2,54,-1
 548 571 l 1,55,-1
 544 546 l 1,56,-1
 544 492 l 1,57,58
 540 451 540 451 544 422 c 1,59,-1
 544 331 l 2,60,61
 544 318 544 318 540 314 c 1,62,-1
 540 256 l 1,63,-1
 544 240 l 1,64,-1
 544 182 l 1,65,-1
 536 149 l 1,66,-1
 540 136 l 1,67,-1
 536 112 l 1,68,69
 536 78 536 78 544 58 c 1,70,71
 536 37 536 37 540 16 c 1,72,73
 560 4 560 4 580 0 c 1,74,75
 668 33 668 33 742 27 c 128,-1,76
 816 21 816 21 852 45 c 1,77,-1
 852 83 l 1,78,79
 824 169 824 169 840 244 c 0,80,81
 844 277 844 277 852 302 c 1,82,-1
 852 347 l 1,83,84
 856 385 856 385 852 414 c 0,85,86
 852 426 852 426 856 430 c 1,87,88
 856 467 856 467 864 496 c 1,89,-1
 860 542 l 1,90,-1
 860 592 l 1,91,92
 852 666 852 666 856 716 c 1,93,-1
 876 732 l 1,94,-1
 888 732 l 1,95,96
 920 741 920 741 944 741 c 2,97,-1
 956 741 l 1,98,99
 1028 757 1028 757 1076 749 c 1,100,-1
 1088 761 l 1,101,102
 1064 889 1064 889 1100 993 c 1,103,104
 1100 1014 1100 1014 1096 1026 c 1,105,-1
 1084 1034 l 1,106,-1
 924 1030 l 1,107,108
 912 1038 912 1038 908 1051 c 2,109,-1
 904 1076 l 1,110,-1
 892 1146 l 1,111,-1
 892 1158 l 1,112,-1
 888 1204 l 1,113,-1
 884 1216 l 1,114,-1
 876 1440 l 1,115,-1
 872 1461 l 1,116,-1
 868 1560 l 2,117,118
 868 1597 868 1597 864 1618 c 1,119,-1
 864 1647 l 1,120,121
 872 1725 872 1725 852 1787 c 1,122,123
 824 1796 824 1796 808 1779 c 1,124,-1
 796 1783 l 1,125,126
 764 1787 764 1787 744 1796 c 1,127,-1
 708 1796 l 1,128,-1
 696 1792 l 1,0,-1
700 1750 m 1,129,-1
 724 1754 l 1,130,131
 784 1738 784 1738 804 1738 c 1,132,-1
 804 1725 l 1,133,134
 816 1680 816 1680 812 1643 c 1,135,-1
 816 1581 l 2,136,137
 816 1552 816 1552 812 1531 c 1,138,-1
 816 1506 l 1,139,-1
 816 1469 l 1,140,-1
 820 1448 l 1,141,-1
 828 1394 l 1,142,-1
 824 1374 l 1,143,144
 828 1324 828 1324 824 1295 c 1,145,146
 832 1270 832 1270 828 1241 c 1,147,-1
 832 1208 l 1,148,-1
 840 1158 l 2,149,150
 852 1080 852 1080 844 1022 c 1,151,152
 872 989 872 989 896 972 c 1,153,154
 920 972 920 972 936 981 c 1,155,-1
 1020 985 l 1,156,157
 1024 964 1024 964 1032 943 c 1,158,-1
 1028 931 l 1,159,-1
 1028 807 l 1,160,-1
 1020 794 l 1,161,162
 1008 798 1008 798 1000 794 c 1,163,-1
 980 794 l 1,164,165
 956 786 956 786 936 786 c 2,166,-1
 924 786 l 1,167,-1
 904 782 l 1,168,-1
 816 778 l 1,169,-1
 796 753 l 1,170,-1
 808 546 l 1,171,-1
 804 538 l 1,172,-1
 804 509 l 1,173,174
 808 455 808 455 800 418 c 1,175,-1
 804 401 l 1,176,-1
 804 364 l 1,177,-1
 796 294 l 1,178,-1
 792 269 l 2,179,180
 788 232 788 232 788 203 c 1,181,182
 780 161 780 161 792 124 c 1,183,-1
 788 95 l 1,184,-1
 768 78 l 1,185,-1
 728 74 l 1,186,187
 720 78 720 78 712 74 c 1,188,-1
 668 74 l 1,189,-1
 644 66 l 1,190,-1
 596 70 l 1,191,192
 600 87 600 87 596 99 c 2,193,-1
 588 128 l 1,194,-1
 592 149 l 1,195,-1
 596 194 l 1,196,-1
 592 505 l 1,197,-1
 596 517 l 1,198,199
 592 550 592 550 600 575 c 1,200,-1
 596 608 l 1,201,-1
 588 691 l 1,202,203
 612 720 612 720 608 749 c 1,204,205
 560 774 560 774 516 774 c 2,206,-1
 464 774 l 1,207,-1
 448 769 l 1,208,-1
 440 774 l 1,209,210
 412 769 412 769 392 774 c 1,211,-1
 356 769 l 1,212,-1
 296 769 l 1,213,-1
 280 765 l 1,214,215
 248 769 248 769 224 761 c 1,216,217
 152 774 152 774 100 757 c 1,218,-1
 68 769 l 1,219,-1
 60 790 l 1,220,-1
 68 811 l 1,221,-1
 68 823 l 1,222,-1
 72 869 l 1,223,-1
 68 881 l 1,224,-1
 68 964 l 1,225,-1
 72 976 l 2,226,227
 84 1018 84 1018 100 1043 c 1,228,-1
 108 1051 l 1,229,230
 132 1084 132 1084 152 1101 c 1,231,232
 176 1146 176 1146 200 1175 c 1,233,-1
 212 1200 l 1,234,-1
 256 1270 l 1,235,-1
 264 1278 l 2,236,237
 288 1307 288 1307 300 1332 c 2,238,-1
 304 1341 l 2,239,240
 332 1403 332 1403 372 1440 c 1,241,-1
 376 1452 l 1,242,243
 392 1477 392 1477 400 1502 c 1,244,245
 420 1531 420 1531 436 1547 c 1,246,247
 472 1647 472 1647 536 1713 c 1,248,-1
 544 1717 l 1,249,250
 624 1750 624 1750 684 1754 c 1,251,-1
 700 1750 l 1,129,-1
520 1369 m 1,253,254
 492 1299 492 1299 444 1254 c 1,255,256
 432 1233 432 1233 428 1221 c 2,257,-1
 404 1167 l 1,258,259
 380 1134 380 1134 366 1109 c 128,-1,260
 352 1084 352 1084 348 1063 c 1,261,-1
 336 1051 l 1,262,263
 312 1034 312 1034 300 1018 c 1,264,-1
 300 972 l 1,265,266
 360 952 360 952 416 976 c 1,267,268
 476 981 476 981 524 964 c 1,269,270
 572 981 572 981 600 1001 c 1,271,272
 604 1034 604 1034 596 1059 c 1,273,-1
 600 1105 l 1,274,-1
 608 1150 l 1,275,276
 604 1158 604 1158 604 1179 c 0,277,278
 608 1204 608 1204 604 1221 c 2,279,-1
 600 1403 l 1,280,281
 580 1419 580 1419 560 1419 c 1,282,252
 544 1386 544 1386 520 1369 c 1,253,254
552 1291 m 1,283,284
 548 1241 548 1241 548 1208 c 128,-1,285
 548 1175 548 1175 556 1150 c 1,286,287
 536 1080 536 1080 544 1026 c 1,288,289
 496 1014 496 1014 460 1026 c 1,290,-1
 452 1022 l 1,291,-1
 440 1026 l 1,292,293
 412 1018 412 1018 388 1022 c 1,294,295
 400 1047 400 1047 404 1063 c 0,296,297
 428 1109 428 1109 448 1134 c 0,298,299
 460 1154 460 1154 464 1171 c 1,300,-1
 468 1179 l 2,301,302
 480 1200 480 1200 484 1212 c 1,303,304
 504 1229 504 1229 512 1249 c 1,305,306
 536 1274 536 1274 548 1299 c 1,307,-1
 552 1291 l 1,283,284
EndSplineSet
Validated: 41
Layer: 2
EndChar

StartChar: five
Encoding: 53 53 24
Width: 1160
Flags: W
LayerCount: 3
Back
Fore
SplineSet
768 1787 m 2,1,-1
 596 1783 l 1,2,3
 544 1787 544 1787 512 1783 c 1,4,-1
 496 1783 l 1,5,-1
 472 1787 l 1,6,-1
 448 1783 l 1,7,-1
 364 1779 l 1,8,9
 328 1783 328 1783 300 1775 c 1,10,11
 244 1787 244 1787 200 1779 c 1,12,-1
 184 1758 l 1,13,-1
 180 1738 l 1,14,-1
 176 1688 l 1,15,-1
 172 1667 l 2,16,17
 164 1634 164 1634 164 1609 c 0,18,19
 160 1568 160 1568 148 1506 c 1,20,-1
 140 1481 l 1,21,-1
 140 1469 l 1,22,23
 116 1394 116 1394 116 1344 c 1,24,-1
 112 1328 l 1,25,-1
 104 1311 l 1,26,-1
 104 1295 l 1,27,-1
 96 1270 l 1,28,-1
 92 1224 l 1,29,-1
 60 1100 l 1,30,31
 64 1067 64 1067 52 1050 c 1,32,-1
 56 1013 l 2,33,34
 60 1005 60 1005 76 984 c 1,35,-1
 124 968 l 1,36,-1
 160 947 l 1,37,-1
 212 930 l 1,38,-1
 220 922 l 1,39,-1
 244 910 l 1,40,41
 276 885 276 885 300 872 c 1,42,43
 240 831 240 831 288 794 c 1,44,45
 324 806 324 806 352 827 c 1,46,-1
 372 827 l 1,47,-1
 416 839 l 1,48,-1
 428 835 l 1,49,-1
 472 839 l 1,50,-1
 500 835 l 1,51,52
 520 839 520 839 532 835 c 1,53,-1
 560 839 l 1,54,55
 632 798 632 798 672 748 c 1,56,57
 748 603 748 603 652 421 c 1,58,59
 548 326 548 326 428 347 c 1,60,61
 296 330 296 330 244 442 c 1,62,-1
 208 442 l 1,63,-1
 200 434 l 1,64,-1
 176 417 l 1,65,66
 140 380 140 380 128 371 c 2,67,-1
 60 318 l 1,68,69
 24 322 24 322 0 301 c 1,70,71
 0 247 0 247 8 214 c 1,72,73
 28 193 28 193 36 181 c 0,74,75
 56 164 56 164 68 148 c 1,76,-1
 76 144 l 1,77,78
 104 102 104 102 132 82 c 0,79,80
 176 53 176 53 216 48 c 1,81,-1
 236 32 l 1,82,-1
 308 28 l 1,83,84
 672 -59 672 -59 916 202 c 1,85,-1
 996 376 l 1,86,-1
 996 388 l 1,87,-1
 1020 454 l 1,88,89
 1024 512 1024 512 1016 549 c 1,90,-1
 1020 562 l 1,91,-1
 1020 595 l 1,92,93
 1016 612 1016 612 1016 636 c 0,94,95
 1016 670 1016 670 1012 694 c 1,96,-1
 1016 744 l 1,97,98
 1008 785 1008 785 1008 814 c 1,99,-1
 992 877 l 1,100,-1
 980 893 l 1,101,102
 968 901 968 901 964 910 c 2,103,-1
 932 947 l 1,104,-1
 924 959 l 1,105,106
 904 980 904 980 900 992 c 1,107,-1
 860 1030 l 1,108,109
 840 1067 840 1067 808 1092 c 1,110,-1
 764 1117 l 1,111,112
 740 1121 740 1121 726 1131.5 c 128,-1,113
 712 1142 712 1142 708 1146 c 2,114,-1
 624 1187 l 1,115,-1
 584 1187 l 1,116,-1
 568 1183 l 2,117,118
 544 1175 544 1175 524 1175 c 1,119,-1
 492 1166 l 2,120,121
 444 1150 444 1150 408 1146 c 1,122,-1
 400 1166 l 1,123,-1
 404 1187 l 2,124,125
 408 1220 408 1220 416 1245 c 1,126,-1
 416 1274 l 1,127,128
 424 1299 424 1299 424 1315 c 2,129,-1
 424 1340 l 1,130,131
 436 1378 436 1378 432 1411 c 1,132,-1
 436 1427 l 1,133,-1
 448 1473 l 1,134,-1
 464 1473 l 1,135,-1
 492 1481 l 1,136,-1
 504 1481 l 1,137,138
 556 1489 556 1489 588 1489 c 1,139,-1
 600 1493 l 1,140,-1
 608 1489 l 1,141,-1
 620 1493 l 1,142,-1
 700 1498 l 1,143,144
 728 1506 728 1506 748 1506 c 0,145,146
 800 1510 800 1510 804 1506 c 2,147,-1
 896 1502 l 1,148,-1
 916 1481 l 1,149,150
 936 1481 936 1481 948 1493 c 1,151,152
 952 1527 952 1527 944 1551 c 1,153,-1
 944 1564 l 1,154,155
 940 1609 940 1609 944 1638 c 1,156,-1
 944 1684 l 1,157,158
 956 1738 956 1738 948 1779 c 1,159,-1
 932 1787 l 1,160,-1
 900 1792 l 1,161,162
 868 1804 868 1804 840 1804 c 1,163,0
 804 1787 804 1787 768 1787 c 2,1,-1
900 1746 m 1,165,-1
 904 1734 l 1,166,-1
 904 1700 l 1,167,168
 896 1651 896 1651 898 1615.5 c 128,-1,169
 900 1580 900 1580 892 1551 c 1,170,-1
 764 1551 l 1,171,-1
 752 1547 l 1,172,173
 720 1551 720 1551 692 1547 c 2,174,-1
 648 1543 l 1,175,-1
 604 1539 l 1,176,-1
 592 1535 l 1,177,-1
 548 1531 l 1,178,-1
 504 1531 l 1,179,180
 440 1527 440 1527 404 1531 c 1,181,182
 392 1518 392 1518 388 1506 c 1,183,-1
 388 1444 l 2,184,185
 388 1411 388 1411 384 1390 c 1,186,187
 384 1357 384 1357 376 1332 c 1,188,-1
 372 1278 l 1,189,-1
 364 1249 l 1,190,-1
 360 1228 l 1,191,-1
 356 1212 l 1,192,-1
 336 1104 l 1,193,194
 352 1063 352 1063 388 1059 c 1,195,196
 668 1195 668 1195 824 980 c 1,197,-1
 844 963 l 1,198,-1
 848 955 l 1,199,-1
 860 947 l 1,200,201
 876 930 876 930 884 918 c 2,202,-1
 920 877 l 1,203,-1
 948 798 l 1,204,205
 952 744 952 744 960 719 c 1,206,207
 952 694 952 694 956 678 c 1,208,-1
 956 645 l 1,209,-1
 960 636 l 1,210,-1
 960 603 l 1,211,212
 968 554 968 554 964 520 c 1,213,-1
 960 508 l 1,214,215
 960 483 960 483 956 467 c 2,216,-1
 948 421 l 1,217,218
 924 376 924 376 920 334 c 1,219,-1
 888 276 l 2,220,221
 864 231 864 231 840 206 c 0,222,223
 616 19 616 19 368 73 c 1,224,225
 244 82 244 82 152 144 c 1,226,-1
 140 164 l 1,227,228
 88 210 88 210 72 268 c 1,229,-1
 88 280 l 1,230,231
 156 322 156 322 196 367 c 1,232,233
 220 355 220 355 252 330 c 2,234,-1
 296 301 l 1,235,236
 748 189 748 189 768 657 c 1,237,238
 752 690 752 690 752 727 c 1,239,240
 612 959 612 959 332 881 c 1,241,-1
 324 910 l 1,242,-1
 312 918 l 1,243,244
 276 951 276 951 208 980 c 0,245,246
 136 1009 136 1009 112 1026 c 1,247,248
 112 1042 112 1042 120 1050 c 1,249,-1
 124 1129 l 1,250,-1
 128 1158 l 1,251,-1
 136 1179 l 1,252,253
 144 1212 144 1212 148 1262 c 1,254,-1
 156 1291 l 1,255,-1
 176 1394 l 2,256,257
 176 1406 176 1406 180 1411 c 1,258,-1
 180 1427 l 1,259,260
 192 1477 192 1477 200 1493 c 1,261,-1
 208 1539 l 1,262,-1
 208 1568 l 1,263,-1
 212 1580 l 1,264,265
 220 1630 220 1630 222 1661 c 128,-1,266
 224 1692 224 1692 240 1709 c 1,267,-1
 252 1713 l 1,268,269
 300 1734 300 1734 340 1738 c 1,270,-1
 400 1738 l 1,271,-1
 428 1742 l 1,272,-1
 440 1738 l 1,273,-1
 452 1742 l 1,274,275
 488 1738 488 1738 516 1742 c 1,276,-1
 576 1742 l 1,277,278
 620 1738 620 1738 652 1742 c 1,279,-1
 672 1738 l 1,280,281
 696 1746 696 1746 722 1744 c 128,-1,282
 748 1742 748 1742 768 1738 c 1,283,-1
 788 1742 l 1,284,285
 832 1742 832 1742 860 1750 c 1,286,164
 884 1746 884 1746 900 1746 c 1,165,-1
EndSplineSet
Validated: 41
Layer: 2
EndChar

StartChar: six
Encoding: 54 54 25
Width: 1110
Flags: W
LayerCount: 3
Back
Fore
SplineSet
716 1788 m 1,0,-1
 656 1752 l 1,1,2
 612 1716 612 1716 576 1704 c 0,3,4
 564 1696 564 1696 554 1690 c 128,-1,5
 544 1684 544 1684 534 1676 c 128,-1,6
 524 1668 524 1668 504 1648 c 1,7,8
 484 1636 484 1636 468 1616 c 1,9,-1
 444 1596 l 2,10,11
 424 1584 424 1584 412 1580 c 0,12,13
 380 1556 380 1556 364 1536 c 1,14,-1
 320 1500 l 1,15,-1
 304 1480 l 1,16,-1
 292 1464 l 1,17,-1
 264 1420 l 2,18,19
 248 1388 248 1388 232 1368 c 1,20,21
 228 1356 228 1356 224 1352 c 0,22,23
 208 1336 208 1336 192 1312 c 1,24,-1
 184 1292 l 1,25,-1
 156 1248 l 1,26,-1
 116 1196 l 1,27,-1
 108 1156 l 1,28,29
 -52 804 -52 804 24 476 c 1,30,-1
 24 428 l 1,31,-1
 32 404 l 1,32,-1
 36 388 l 1,33,-1
 44 368 l 1,34,35
 48 304 48 304 72 256 c 1,36,37
 112 116 112 116 212 32 c 1,38,39
 236 28 236 28 252 16 c 1,40,-1
 264 12 l 1,41,-1
 320 12 l 1,42,-1
 332 8 l 1,43,44
 372 8 372 8 404 0 c 1,45,46
 428 8 428 8 444 8 c 2,47,-1
 508 4 l 1,48,-1
 596 24 l 1,49,50
 632 28 632 28 660 36 c 2,51,-1
 676 40 l 1,52,-1
 684 48 l 1,53,54
 716 52 716 52 744 64 c 1,55,56
 776 88 776 88 792 112 c 1,57,-1
 812 128 l 1,58,-1
 844 148 l 1,59,60
 864 172 864 172 884 184 c 1,61,-1
 892 196 l 2,62,63
 912 224 912 224 920 244 c 1,64,65
 952 280 952 280 968 312 c 1,66,67
 968 340 968 340 972 360 c 2,68,-1
 992 452 l 1,69,-1
 988 496 l 1,70,71
 996 516 996 516 992 532 c 1,72,-1
 996 564 l 1,73,-1
 996 664 l 1,74,75
 988 692 988 692 996 712 c 1,76,-1
 992 736 l 2,77,78
 984 768 984 768 980 816 c 1,79,80
 968 848 968 848 964 876 c 1,81,82
 896 960 896 960 820 996 c 1,83,84
 680 1140 680 1140 512 1124 c 1,85,86
 500 1128 500 1128 496 1132 c 1,87,-1
 508 1148 l 1,88,-1
 552 1188 l 1,89,-1
 572 1216 l 1,90,-1
 600 1236 l 1,91,92
 628 1264 628 1264 652 1280 c 1,93,-1
 664 1296 l 1,94,95
 704 1324 704 1324 724 1348 c 1,96,-1
 728 1356 l 1,97,-1
 776 1400 l 1,98,99
 816 1404 816 1404 840 1424 c 1,100,101
 848 1456 848 1456 848 1480 c 1,102,-1
 828 1508 l 1,103,-1
 824 1528 l 1,104,-1
 816 1576 l 1,105,-1
 812 1592 l 1,106,-1
 808 1616 l 1,107,108
 784 1660 784 1660 780 1692 c 1,109,110
 784 1736 784 1736 776 1764 c 1,111,112
 756 1792 756 1792 728 1792 c 1,113,-1
 716 1788 l 1,0,-1
724 1708 m 1,114,-1
 724 1692 l 1,115,-1
 756 1608 l 1,116,-1
 784 1476 l 1,117,-1
 740 1444 l 2,118,119
 712 1428 712 1428 688 1400 c 1,120,-1
 664 1384 l 1,121,-1
 656 1376 l 1,122,-1
 636 1352 l 1,123,124
 596 1320 596 1320 580 1292 c 1,125,126
 536 1264 536 1264 512 1224 c 1,127,128
 428 1160 428 1160 392 1080 c 1,129,130
 408 1060 408 1060 420 1052 c 1,131,132
 624 1112 624 1112 760 972 c 1,133,-1
 768 968 l 1,134,-1
 832 920 l 1,135,-1
 900 848 l 1,136,-1
 928 768 l 1,137,-1
 928 756 l 1,138,139
 932 708 932 708 940 676 c 1,140,-1
 940 660 l 1,141,-1
 936 616 l 1,142,143
 944 564 944 564 940 528 c 1,144,-1
 936 516 l 2,145,146
 932 496 932 496 928 476 c 1,147,148
 928 444 928 444 924 420 c 0,149,150
 916 388 916 388 916 360 c 1,151,152
 760 36 760 36 428 60 c 1,153,-1
 384 60 l 1,154,155
 300 56 300 56 236 80 c 1,156,157
 224 100 224 100 204 120 c 1,158,159
 176 140 176 140 164 164 c 1,160,-1
 156 208 l 1,161,162
 96 312 96 312 88 416 c 1,163,164
 -20 940 -20 940 280 1324 c 1,165,-1
 324 1408 l 1,166,-1
 400 1492 l 1,167,168
 420 1504 420 1504 428 1516 c 1,169,-1
 436 1520 l 1,170,-1
 516 1576 l 1,171,172
 556 1620 556 1620 600 1644 c 2,173,-1
 624 1656 l 1,174,175
 676 1696 676 1696 712 1716 c 1,176,-1
 724 1708 l 1,114,-1
360 732 m 1,178,179
 296 628 296 628 288 520 c 0,180,181
 276 388 276 388 348 300 c 1,182,183
 384 288 384 288 408 272 c 1,184,185
 728 232 728 232 752 480 c 1,186,187
 792 644 792 644 740 784 c 1,188,189
 712 804 712 804 696 820 c 1,190,191
 648 896 648 896 564 888 c 0,192,177
 384 872 384 872 360 732 c 1,178,179
612 828 m 1,193,194
 760 704 760 704 704 528 c 1,195,196
 684 304 684 304 460 328 c 1,197,198
 320 352 320 352 344 524 c 1,199,200
 352 548 352 548 352 564 c 1,201,-1
 360 580 l 1,202,-1
 372 620 l 1,203,-1
 376 644 l 1,204,-1
 388 668 l 1,205,-1
 400 688 l 1,206,-1
 400 700 l 1,207,208
 416 728 416 728 420 748 c 1,209,210
 484 812 484 812 556 832 c 1,211,-1
 612 828 l 1,193,194
EndSplineSet
Validated: 41
Layer: 2
EndChar

StartChar: seven
Encoding: 55 55 26
Width: 1245
Flags: W
LayerCount: 3
Back
Fore
SplineSet
888 1792 m 1,0,-1
 876 1792 l 2,1,2
 848 1792 848 1792 828 1788 c 1,3,-1
 820 1792 l 1,4,-1
 760 1792 l 1,5,6
 740 1796 740 1796 708 1792 c 2,7,-1
 676 1788 l 1,8,-1
 648 1784 l 1,9,10
 604 1788 604 1788 576 1780 c 1,11,-1
 568 1784 l 1,12,-1
 532 1784 l 1,13,-1
 488 1780 l 1,14,-1
 172 1748 l 1,15,16
 92 1752 92 1752 44 1736 c 1,17,18
 -32 1524 -32 1524 36 1348 c 1,19,20
 12 1300 12 1300 28 1260 c 1,21,-1
 48 1256 l 1,22,-1
 92 1256 l 1,23,24
 124 1264 124 1264 144 1264 c 1,25,26
 204 1280 204 1280 248 1272 c 1,27,28
 280 1272 280 1272 296 1280 c 1,29,30
 272 1372 272 1372 292 1448 c 1,31,-1
 304 1444 l 1,32,33
 344 1444 344 1444 368 1440 c 1,34,-1
 384 1448 l 1,35,-1
 396 1444 l 1,36,-1
 416 1448 l 1,37,-1
 448 1452 l 1,38,-1
 476 1452 l 1,39,-1
 484 1460 l 1,40,41
 520 1456 520 1456 548 1464 c 1,42,43
 572 1464 572 1464 588 1468 c 1,44,-1
 612 1468 l 1,45,-1
 624 1472 l 1,46,-1
 740 1476 l 1,47,-1
 768 1468 l 1,48,-1
 764 1456 l 1,49,-1
 704 1356 l 1,50,-1
 692 1332 l 1,51,-1
 684 1308 l 1,52,-1
 676 1296 l 1,53,54
 668 1260 668 1260 652 1232 c 0,55,56
 624 1168 624 1168 596 1128 c 1,57,-1
 592 1120 l 1,58,-1
 512 892 l 1,59,-1
 500 868 l 2,60,61
 484 832 484 832 464 808 c 1,62,-1
 460 796 l 1,63,-1
 384 628 l 1,64,-1
 364 584 l 1,65,-1
 360 564 l 1,66,-1
 320 436 l 1,67,-1
 316 428 l 1,68,-1
 308 404 l 2,69,70
 292 364 292 364 276 340 c 0,71,72
 272 328 272 328 268 324 c 0,73,74
 264 312 264 312 260 308 c 2,75,-1
 224 200 l 2,76,77
 208 156 208 156 192 128 c 0,78,79
 160 72 160 72 120 36 c 1,80,-1
 120 16 l 1,81,82
 144 -8 144 -8 176 0 c 1,83,-1
 188 8 l 1,84,85
 224 12 224 12 248 24 c 1,86,-1
 260 24 l 2,87,88
 288 24 288 24 332 20 c 0,89,90
 384 12 384 12 420 16 c 1,91,92
 460 -4 460 -4 496 4 c 1,93,94
 512 32 512 32 500 64 c 1,95,96
 512 88 512 88 516 112 c 1,97,-1
 532 152 l 1,98,-1
 532 164 l 1,99,-1
 552 228 l 1,100,101
 568 252 568 252 572 268 c 2,102,-1
 592 316 l 1,103,-1
 596 332 l 1,104,105
 612 356 612 356 616 376 c 1,106,-1
 636 408 l 1,107,-1
 640 420 l 1,108,-1
 664 468 l 2,109,110
 676 496 676 496 680 520 c 1,111,-1
 688 536 l 1,112,113
 704 592 704 592 724 624 c 1,114,-1
 728 656 l 1,115,116
 740 680 740 680 744 696 c 2,117,-1
 796 800 l 1,118,119
 812 848 812 848 832 880 c 0,120,121
 844 904 844 904 848 924 c 1,122,-1
 856 932 l 1,123,-1
 864 956 l 1,124,125
 880 984 880 984 884 1008 c 1,126,127
 904 1044 904 1044 908 1072 c 1,128,-1
 924 1100 l 1,129,130
 956 1132 956 1132 980 1188 c 1,131,-1
 988 1196 l 1,132,-1
 996 1220 l 1,133,-1
 1052 1320 l 2,134,135
 1064 1340 1064 1340 1068 1352 c 2,136,-1
 1108 1432 l 1,137,138
 1104 1468 1104 1468 1076 1484 c 1,139,-1
 1072 1564 l 1,140,-1
 1076 1572 l 1,141,-1
 1080 1600 l 1,142,-1
 1080 1616 l 1,143,-1
 1096 1716 l 1,144,-1
 1088 1740 l 1,145,146
 1072 1752 1072 1752 1044 1756 c 1,147,148
 996 1796 996 1796 944 1804 c 1,149,-1
 916 1804 l 1,150,-1
 888 1792 l 1,0,-1
712 1744 m 1,151,-1
 728 1740 l 1,152,-1
 744 1744 l 1,153,-1
 784 1736 l 2,154,155
 804 1736 804 1736 816 1740 c 1,156,157
 828 1736 828 1736 848 1736 c 2,158,-1
 876 1740 l 1,159,-1
 900 1736 l 1,160,161
 936 1744 936 1744 964 1740 c 0,162,163
 1012 1736 1012 1736 1044 1712 c 1,164,-1
 1044 1700 l 1,165,-1
 1036 1668 l 1,166,-1
 1032 1644 l 1,167,-1
 1028 1596 l 1,168,-1
 1024 1552 l 1,169,-1
 1024 1508 l 1,170,-1
 1028 1480 l 1,171,172
 1024 1436 1024 1436 1032 1408 c 1,173,174
 1020 1380 1020 1380 1008 1364 c 2,175,-1
 1004 1356 l 2,176,177
 992 1324 992 1324 968 1296 c 1,178,179
 960 1272 960 1272 948 1254 c 128,-1,180
 936 1236 936 1236 932 1220 c 0,181,182
 920 1188 920 1188 908 1172 c 2,183,-1
 864 1104 l 1,184,-1
 860 1088 l 1,185,186
 844 1064 844 1064 840 1044 c 2,187,-1
 820 992 l 2,188,189
 816 980 816 980 800 952 c 1,190,191
 788 916 788 916 772 888 c 1,192,-1
 764 864 l 1,193,-1
 748 836 l 1,194,195
 732 792 732 792 704 732 c 0,196,197
 692 712 692 712 688 696 c 0,198,199
 676 664 676 664 672 640 c 1,200,-1
 620 508 l 1,201,-1
 616 492 l 2,202,203
 608 468 608 468 596 452 c 0,204,205
 592 440 592 440 588 436 c 2,206,-1
 560 376 l 1,207,-1
 548 348 l 1,208,-1
 504 248 l 1,209,210
 500 212 500 212 484 184 c 1,211,212
 468 108 468 108 432 60 c 1,213,-1
 420 56 l 1,214,-1
 380 64 l 1,215,-1
 344 64 l 1,216,-1
 316 68 l 1,217,-1
 228 72 l 1,218,-1
 240 92 l 1,219,-1
 288 220 l 1,220,221
 304 304 304 304 348 356 c 1,222,-1
 352 372 l 1,223,-1
 360 388 l 1,224,-1
 372 432 l 1,225,226
 384 460 384 460 396 496 c 2,227,-1
 408 544 l 1,228,-1
 420 568 l 1,229,-1
 504 764 l 2,230,231
 520 792 520 792 528 800 c 2,232,-1
 564 872 l 1,233,234
 580 916 580 916 584 948 c 1,235,-1
 604 996 l 1,236,237
 608 1020 608 1020 620 1036 c 2,238,-1
 632 1060 l 2,239,240
 644 1084 644 1084 648 1104 c 1,241,-1
 696 1188 l 1,242,-1
 700 1204 l 1,243,-1
 708 1220 l 1,244,245
 716 1252 716 1252 728 1268 c 1,246,247
 736 1296 736 1296 748 1316 c 2,248,-1
 840 1480 l 1,249,250
 840 1500 840 1500 836 1512 c 1,251,252
 812 1524 812 1524 788 1524 c 2,253,-1
 756 1524 l 1,254,-1
 740 1520 l 1,255,-1
 680 1516 l 1,256,-1
 632 1516 l 1,257,-1
 608 1512 l 1,258,-1
 588 1512 l 1,259,-1
 532 1500 l 1,260,-1
 448 1496 l 2,261,262
 408 1496 408 1496 380 1488 c 1,263,-1
 352 1488 l 1,264,265
 308 1496 308 1496 276 1476 c 1,266,267
 260 1480 260 1480 248 1476 c 1,268,269
 236 1456 236 1456 236 1436 c 2,270,-1
 232 1408 l 1,271,272
 244 1360 244 1360 232 1320 c 1,273,-1
 180 1320 l 1,274,-1
 156 1316 l 1,275,276
 124 1304 124 1304 92 1312 c 1,277,-1
 92 1328 l 1,278,-1
 88 1352 l 1,279,280
 68 1396 68 1396 64 1432 c 2,281,-1
 48 1508 l 1,282,-1
 56 1540 l 1,283,284
 56 1568 56 1568 64 1588 c 1,285,286
 76 1652 76 1652 96 1696 c 1,287,-1
 124 1700 l 1,288,289
 184 1700 184 1700 224 1712 c 2,290,-1
 244 1716 l 1,291,-1
 400 1720 l 1,292,-1
 416 1724 l 1,293,294
 468 1720 468 1720 504 1732 c 1,295,-1
 516 1728 l 1,296,-1
 528 1732 l 1,297,-1
 680 1744 l 1,298,-1
 712 1744 l 1,151,-1
EndSplineSet
Validated: 41
Layer: 2
EndChar

StartChar: eight
Encoding: 56 56 27
Width: 1116
Flags: W
LayerCount: 3
Back
Fore
SplineSet
416 1752 m 1,1,-1
 408 1744 l 1,2,-1
 324 1704 l 1,3,-1
 296 1680 l 1,4,-1
 268 1664 l 1,5,-1
 248 1644 l 1,6,-1
 184 1600 l 1,7,-1
 176 1580 l 1,8,9
 164 1572 164 1572 148 1548 c 1,10,-1
 148 1536 l 1,11,12
 116 1488 116 1488 104 1448 c 0,13,14
 20 1204 20 1204 164 1000 c 1,15,16
 200 960 200 960 240 944 c 1,17,-1
 212 916 l 1,18,-1
 188 900 l 1,19,-1
 172 888 l 1,20,-1
 148 868 l 1,21,-1
 120 852 l 1,22,23
 108 832 108 832 96 824 c 1,24,25
 80 796 80 796 64 784 c 1,26,27
 -16 596 -16 596 8 416 c 1,28,29
 12 36 12 36 432 4 c 1,30,-1
 444 4 l 1,31,32
 496 8 496 8 536 0 c 1,33,-1
 568 4 l 1,34,35
 620 24 620 24 664 24 c 1,36,37
 1016 232 1016 232 992 648 c 1,38,-1
 988 664 l 1,39,-1
 984 700 l 1,40,41
 952 760 952 760 944 812 c 1,42,-1
 936 820 l 1,43,44
 908 872 908 872 856 900 c 1,45,46
 848 912 848 912 828 928 c 1,47,-1
 812 948 l 1,48,49
 788 956 788 956 776 968 c 1,50,51
 996 1180 996 1180 908 1440 c 0,52,53
 900 1472 900 1472 900 1492 c 1,54,55
 796 1656 796 1656 636 1720 c 1,56,57
 564 1772 564 1772 488 1776 c 1,58,0
 444 1756 444 1756 416 1752 c 1,1,-1
520 1704 m 1,59,-1
 536 1692 l 1,60,-1
 596 1672 l 1,61,-1
 608 1664 l 1,62,63
 644 1652 644 1652 668 1632 c 1,64,-1
 744 1592 l 1,65,66
 780 1544 780 1544 808 1520 c 1,67,68
 824 1488 824 1488 844 1468 c 1,69,70
 940 1184 940 1184 716 1004 c 1,71,72
 692 1000 692 1000 676 1000 c 1,73,-1
 664 980 l 1,74,75
 664 960 664 960 676 944 c 1,76,77
 884 868 884 868 924 676 c 0,78,79
 960 516 960 516 888 388 c 1,80,81
 824 140 824 140 608 72 c 1,82,83
 324 16 324 16 128 188 c 1,84,-1
 124 200 l 1,85,-1
 112 228 l 1,86,-1
 100 256 l 2,87,88
 76 312 76 312 70 336 c 128,-1,89
 64 360 64 360 64 380 c 2,90,-1
 56 420 l 1,91,-1
 60 560 l 1,92,-1
 56 572 l 1,93,-1
 72 616 l 1,94,95
 72 668 72 668 88 712 c 1,96,97
 172 844 172 844 304 896 c 1,98,99
 312 888 312 888 324 892 c 1,100,101
 340 908 340 908 348 924 c 1,102,103
 348 948 348 948 340 964 c 1,104,-1
 328 972 l 1,105,106
 308 976 308 976 296 984 c 2,107,-1
 276 1000 l 1,108,109
 232 1008 232 1008 204 1032 c 1,110,111
 -32 1480 -32 1480 468 1704 c 1,112,-1
 520 1704 l 1,59,-1
328 1296 m 1,114,115
 340 1148 340 1148 472 1140 c 1,116,117
 616 1120 616 1120 656 1252 c 1,118,119
 704 1460 704 1460 504 1508 c 1,120,113
 340 1456 340 1456 328 1296 c 1,114,115
612 1368 m 1,122,123
 636 1216 636 1216 504 1192 c 1,124,125
 364 1192 364 1192 384 1340 c 1,126,127
 432 1412 432 1412 508 1444 c 1,128,121
 580 1424 580 1424 612 1368 c 1,122,123
456 700 m 1,130,-1
 436 688 l 1,131,-1
 428 680 l 1,132,-1
 340 640 l 1,133,134
 248 520 248 520 288 396 c 1,135,136
 288 348 288 348 296 316 c 1,137,138
 316 280 316 280 344 256 c 1,139,140
 560 172 560 172 692 404 c 1,141,142
 728 592 728 592 584 700 c 1,143,-1
 576 696 l 1,144,-1
 564 700 l 1,145,-1
 528 704 l 1,146,129
 488 696 488 696 456 700 c 1,130,-1
644 440 m 1,148,149
 600 336 600 336 496 296 c 1,150,151
 332 256 332 256 336 420 c 1,152,153
 312 616 312 616 500 624 c 1,154,-1
 516 636 l 1,155,147
 672 592 672 592 644 440 c 1,148,149
EndSplineSet
Validated: 41
Layer: 2
EndChar

StartChar: nine
Encoding: 57 57 28
Width: 1097
Flags: W
LayerCount: 3
Back
Fore
SplineSet
13 1467 m 1,1,2
 -111 971 -111 971 226 679 c 1,3,-1
 252 675 l 1,4,-1
 282 663 l 1,5,-1
 342 639 l 1,6,7
 389 639 389 639 419 619 c 1,8,9
 406 591 406 591 393 575 c 1,10,-1
 385 547 l 1,11,-1
 376 535 l 1,12,13
 367 503 367 503 350 479 c 1,14,15
 325 459 325 459 312 439 c 1,16,-1
 278 407 l 1,17,-1
 269 395 l 1,18,-1
 252 375 l 1,19,-1
 188 307 l 1,20,21
 154 295 154 295 128 291 c 1,22,-1
 115 247 l 1,23,-1
 128 211 l 1,24,-1
 145 199 l 1,25,-1
 162 187 l 1,26,-1
 167 175 l 1,27,-1
 214 119 l 1,28,-1
 226 91 l 1,29,-1
 239 71 l 1,30,-1
 252 47 l 1,31,32
 269 27 269 27 273 11 c 1,33,-1
 299 -5 l 1,34,35
 346 3 346 3 376 27 c 1,36,-1
 385 51 l 1,37,-1
 402 75 l 1,38,-1
 414 83 l 1,39,-1
 444 131 l 1,40,-1
 457 155 l 1,41,-1
 457 167 l 1,42,43
 483 191 483 191 491 219 c 1,44,-1
 538 259 l 1,45,-1
 585 331 l 1,46,47
 598 339 598 339 620 375 c 2,48,-1
 696 495 l 1,49,50
 735 543 735 543 748 587 c 1,51,52
 970 923 970 923 944 1275 c 1,53,54
 889 1751 889 1751 406 1759 c 1,55,0
 81 1683 81 1683 13 1467 c 1,1,2
496 1679 m 1,56,-1
 560 1683 l 1,57,58
 581 1671 581 1671 594 1667 c 2,59,-1
 645 1647 l 1,60,61
 667 1627 667 1627 696 1615 c 1,62,-1
 701 1607 l 1,63,64
 752 1559 752 1559 795 1535 c 1,65,66
 902 1339 902 1339 880 1143 c 1,67,-1
 884 1135 l 1,68,-1
 880 1119 l 1,69,-1
 880 1083 l 1,70,71
 872 1059 872 1059 872 1035 c 1,72,-1
 855 959 l 1,73,-1
 850 939 l 2,74,75
 837 899 837 899 833 867 c 1,76,77
 820 839 820 839 816 835 c 2,78,-1
 799 807 l 1,79,-1
 795 795 l 2,80,81
 782 751 782 751 765 723 c 2,82,-1
 731 663 l 1,83,84
 722 639 722 639 709 627 c 2,85,-1
 679 583 l 1,86,-1
 675 571 l 1,87,88
 662 551 662 551 658 539 c 2,89,-1
 641 511 l 1,90,-1
 628 495 l 1,91,92
 620 471 620 471 598 455 c 1,93,-1
 590 431 l 1,94,-1
 581 423 l 1,95,-1
 560 395 l 1,96,-1
 534 363 l 1,97,98
 513 319 513 319 487 287 c 1,99,-1
 474 275 l 2,100,101
 449 247 449 247 427 231 c 1,102,103
 414 207 414 207 397 191 c 1,104,105
 372 115 372 115 316 75 c 1,106,107
 278 107 278 107 261 143 c 1,108,-1
 248 159 l 2,109,110
 209 207 209 207 197 243 c 1,111,-1
 218 259 l 2,112,113
 256 291 256 291 278 319 c 1,114,-1
 291 331 l 1,115,-1
 308 355 l 1,116,117
 333 379 333 379 350 391 c 1,118,119
 376 431 376 431 406 455 c 1,120,121
 419 487 419 487 432 507 c 0,122,123
 457 551 457 551 461 579 c 1,124,-1
 474 595 l 1,125,126
 483 631 483 631 500 659 c 1,127,128
 496 687 496 687 479 703 c 1,129,130
 432 703 432 703 397 691 c 1,131,132
 192 723 192 723 124 891 c 1,133,134
 43 1035 43 1035 47 1175 c 1,135,-1
 47 1203 l 1,136,137
 38 1259 38 1259 56 1307 c 1,138,139
 47 1379 47 1379 81 1439 c 1,140,-1
 77 1447 l 1,141,-1
 94 1491 l 1,142,143
 107 1511 107 1511 111 1527 c 1,144,145
 265 1675 265 1675 466 1695 c 1,146,-1
 496 1679 l 1,56,-1
192 1299 m 1,148,149
 137 1119 137 1119 231 987 c 1,150,151
 303 895 303 895 414 911 c 1,152,153
 748 947 748 947 709 1263 c 1,154,-1
 705 1275 l 1,155,-1
 692 1343 l 1,156,157
 585 1495 585 1495 419 1499 c 1,158,147
 244 1451 244 1451 192 1299 c 1,148,149
654 1195 m 1,160,161
 637 991 637 991 427 971 c 0,162,163
 239 951 239 951 235 1171 c 1,164,165
 239 1327 239 1327 355 1415 c 1,166,167
 406 1419 406 1419 440 1431 c 1,168,159
 658 1387 658 1387 654 1195 c 1,160,161
EndSplineSet
Validated: 41
Layer: 2
EndChar

StartChar: colon
Encoding: 58 58 29
Width: 480
Flags: W
LayerCount: 3
Back
Fore
SplineSet
24 963 m 1,1,2
 -8 899 -8 899 0 839 c 1,3,4
 64 619 64 619 280 739 c 1,5,6
 300 763 300 763 304 783 c 0,7,8
 352 1079 352 1079 152 1083 c 1,9,0
 20 1067 20 1067 24 963 c 1,1,2
252 815 m 1,11,12
 100 679 100 679 56 859 c 1,13,14
 60 1011 60 1011 192 991 c 1,15,-1
 212 1015 l 1,16,10
 280 923 280 923 252 815 c 1,11,12
72 227 m 1,18,19
 12 63 12 63 136 -5 c 1,20,21
 284 -53 284 -53 336 83 c 1,22,23
 352 247 352 247 224 303 c 1,24,17
 124 295 124 295 72 227 c 1,18,19
196 223 m 1,25,26
 232 207 232 207 260 203 c 1,27,28
 312 111 312 111 236 55 c 1,29,30
 140 19 140 19 108 119 c 1,31,32
 128 187 128 187 184 223 c 1,33,-1
 196 223 l 1,25,26
EndSplineSet
Validated: 41
Layer: 2
EndChar

StartChar: semicolon
Encoding: 59 59 30
Width: 500
Flags: W
LayerCount: 3
Back
Fore
SplineSet
0 900 m 1,1,2
 16 856 16 856 40 832 c 1,3,4
 324 732 324 732 332 960 c 1,5,6
 304 1132 304 1132 140 1132 c 1,7,0
 -8 1056 -8 1056 0 900 c 1,1,2
200 1052 m 1,9,10
 304 992 304 992 260 896 c 1,11,12
 176 844 176 844 96 888 c 1,13,-1
 72 888 l 1,14,-1
 56 912 l 1,15,16
 68 1008 68 1008 140 1052 c 1,17,8
 172 1044 172 1044 200 1052 c 1,9,10
16 188 m 1,19,20
 -4 24 -4 24 140 -24 c 1,21,22
 128 -108 128 -108 84 -168 c 1,23,24
 104 -200 104 -200 140 -200 c 1,25,-1
 144 -192 l 1,26,27
 180 -164 180 -164 196 -132 c 1,28,29
 344 -8 344 -8 368 156 c 1,30,31
 316 340 316 340 140 332 c 1,32,18
 36 292 36 292 16 188 c 1,19,20
280 180 m 1,34,35
 312 76 312 76 232 4 c 1,36,-1
 216 -20 l 1,37,38
 276 112 276 112 124 56 c 1,39,40
 96 76 96 76 84 92 c 1,41,42
 56 200 56 200 144 256 c 1,43,33
 260 264 260 264 280 180 c 1,34,35
EndSplineSet
Validated: 41
Layer: 2
EndChar

StartChar: less
Encoding: 60 60 31
Width: 893
Flags: W
LayerCount: 3
Back
Fore
SplineSet
652 1343 m 1,0,-1
 576 1291 l 1,1,-1
 568 1279 l 1,2,3
 504 1235 504 1235 472 1195 c 1,4,-1
 456 1187 l 1,5,6
 452 1175 452 1175 442 1169 c 128,-1,7
 432 1163 432 1163 424 1163 c 1,8,-1
 408 1151 l 1,9,-1
 384 1127 l 1,10,-1
 272 1055 l 1,11,-1
 264 1047 l 1,12,-1
 216 1011 l 1,13,-1
 212 1003 l 1,14,-1
 200 995 l 2,15,16
 172 975 172 975 152 967 c 1,17,18
 92 915 92 915 32 891 c 1,19,20
 20 859 20 859 0 839 c 1,21,-1
 0 803 l 1,22,-1
 4 795 l 1,23,24
 8 767 8 767 16 751 c 1,25,-1
 16 711 l 1,26,-1
 20 683 l 1,27,-1
 20 623 l 2,28,29
 20 571 20 571 12 535 c 1,30,31
 36 499 36 499 72 511 c 1,32,-1
 100 495 l 1,33,-1
 148 447 l 1,34,-1
 164 435 l 1,35,-1
 216 395 l 1,36,-1
 236 379 l 1,37,38
 264 347 264 347 288 331 c 1,39,-1
 344 275 l 1,40,-1
 364 259 l 1,41,-1
 380 239 l 1,42,-1
 428 203 l 1,43,-1
 444 187 l 1,44,-1
 452 183 l 1,45,-1
 492 155 l 1,46,-1
 500 151 l 1,47,-1
 584 59 l 2,48,49
 608 31 608 31 636 31 c 1,50,51
 656 7 656 7 672 -5 c 1,52,53
 700 -5 700 -5 712 19 c 1,54,-1
 712 83 l 1,55,-1
 708 95 l 1,56,-1
 712 119 l 1,57,-1
 708 139 l 1,58,59
 716 211 716 211 712 259 c 1,60,-1
 716 279 l 1,61,62
 732 315 732 315 732 343 c 1,63,-1
 712 375 l 1,64,65
 664 383 664 383 632 407 c 1,66,-1
 616 423 l 1,67,-1
 612 431 l 1,68,-1
 572 483 l 1,69,-1
 564 491 l 1,70,71
 512 527 512 527 496 543 c 1,72,73
 480 567 480 567 464 583 c 2,74,-1
 412 627 l 1,75,76
 372 675 372 675 328 695 c 1,77,78
 352 731 352 731 376 747 c 2,79,-1
 424 775 l 1,80,-1
 428 783 l 1,81,-1
 440 791 l 1,82,83
 476 823 476 823 508 843 c 1,84,-1
 520 855 l 1,85,-1
 532 863 l 2,86,87
 560 879 560 879 576 903 c 0,88,89
 588 915 588 915 612 931 c 1,90,91
 656 943 656 943 684 959 c 1,92,-1
 696 987 l 1,93,94
 684 1019 684 1019 684 1043 c 1,95,-1
 692 1087 l 1,96,-1
 696 1115 l 1,97,98
 696 1147 696 1147 700 1171 c 1,99,100
 700 1223 700 1223 720 1259 c 1,101,-1
 724 1315 l 1,102,103
 704 1351 704 1351 672 1355 c 1,104,-1
 652 1343 l 1,0,-1
652 1239 m 2,106,-1
 648 1223 l 1,107,-1
 648 1203 l 1,108,-1
 644 1159 l 1,109,-1
 640 1127 l 1,110,-1
 632 1107 l 1,111,-1
 636 1087 l 1,112,113
 628 1043 628 1043 632 1015 c 1,114,115
 600 999 600 999 580 983 c 2,116,-1
 572 975 l 1,117,118
 540 955 540 955 524 931 c 1,119,-1
 508 915 l 1,120,-1
 496 907 l 1,121,-1
 440 875 l 1,122,-1
 420 851 l 1,123,-1
 364 807 l 1,124,-1
 356 803 l 1,125,-1
 280 747 l 1,126,127
 272 723 272 723 276 699 c 1,128,129
 268 687 268 687 268 675 c 1,130,-1
 280 655 l 1,131,132
 308 635 308 635 320 623 c 2,133,-1
 408 551 l 1,134,-1
 432 531 l 1,135,136
 464 491 464 491 486 473 c 128,-1,137
 508 455 508 455 524 443 c 0,138,139
 564 407 564 407 584 371 c 1,140,-1
 652 303 l 1,141,142
 660 271 660 271 660 247 c 1,143,-1
 656 231 l 1,144,-1
 656 179 l 2,145,146
 656 143 656 143 652 115 c 1,147,-1
 628 115 l 1,148,149
 612 123 612 123 596 139 c 0,150,151
 560 167 560 167 544 191 c 1,152,-1
 480 239 l 1,153,154
 436 263 436 263 408 295 c 2,155,-1
 384 319 l 1,156,-1
 360 335 l 1,157,-1
 352 347 l 1,158,-1
 312 383 l 1,159,-1
 300 395 l 1,160,-1
 276 419 l 1,161,-1
 256 431 l 1,162,-1
 248 439 l 1,163,-1
 228 459 l 1,164,-1
 204 479 l 1,165,166
 168 503 168 503 148 523 c 2,167,-1
 140 531 l 1,168,-1
 116 595 l 1,169,-1
 72 615 l 1,170,-1
 76 635 l 1,171,-1
 72 651 l 1,172,-1
 72 691 l 2,173,174
 72 723 72 723 76 747 c 1,175,176
 68 795 68 795 72 831 c 1,177,178
 80 839 80 839 92 835 c 1,179,-1
 124 871 l 1,180,-1
 148 891 l 1,181,-1
 160 895 l 1,182,-1
 180 911 l 1,183,-1
 228 935 l 1,184,-1
 236 943 l 1,185,-1
 256 963 l 1,186,-1
 276 983 l 1,187,-1
 284 987 l 1,188,189
 304 1007 304 1007 324 1019 c 2,190,-1
 332 1023 l 1,191,-1
 444 1095 l 1,192,-1
 452 1103 l 1,193,-1
 476 1119 l 1,194,-1
 484 1127 l 1,195,-1
 508 1139 l 1,196,-1
 644 1259 l 1,197,105
 652 1247 652 1247 652 1239 c 2,106,-1
EndSplineSet
Validated: 41
Layer: 2
EndChar

StartChar: equal
Encoding: 61 61 32
Width: 1090
Flags: W
LayerCount: 3
Back
Fore
SplineSet
660 1217 m 1,0,1
 644 1221 644 1221 632 1217 c 1,2,-1
 604 1221 l 1,3,-1
 524 1221 l 1,4,5
 508 1217 508 1217 496 1221 c 1,6,-1
 488 1213 l 1,7,8
 476 1217 476 1217 452 1213 c 2,9,-1
 408 1209 l 1,10,-1
 396 1213 l 1,11,-1
 388 1209 l 1,12,-1
 268 1209 l 1,13,-1
 256 1205 l 1,14,-1
 248 1209 l 1,15,-1
 164 1205 l 1,16,-1
 136 1201 l 1,17,-1
 104 1201 l 1,18,19
 44 1209 44 1209 4 1197 c 1,20,-1
 0 1177 l 1,21,22
 8 1157 8 1157 24 1141 c 1,23,-1
 24 1129 l 1,24,-1
 32 1073 l 1,25,26
 24 997 24 997 48 945 c 1,27,28
 92 945 92 945 124 969 c 1,29,-1
 140 965 l 1,30,-1
 172 969 l 2,31,32
 220 977 220 977 256 969 c 1,33,34
 324 981 324 981 372 969 c 1,35,-1
 412 969 l 1,36,-1
 432 973 l 1,37,38
 476 977 476 977 492 977 c 0,39,40
 524 969 524 969 548 973 c 1,41,42
 580 973 580 973 600 969 c 1,43,-1
 612 973 l 1,44,-1
 652 973 l 1,45,-1
 664 977 l 1,46,47
 676 973 676 973 680 977 c 1,48,-1
 708 977 l 1,49,-1
 716 981 l 1,50,51
 752 977 752 977 780 981 c 1,52,53
 804 969 804 969 824 969 c 1,54,55
 848 985 848 985 856 1005 c 1,56,57
 832 1097 832 1097 868 1173 c 1,58,-1
 864 1201 l 1,59,60
 848 1217 848 1217 832 1221 c 1,61,62
 800 1217 800 1217 776 1225 c 1,63,64
 728 1217 728 1217 692 1225 c 1,65,-1
 660 1217 l 1,0,1
560 1165 m 0,67,68
 572 1165 572 1165 576 1161 c 1,69,-1
 588 1165 l 1,70,-1
 608 1161 l 1,71,-1
 668 1161 l 1,72,73
 708 1165 708 1165 768 1153 c 2,74,-1
 796 1149 l 1,75,-1
 800 1137 l 1,76,-1
 796 1129 l 1,77,-1
 796 1105 l 1,78,79
 788 1081 788 1081 788 1057 c 1,80,81
 776 1049 776 1049 752 1041 c 1,82,83
 716 1041 716 1041 656 1029 c 2,84,-1
 628 1025 l 1,85,-1
 604 1029 l 1,86,87
 564 1025 564 1025 536 1029 c 1,88,-1
 252 1029 l 1,89,-1
 220 1025 l 1,90,-1
 96 1021 l 1,91,92
 72 1093 72 1093 112 1149 c 1,93,-1
 176 1153 l 1,94,-1
 196 1157 l 1,95,-1
 376 1157 l 2,96,97
 396 1157 396 1157 408 1161 c 1,98,99
 464 1153 464 1153 508 1165 c 1,100,66
 540 1161 540 1161 560 1165 c 0,67,68
752 829 m 2,101,102
 732 825 732 825 720 829 c 1,103,-1
 684 825 l 1,104,-1
 608 825 l 1,105,-1
 592 821 l 1,106,-1
 572 821 l 1,107,-1
 560 817 l 1,108,109
 536 825 536 825 512 821 c 2,110,-1
 452 817 l 1,111,-1
 424 813 l 1,112,-1
 404 813 l 1,113,-1
 392 809 l 1,114,-1
 324 805 l 1,115,-1
 296 801 l 1,116,-1
 272 801 l 1,117,118
 196 785 196 785 132 801 c 1,119,120
 104 797 104 797 84 785 c 1,121,122
 60 793 60 793 36 789 c 1,123,124
 16 673 16 673 52 573 c 1,125,126
 72 561 72 561 84 557 c 1,127,128
 92 533 92 533 104 521 c 1,129,130
 128 521 128 521 156 529 c 1,131,132
 164 525 164 525 172 529 c 1,133,-1
 200 525 l 1,134,135
 272 537 272 537 324 525 c 1,136,137
 352 537 352 537 364 537 c 2,138,-1
 436 553 l 1,139,-1
 460 553 l 2,140,141
 492 553 492 553 516 549 c 128,-1,142
 540 545 540 545 556 549 c 2,143,-1
 608 553 l 1,144,-1
 636 561 l 1,145,146
 680 561 680 561 708 569 c 1,147,148
 732 565 732 565 748 565 c 2,149,-1
 792 573 l 1,150,-1
 848 573 l 1,151,-1
 876 569 l 1,152,-1
 920 573 l 1,153,154
 968 613 968 613 920 653 c 1,155,-1
 892 657 l 1,156,-1
 872 681 l 1,157,158
 864 737 864 737 880 777 c 1,159,-1
 880 801 l 1,160,161
 836 841 836 841 784 837 c 1,162,-1
 752 829 l 2,101,102
816 689 m 1,164,165
 824 665 824 665 824 645 c 1,166,167
 796 633 796 633 786 635 c 128,-1,168
 776 637 776 637 768 633 c 0,169,170
 736 625 736 625 712 625 c 2,171,-1
 676 621 l 1,172,-1
 644 621 l 1,173,-1
 632 617 l 2,174,175
 608 613 608 613 568 609 c 0,176,177
 528 601 528 601 496 601 c 2,178,-1
 404 601 l 1,179,180
 364 597 364 597 336 589 c 1,181,-1
 280 589 l 2,182,183
 248 589 248 589 224 585 c 1,184,185
 204 589 204 589 184 585 c 1,186,-1
 104 589 l 1,187,188
 76 677 76 677 84 745 c 1,189,-1
 88 753 l 1,190,191
 128 729 128 729 172 733 c 2,192,-1
 204 737 l 1,193,-1
 248 745 l 1,194,-1
 288 745 l 1,195,196
 320 753 320 753 344 753 c 1,197,198
 356 749 356 749 360 753 c 1,199,-1
 396 753 l 1,200,201
 420 761 420 761 444 757 c 1,202,-1
 456 757 l 1,203,204
 492 765 492 765 518 763 c 128,-1,205
 544 761 544 761 564 769 c 1,206,207
 636 749 636 749 696 773 c 1,208,163
 820 777 820 777 816 689 c 1,164,165
EndSplineSet
Validated: 41
Layer: 2
EndChar

StartChar: greater
Encoding: 62 62 33
Width: 843
Flags: W
LayerCount: 3
Back
Fore
SplineSet
4 1371 m 1,1,-1
 16 1315 l 1,2,-1
 20 1287 l 1,3,-1
 20 1259 l 1,4,5
 28 1187 28 1187 24 1139 c 1,6,7
 12 1119 12 1119 8 1099 c 1,8,-1
 20 1087 l 1,9,10
 60 1059 60 1059 84 1027 c 2,11,-1
 140 963 l 2,12,13
 148 951 148 951 162 937 c 128,-1,14
 176 923 176 923 184 911 c 2,15,-1
 212 875 l 1,16,-1
 248 835 l 1,17,-1
 288 767 l 1,18,19
 312 751 312 751 324 731 c 1,20,-1
 312 711 l 1,21,22
 276 683 276 683 260 647 c 1,23,-1
 252 635 l 1,24,-1
 224 611 l 1,25,-1
 216 599 l 1,26,-1
 192 579 l 1,27,-1
 184 567 l 1,28,-1
 164 547 l 1,29,-1
 148 527 l 2,30,31
 128 499 128 499 112 483 c 0,32,33
 72 431 72 431 52 395 c 1,34,35
 20 387 20 387 4 363 c 1,36,-1
 0 343 l 1,37,-1
 16 299 l 1,38,-1
 20 15 l 1,39,40
 44 -9 44 -9 72 -1 c 1,41,-1
 80 7 l 1,42,-1
 88 23 l 1,43,-1
 104 39 l 1,44,-1
 124 63 l 1,45,-1
 148 83 l 1,46,-1
 168 103 l 1,47,-1
 172 111 l 2,48,49
 184 131 184 131 196 139 c 1,50,-1
 216 163 l 1,51,-1
 236 183 l 1,52,-1
 240 195 l 1,53,54
 260 215 260 215 268 231 c 1,55,56
 304 263 304 263 316 279 c 1,57,58
 328 287 328 287 332 295 c 2,59,-1
 384 335 l 1,60,-1
 392 343 l 1,61,62
 416 359 416 359 432 375 c 1,63,-1
 444 383 l 1,64,-1
 472 411 l 1,65,-1
 496 431 l 1,66,-1
 512 439 l 1,67,68
 524 455 524 455 540 463 c 1,69,70
 556 487 556 487 580 499 c 1,71,72
 588 511 588 511 596 515 c 2,73,-1
 612 519 l 1,74,75
 632 483 632 483 664 507 c 1,76,77
 672 543 672 543 668 575 c 1,78,-1
 668 587 l 1,79,-1
 664 619 l 1,80,-1
 660 735 l 1,81,82
 676 775 676 775 672 807 c 1,83,-1
 644 823 l 1,84,85
 620 827 620 827 600 839 c 1,86,87
 580 859 580 859 568 867 c 0,88,89
 516 911 516 911 504 931 c 1,90,91
 452 975 452 975 432 995 c 0,92,93
 376 1047 376 1047 360 1071 c 2,94,-1
 348 1087 l 1,95,-1
 304 1131 l 2,96,97
 280 1155 280 1155 268 1175 c 1,98,-1
 172 1275 l 2,99,100
 148 1295 148 1295 136 1311 c 0,101,102
 104 1347 104 1347 92 1379 c 1,103,104
 56 1407 56 1407 16 1411 c 1,105,0
 4 1391 4 1391 4 1371 c 1,1,-1
84 1287 m 1,106,-1
 104 1267 l 2,107,108
 124 1243 124 1243 148 1227 c 1,109,-1
 244 1115 l 1,110,111
 260 1087 260 1087 288 1067 c 1,112,-1
 356 995 l 1,113,-1
 364 983 l 1,114,-1
 384 963 l 1,115,-1
 400 951 l 1,116,-1
 420 927 l 1,117,118
 464 891 464 891 488 863 c 1,119,-1
 496 859 l 1,120,121
 516 835 516 835 536 823 c 1,122,-1
 564 795 l 1,123,124
 584 767 584 767 604 751 c 1,125,-1
 608 619 l 1,126,-1
 516 535 l 1,127,-1
 496 519 l 1,128,-1
 476 507 l 1,129,130
 468 495 468 495 464 491 c 2,131,-1
 448 471 l 1,132,-1
 432 459 l 1,133,-1
 416 447 l 1,134,-1
 408 435 l 1,135,136
 388 419 388 419 380 407 c 1,137,-1
 368 403 l 1,138,-1
 352 387 l 1,139,-1
 340 379 l 1,140,141
 332 367 332 367 316 359 c 1,142,-1
 300 343 l 1,143,-1
 276 323 l 1,144,-1
 220 267 l 2,145,146
 196 243 196 243 184 219 c 1,147,-1
 176 211 l 1,148,-1
 156 187 l 1,149,-1
 144 167 l 1,150,-1
 132 155 l 1,151,-1
 116 135 l 1,152,153
 92 115 92 115 80 95 c 1,154,-1
 72 107 l 1,155,-1
 68 231 l 1,156,157
 72 263 72 263 68 291 c 1,158,159
 164 515 164 515 352 643 c 1,160,161
 376 687 376 687 404 711 c 1,162,163
 404 743 404 743 392 767 c 1,164,165
 360 783 360 783 340 799 c 1,166,-1
 332 815 l 1,167,-1
 292 863 l 1,168,169
 272 895 272 895 232 935 c 1,170,-1
 224 947 l 1,171,-1
 120 1067 l 2,172,173
 100 1095 100 1095 80 1111 c 1,174,-1
 84 1131 l 1,175,-1
 80 1159 l 1,176,-1
 80 1215 l 1,177,178
 72 1263 72 1263 76 1295 c 1,179,-1
 84 1287 l 1,106,-1
EndSplineSet
Validated: 41
Layer: 2
EndChar

StartChar: question
Encoding: 63 63 34
Width: 1032
Flags: W
LayerCount: 3
Back
Fore
SplineSet
408 1758 m 1,0,1
 272 1746 272 1746 180 1692 c 1,2,-1
 126 1676 l 1,3,4
 5 1518 5 1518 5 1357 c 2,5,-1
 5 1332 l 1,6,7
 0 1295 0 1295 5 1266 c 1,8,9
 0 1237 0 1237 10 1216 c 1,10,11
 -5 1171 -5 1171 19 1129 c 1,12,-1
 58 1117 l 1,13,14
 87 1117 87 1117 112 1121 c 1,15,-1
 126 1113 l 1,16,-1
 141 1117 l 1,17,18
 175 1113 175 1113 199 1117 c 1,19,20
 228 1109 228 1109 248 1113 c 1,21,22
 272 1125 272 1125 281 1146 c 1,23,24
 257 1274 257 1274 330 1365 c 1,25,26
 403 1498 403 1498 548 1460 c 1,27,28
 631 1386 631 1386 587 1295 c 1,29,30
 563 1266 563 1266 558 1241 c 1,31,32
 519 1191 519 1191 500 1175 c 1,33,34
 495 1162 495 1162 487.5 1156 c 128,-1,35
 480 1150 480 1150 470.5 1144 c 128,-1,36
 461 1138 461 1138 447 1121 c 0,37,38
 427 1088 427 1088 398 1067 c 1,39,40
 383 1046 383 1046 369 1034 c 1,41,42
 345 988 345 988 311 964 c 1,43,44
 301 902 301 902 277 864 c 1,45,46
 281 827 281 827 277 798 c 1,47,48
 277 715 277 715 267 686 c 1,49,-1
 272 674 l 1,50,-1
 272 641 l 1,51,-1
 277 628 l 1,52,53
 277 599 277 599 286 575 c 1,54,55
 281 525 281 525 301 488 c 1,56,57
 291 467 291 467 291 450 c 1,58,-1
 315 434 l 1,59,-1
 340 430 l 1,60,61
 369 442 369 442 393 446 c 0,62,63
 514 459 514 459 558 450 c 1,64,-1
 587 463 l 1,65,-1
 592 475 l 1,66,67
 558 541 558 541 553 587 c 1,68,-1
 573 628 l 1,69,-1
 563 653 l 1,70,-1
 568 678 l 1,71,-1
 573 707 l 1,72,-1
 568 715 l 1,73,-1
 573 724 l 1,74,75
 573 761 573 761 587 819 c 1,76,77
 602 839 602 839 602 856 c 1,78,79
 621 885 621 885 626 910 c 1,80,-1
 665 951 l 1,81,-1
 675 955 l 1,82,-1
 704 980 l 1,83,84
 723 988 723 988 733 1001 c 2,85,-1
 781 1042 l 1,86,-1
 786 1051 l 1,87,-1
 830 1100 l 1,88,-1
 830 1113 l 1,89,90
 859 1154 859 1154 854 1187 c 1,91,92
 917 1262 917 1262 908 1349 c 0,93,94
 893 1522 893 1522 772 1634 c 1,95,96
 636 1792 636 1792 422 1767 c 1,97,-1
 408 1758 l 1,0,1
505 1688 m 1,98,99
 548 1692 548 1692 582 1684 c 1,100,101
 704 1622 704 1622 757 1527 c 1,102,103
 830 1444 830 1444 801 1357 c 1,104,105
 801 1320 801 1320 811 1291 c 1,106,107
 752 1109 752 1109 607 1005 c 1,108,-1
 592 988 l 1,109,-1
 573 964 l 1,110,111
 553 947 553 947 544 931 c 2,112,-1
 519 902 l 1,113,114
 519 889 519 889 514 885 c 1,115,-1
 514 860 l 1,116,-1
 510 844 l 2,117,118
 500 819 500 819 500 802 c 2,119,-1
 500 748 l 1,120,-1
 495 736 l 1,121,-1
 490 703 l 1,122,-1
 480 620 l 1,123,124
 466 566 466 566 471 521 c 1,125,-1
 451 508 l 1,126,-1
 379 504 l 1,127,128
 340 612 340 612 354 707 c 1,129,130
 340 790 340 790 364 856 c 1,131,-1
 364 881 l 1,132,-1
 374 889 l 1,133,134
 374 897 374 897 383 914 c 1,135,136
 403 935 403 935 403 955 c 1,137,-1
 417 976 l 1,138,-1
 442 997 l 1,139,-1
 471 1026 l 1,140,141
 485 1051 485 1051 510 1067 c 1,142,-1
 514 1080 l 1,143,-1
 534 1104 l 1,144,145
 558 1121 558 1121 568 1133 c 0,146,147
 587 1150 587 1150 597 1171 c 1,148,-1
 626 1200 l 1,149,-1
 631 1208 l 1,150,151
 645 1270 645 1270 679 1316 c 1,152,153
 684 1419 684 1419 626 1494 c 1,154,155
 291 1696 291 1696 180 1191 c 1,156,157
 141 1175 141 1175 102 1187 c 1,158,-1
 87 1200 l 1,159,160
 58 1411 58 1411 146 1580 c 1,161,-1
 194 1622 l 1,162,163
 238 1643 238 1643 262 1659 c 1,164,-1
 281 1655 l 1,165,166
 364 1676 364 1676 398 1688 c 1,167,168
 442 1684 442 1684 480 1696 c 1,169,-1
 505 1688 l 1,98,99
427 305 m 1,170,171
 184 115 184 115 398 -9 c 1,172,173
 597 -26 597 -26 612 148 c 1,174,175
 612 231 612 231 529 248 c 1,176,177
 505 289 505 289 461 310 c 1,178,-1
 427 305 l 1,170,171
534 136 m 0,180,181
 524 74 524 74 466 53 c 1,182,183
 369 45 369 45 369 123 c 1,184,185
 417 169 417 169 476 185 c 1,186,179
 544 190 544 190 534 136 c 0,180,181
EndSplineSet
Validated: 41
Layer: 2
EndChar

StartChar: at
Encoding: 64 64 35
Width: 1902
Flags: W
LayerCount: 3
Back
Fore
SplineSet
912 1736 m 1,0,-1
 864 1740 l 1,1,-1
 848 1732 l 1,2,-1
 836 1732 l 1,3,-1
 804 1728 l 1,4,-1
 756 1712 l 1,5,6
 704 1704 704 1704 668 1688 c 1,7,8
 548 1668 548 1668 464 1596 c 1,9,10
 180 1448 180 1448 92 1176 c 1,11,-1
 84 1168 l 1,12,-1
 52 1068 l 1,13,14
 12 984 12 984 16 904 c 1,15,-1
 0 848 l 1,16,17
 8 820 8 820 8 800 c 0,18,19
 -12 692 -12 692 12 604 c 1,20,21
 8 572 8 572 20 548 c 2,22,-1
 40 500 l 1,23,24
 56 432 56 432 92 392 c 1,25,26
 136 244 136 244 264 184 c 1,27,28
 340 124 340 124 420 108 c 1,29,30
 496 60 496 60 572 64 c 1,31,32
 628 36 628 36 680 36 c 1,33,34
 860 -28 860 -28 1020 40 c 1,35,36
 1180 56 1180 56 1268 164 c 1,37,38
 1292 284 1292 284 1192 336 c 1,39,-1
 1164 340 l 1,40,-1
 1092 348 l 1,41,-1
 1080 344 l 1,42,43
 1036 340 1036 340 1004 332 c 0,44,45
 948 316 948 316 916 292 c 1,46,47
 848 300 848 300 796 276 c 1,48,49
 776 276 776 276 764 272 c 1,50,-1
 736 272 l 1,51,52
 60 424 60 424 300 1076 c 1,53,-1
 308 1084 l 1,54,55
 324 1116 324 1116 340 1132 c 1,56,57
 404 1252 404 1252 504 1316 c 1,58,59
 552 1372 552 1372 600 1396 c 1,60,-1
 644 1440 l 1,61,62
 916 1508 916 1508 1152 1424 c 1,63,-1
 1196 1424 l 1,64,65
 1496 1308 1496 1308 1472 1032 c 1,66,67
 1492 936 1492 936 1460 852 c 1,68,-1
 1444 836 l 1,69,70
 1424 800 1424 800 1400 776 c 1,71,72
 1344 744 1344 744 1308 788 c 1,73,-1
 1312 808 l 2,74,75
 1316 840 1316 840 1328 860 c 0,76,77
 1332 872 1332 872 1336 876 c 2,78,-1
 1340 892 l 2,79,80
 1344 912 1344 912 1348 932 c 1,81,-1
 1356 944 l 1,82,-1
 1356 968 l 1,83,-1
 1360 976 l 1,84,-1
 1368 1000 l 1,85,-1
 1368 1012 l 1,86,-1
 1380 1072 l 1,87,88
 1368 1144 1368 1144 1348 1188 c 1,89,-1
 1304 1240 l 1,90,-1
 1268 1268 l 1,91,92
 1192 1272 1192 1272 1136 1244 c 1,93,94
 912 1376 912 1376 704 1256 c 1,95,96
 524 1172 524 1172 460 1004 c 1,97,98
 384 876 384 876 384 744 c 1,99,-1
 372 704 l 1,100,-1
 368 680 l 1,101,-1
 380 656 l 1,102,103
 392 612 392 612 416 584 c 1,104,105
 428 556 428 556 444 540 c 1,106,-1
 456 516 l 1,107,-1
 468 520 l 1,108,-1
 496 496 l 1,109,-1
 504 492 l 1,110,-1
 540 480 l 1,111,-1
 568 464 l 1,112,-1
 580 464 l 1,113,114
 608 452 608 452 644 444 c 1,115,116
 668 444 668 444 708 436 c 0,117,118
 736 428 736 428 756 428 c 1,119,120
 776 420 776 420 796 420 c 2,121,-1
 860 420 l 1,122,-1
 896 436 l 1,123,-1
 908 436 l 1,124,-1
 932 448 l 1,125,-1
 944 448 l 1,126,-1
 964 460 l 1,127,-1
 1080 512 l 2,128,129
 1108 524 1108 524 1124 536 c 1,130,131
 1188 512 1188 512 1216 452 c 1,132,-1
 1236 456 l 1,133,134
 1348 408 1348 408 1452 452 c 1,135,136
 1472 468 1472 468 1488 476 c 1,137,-1
 1508 500 l 1,138,-1
 1516 504 l 1,139,140
 1540 536 1540 536 1572 552 c 1,141,-1
 1576 568 l 1,142,143
 1596 580 1596 580 1624 616 c 0,144,145
 1636 632 1636 632 1644 640 c 2,146,-1
 1656 660 l 1,147,148
 1696 704 1696 704 1716 744 c 0,149,150
 1724 768 1724 768 1736 784 c 1,151,152
 1736 808 1736 808 1744 840 c 2,153,-1
 1752 872 l 1,154,-1
 1752 896 l 1,155,-1
 1756 908 l 1,156,-1
 1764 956 l 1,157,158
 1756 996 1756 996 1764 1028 c 1,159,160
 1744 1076 1744 1076 1752 1116 c 1,161,-1
 1732 1148 l 1,162,-1
 1732 1160 l 1,163,164
 1716 1208 1716 1208 1716 1240 c 1,165,-1
 1692 1280 l 1,166,167
 1676 1296 1676 1296 1668 1316 c 0,168,169
 1660 1328 1660 1328 1660 1336 c 1,170,-1
 1640 1352 l 1,171,-1
 1584 1432 l 1,172,-1
 1572 1448 l 1,173,-1
 1556 1464 l 2,174,175
 1508 1508 1508 1508 1484 1544 c 1,176,177
 1452 1556 1452 1556 1432 1568 c 2,178,-1
 1420 1576 l 1,179,-1
 1400 1588 l 1,180,181
 1376 1592 1376 1592 1360 1604 c 1,182,183
 1304 1616 1304 1616 1264 1644 c 1,184,185
 1240 1644 1240 1644 1224 1648 c 0,186,187
 1176 1664 1176 1664 1144 1668 c 1,188,-1
 1132 1676 l 1,189,190
 1108 1680 1108 1680 1104 1684 c 2,191,-1
 1076 1696 l 1,192,-1
 1056 1704 l 1,193,-1
 1028 1716 l 1,194,195
 1004 1716 1004 1716 988 1728 c 1,196,197
 956 1740 956 1740 928 1744 c 1,198,-1
 912 1736 l 1,0,-1
968 1664 m 1,200,201
 1044 1664 1044 1664 1096 1628 c 1,202,203
 1204 1620 1204 1620 1264 1572 c 1,204,-1
 1276 1580 l 1,205,206
 1304 1564 1304 1564 1316 1552 c 1,207,208
 1504 1472 1504 1472 1600 1300 c 0,209,210
 1820 916 1820 916 1528 620 c 1,211,212
 1484 552 1484 552 1416 532 c 1,213,214
 1320 444 1320 444 1196 608 c 1,215,-1
 1172 604 l 1,216,217
 1140 616 1140 616 1112 612 c 1,218,219
 1088 592 1088 592 1064 588 c 1,220,221
 1040 572 1040 572 1020 564 c 1,222,223
 856 432 856 432 688 512 c 1,224,225
 556 528 556 528 472 604 c 1,226,-1
 444 708 l 1,227,228
 456 960 456 960 620 1116 c 1,229,230
 772 1280 772 1280 992 1248 c 1,231,232
 1076 1224 1076 1224 1132 1168 c 1,233,234
 1176 1176 1176 1176 1208 1204 c 1,235,-1
 1244 1208 l 1,236,237
 1292 1168 1292 1168 1312 1120 c 1,238,239
 1316 1088 1316 1088 1312 1064 c 2,240,-1
 1308 1052 l 2,241,242
 1296 1020 1296 1020 1292 996 c 1,243,244
 1280 968 1280 968 1276 948 c 1,245,246
 1224 852 1224 852 1220 760 c 1,247,-1
 1228 752 l 1,248,249
 1240 716 1240 716 1260 696 c 1,250,251
 1408 648 1408 648 1500 772 c 1,252,253
 1580 952 1580 952 1528 1120 c 1,254,-1
 1532 1132 l 1,255,-1
 1528 1140 l 1,256,257
 1528 1180 1528 1180 1524 1204 c 1,258,259
 1512 1220 1512 1220 1508 1248 c 1,260,-1
 1452 1328 l 2,261,262
 1436 1356 1436 1356 1420 1372 c 1,263,-1
 1360 1408 l 1,264,-1
 1348 1420 l 1,265,-1
 1340 1424 l 2,266,267
 1308 1440 1308 1440 1292 1452 c 2,268,-1
 1268 1468 l 1,269,270
 1208 1480 1208 1480 1168 1500 c 1,271,-1
 1100 1512 l 1,272,-1
 1080 1508 l 1,273,-1
 1036 1516 l 1,274,-1
 1028 1520 l 1,275,-1
 984 1524 l 2,276,277
 952 1528 952 1528 908 1524 c 1,278,-1
 864 1528 l 1,279,-1
 836 1528 l 1,280,281
 780 1524 780 1524 744 1528 c 1,282,283
 728 1516 728 1516 712 1516 c 2,284,-1
 688 1512 l 1,285,286
 652 1500 652 1500 624 1496 c 1,287,-1
 616 1488 l 1,288,-1
 592 1476 l 1,289,290
 568 1448 568 1448 540 1436 c 1,291,-1
 528 1428 l 1,292,-1
 516 1412 l 1,293,-1
 496 1396 l 1,294,-1
 476 1380 l 1,295,-1
 460 1364 l 1,296,-1
 452 1360 l 1,297,298
 416 1328 416 1328 380 1308 c 1,299,-1
 368 1280 l 1,300,301
 100 964 100 964 200 604 c 1,302,-1
 200 588 l 1,303,304
 212 556 212 556 216 536 c 1,305,306
 236 488 236 488 240 456 c 1,307,-1
 252 452 l 1,308,309
 272 428 272 428 288 420 c 1,310,311
 424 272 424 272 600 244 c 1,312,-1
 656 212 l 1,313,-1
 692 216 l 1,314,315
 828 188 828 188 936 240 c 1,316,317
 960 236 960 236 980 244 c 1,318,-1
 1012 248 l 1,319,320
 1040 256 1040 256 1060 268 c 1,321,-1
 1088 264 l 1,322,-1
 1112 264 l 1,323,324
 1128 276 1128 276 1144 276 c 1,325,326
 1260 192 1260 192 1088 124 c 1,327,-1
 1076 112 l 1,328,-1
 1028 100 l 1,329,330
 976 96 976 96 940 80 c 1,331,332
 908 80 908 80 884 72 c 1,333,-1
 876 76 l 1,334,-1
 852 80 l 1,335,-1
 788 76 l 1,336,-1
 772 80 l 1,337,-1
 736 84 l 1,338,-1
 700 96 l 1,339,340
 672 96 672 96 650 106 c 128,-1,341
 628 116 628 116 600 120 c 2,342,-1
 568 124 l 1,343,344
 536 140 536 140 508 144 c 1,345,-1
 460 172 l 1,346,347
 376 188 376 188 328 236 c 1,348,349
 208 292 208 292 168 404 c 1,350,-1
 148 420 l 1,351,-1
 144 440 l 1,352,353
 44 612 44 612 72 788 c 0,354,355
 80 836 80 836 68 872 c 1,356,357
 76 904 76 904 76 928 c 1,358,359
 88 952 88 952 88 976 c 1,360,-1
 92 984 l 1,361,362
 100 1024 100 1024 120 1056 c 1,363,-1
 128 1100 l 1,364,-1
 144 1120 l 1,365,-1
 148 1136 l 1,366,-1
 156 1156 l 1,367,-1
 156 1168 l 1,368,369
 168 1184 168 1184 180 1216 c 2,370,-1
 188 1236 l 1,371,372
 216 1276 216 1276 228 1308 c 1,373,-1
 248 1332 l 1,374,-1
 272 1352 l 1,375,376
 280 1372 280 1372 292 1384 c 0,377,378
 320 1408 320 1408 340 1440 c 1,379,-1
 412 1488 l 1,380,381
 432 1512 432 1512 452 1524 c 1,382,-1
 464 1528 l 2,383,384
 484 1536 484 1536 496 1544 c 0,385,386
 520 1552 520 1552 536 1564 c 1,387,-1
 548 1564 l 1,388,-1
 664 1620 l 1,389,-1
 676 1624 l 2,390,391
 700 1632 700 1632 724 1632 c 1,392,-1
 756 1652 l 1,393,394
 788 1652 788 1652 808 1668 c 1,395,396
 844 1668 844 1668 872 1680 c 1,397,199
 924 1680 924 1680 968 1664 c 1,200,201
676 968 m 1,399,400
 508 700 508 700 756 648 c 1,401,402
 1036 664 1036 664 1100 928 c 1,403,-1
 1120 964 l 1,404,405
 1120 1120 1120 1120 924 1128 c 1,406,398
 764 1088 764 1088 676 968 c 1,399,400
1028 932 m 1,408,409
 1000 768 1000 768 840 732 c 1,410,411
 692 656 692 656 672 816 c 1,412,413
 732 1000 732 1000 900 1056 c 1,414,407
 1064 1072 1064 1072 1028 932 c 1,408,409
EndSplineSet
Validated: 41
Layer: 2
EndChar

StartChar: A
Encoding: 65 65 36
Width: 1590
Flags: W
LayerCount: 3
Back
Fore
SplineSet
864 1792 m 1,0,-1
 772 1788 l 1,1,-1
 756 1784 l 1,2,-1
 724 1780 l 2,3,4
 700 1776 700 1776 664 1772 c 2,5,-1
 636 1768 l 1,6,-1
 536 1764 l 1,7,8
 504 1776 504 1776 476 1776 c 1,9,-1
 464 1736 l 1,10,-1
 460 1700 l 1,11,-1
 456 1684 l 1,12,-1
 452 1668 l 1,13,-1
 432 1580 l 2,14,15
 432 1572 432 1572 428 1552 c 2,16,-1
 420 1520 l 1,17,18
 400 1472 400 1472 396 1436 c 1,19,-1
 372 1368 l 1,20,21
 364 1320 364 1320 352 1288 c 2,22,-1
 332 1228 l 1,23,-1
 328 1200 l 1,24,-1
 316 1160 l 1,25,26
 288 1088 288 1088 284 1040 c 1,27,-1
 280 1024 l 2,28,29
 268 992 268 992 264 972 c 1,30,31
 248 948 248 948 248 924 c 1,32,-1
 240 908 l 2,33,34
 232 884 232 884 232 868 c 1,35,-1
 224 856 l 1,36,-1
 212 824 l 1,37,-1
 212 800 l 1,38,39
 200 776 200 776 200 752 c 1,40,41
 184 724 184 724 184 700 c 1,42,-1
 172 676 l 1,43,-1
 156 604 l 1,44,-1
 148 588 l 1,45,-1
 148 576 l 1,46,47
 140 552 140 552 140 536 c 1,48,49
 124 500 124 500 122 474 c 128,-1,50
 120 448 120 448 114 434 c 128,-1,51
 108 420 108 420 104 416 c 2,52,-1
 100 400 l 1,53,-1
 88 368 l 2,54,55
 76 328 76 328 64 308 c 1,56,-1
 60 276 l 1,57,-1
 32 164 l 1,58,-1
 28 148 l 1,59,-1
 24 120 l 1,60,-1
 0 32 l 1,61,-1
 16 4 l 1,62,-1
 40 0 l 1,63,-1
 88 32 l 1,64,-1
 144 24 l 1,65,66
 248 44 248 44 332 16 c 1,67,68
 356 36 356 36 380 40 c 1,69,70
 384 76 384 76 360 104 c 1,71,-1
 364 116 l 1,72,-1
 376 144 l 1,73,74
 380 176 380 176 396 200 c 1,75,76
 396 236 396 236 404 272 c 2,77,-1
 408 300 l 1,78,-1
 420 340 l 1,79,-1
 424 356 l 1,80,-1
 428 372 l 2,81,82
 436 392 436 392 444 404 c 1,83,84
 452 484 452 484 484 540 c 1,85,-1
 500 540 l 1,86,-1
 512 548 l 1,87,-1
 528 548 l 1,88,-1
 548 556 l 1,89,90
 580 556 580 556 616 568 c 1,91,-1
 632 568 l 1,92,-1
 640 572 l 1,93,-1
 668 572 l 1,94,-1
 676 576 l 1,95,96
 704 576 704 576 724 580 c 1,97,-1
 760 580 l 1,98,-1
 800 588 l 1,99,100
 872 608 872 608 932 600 c 1,101,-1
 948 592 l 1,102,-1
 948 572 l 1,103,-1
 964 528 l 1,104,-1
 976 504 l 1,105,106
 996 448 996 448 1016 416 c 1,107,108
 1016 392 1016 392 1028 376 c 1,109,110
 1048 312 1048 312 1048 284 c 1,111,-1
 1056 276 l 1,112,-1
 1088 200 l 1,113,-1
 1084 188 l 1,114,115
 1096 152 1096 152 1092 124 c 1,116,-1
 1096 116 l 1,117,-1
 1136 72 l 1,118,119
 1176 64 1176 64 1208 84 c 1,120,121
 1236 84 1236 84 1256 88 c 1,122,-1
 1264 76 l 1,123,124
 1240 76 1240 76 1272 72 c 1,125,-1
 1292 76 l 1,126,-1
 1384 72 l 1,127,128
 1388 40 1388 40 1404 20 c 1,129,130
 1432 24 1432 24 1452 40 c 1,131,132
 1452 68 1452 68 1440 108 c 0,133,134
 1432 140 1432 140 1420 160 c 1,135,-1
 1404 224 l 1,136,-1
 1404 236 l 1,137,138
 1384 268 1384 268 1376 304 c 1,139,-1
 1376 316 l 1,140,141
 1364 348 1364 348 1360 400 c 1,142,143
 1352 408 1352 408 1352 416 c 0,144,145
 1344 464 1344 464 1332 492 c 1,146,-1
 1328 520 l 1,147,-1
 1320 548 l 1,148,-1
 1316 564 l 1,149,-1
 1312 580 l 1,150,-1
 1308 596 l 1,151,-1
 1300 624 l 1,152,-1
 1296 652 l 1,153,-1
 1288 676 l 1,154,-1
 1280 724 l 1,155,-1
 1276 748 l 1,156,-1
 1260 796 l 1,157,158
 1260 820 1260 820 1252 836 c 2,159,-1
 1240 880 l 2,160,161
 1236 908 1236 908 1228 928 c 0,162,163
 1216 980 1216 980 1200 1016 c 1,164,-1
 1196 1048 l 1,165,-1
 1180 1092 l 2,166,167
 1176 1112 1176 1112 1172 1128 c 1,168,-1
 1172 1152 l 1,169,-1
 1128 1292 l 1,170,-1
 1124 1312 l 1,171,-1
 1112 1368 l 1,172,-1
 1108 1384 l 1,173,-1
 1108 1404 l 1,174,-1
 1096 1424 l 1,175,-1
 1084 1460 l 1,176,-1
 1084 1476 l 1,177,-1
 1076 1492 l 1,178,179
 1072 1524 1072 1524 1060 1564 c 2,180,-1
 1032 1648 l 1,181,182
 1024 1692 1024 1692 1012 1720 c 1,183,-1
 1020 1740 l 1,184,185
 1072 1724 1072 1724 1076 1768 c 1,186,-1
 1068 1776 l 1,187,-1
 1024 1784 l 1,188,-1
 1000 1788 l 1,189,-1
 976 1796 l 1,190,-1
 968 1792 l 1,191,-1
 876 1796 l 1,192,-1
 864 1792 l 1,0,-1
948 1748 m 1,193,-1
 948 1732 l 1,194,-1
 976 1684 l 1,195,-1
 980 1668 l 1,196,-1
 984 1652 l 1,197,-1
 996 1620 l 1,198,199
 1000 1576 1000 1576 1020 1524 c 0,200,201
 1032 1484 1032 1484 1036 1456 c 1,202,-1
 1052 1416 l 1,203,-1
 1072 1336 l 1,204,-1
 1072 1320 l 1,205,206
 1092 1268 1092 1268 1092 1228 c 1,207,-1
 1108 1176 l 1,208,-1
 1116 1160 l 1,209,-1
 1140 1072 l 2,210,211
 1140 1060 1140 1060 1148 1040 c 1,212,213
 1152 1012 1152 1012 1164 980 c 1,214,215
 1172 940 1172 940 1184 912 c 1,216,-1
 1184 900 l 1,217,-1
 1212 800 l 1,218,219
 1216 764 1216 764 1224 736 c 0,220,221
 1240 696 1240 696 1244 664 c 0,222,223
 1252 620 1252 620 1260 596 c 1,224,-1
 1260 584 l 1,225,-1
 1288 452 l 1,226,-1
 1292 436 l 1,227,-1
 1296 420 l 2,228,229
 1296 404 1296 404 1300 380 c 2,230,-1
 1312 320 l 1,231,-1
 1324 292 l 1,232,-1
 1328 276 l 1,233,-1
 1336 256 l 2,234,235
 1364 184 1364 184 1372 136 c 1,236,-1
 1360 128 l 1,237,-1
 1316 128 l 1,238,-1
 1304 132 l 1,239,-1
 1248 132 l 1,240,241
 1204 136 1204 136 1176 132 c 1,242,-1
 1168 140 l 1,243,244
 1156 180 1156 180 1140 208 c 1,245,-1
 1136 224 l 2,246,247
 1124 256 1124 256 1112 276 c 1,248,-1
 1112 296 l 1,249,250
 1096 324 1096 324 1092 352 c 1,251,252
 1076 392 1076 392 1072 420 c 1,253,-1
 1068 432 l 1,254,-1
 1056 456 l 1,255,-1
 1040 480 l 1,256,257
 1028 512 1028 512 1024 536 c 1,258,-1
 1020 544 l 1,259,-1
 1004 568 l 1,260,-1
 1000 592 l 1,261,262
 988 620 988 620 984 640 c 1,263,264
 972 660 972 660 960 668 c 1,265,-1
 936 664 l 1,266,-1
 912 652 l 1,267,-1
 884 648 l 1,268,-1
 832 644 l 1,269,-1
 808 640 l 1,270,-1
 784 636 l 2,271,272
 744 632 744 632 716 624 c 2,273,-1
 660 616 l 1,274,-1
 644 612 l 1,275,-1
 616 608 l 1,276,-1
 592 608 l 1,277,-1
 580 604 l 1,278,-1
 556 604 l 1,279,-1
 540 600 l 1,280,281
 480 596 480 596 440 584 c 1,282,-1
 428 564 l 1,283,-1
 416 512 l 1,284,-1
 404 488 l 1,285,-1
 396 456 l 1,286,-1
 396 444 l 1,287,288
 384 416 384 416 380 392 c 1,289,290
 364 356 364 356 364 328 c 1,291,292
 352 296 352 296 348 252 c 2,293,-1
 344 228 l 1,294,-1
 336 216 l 1,295,-1
 332 188 l 1,296,-1
 300 88 l 1,297,-1
 276 80 l 1,298,299
 268 84 268 84 260 80 c 1,300,-1
 248 84 l 1,301,-1
 236 80 l 1,302,-1
 168 80 l 1,303,-1
 156 76 l 1,304,305
 116 88 116 88 80 84 c 1,306,-1
 76 92 l 1,307,-1
 88 172 l 1,308,-1
 92 188 l 1,309,-1
 100 208 l 1,310,-1
 100 224 l 1,311,-1
 112 260 l 2,312,313
 116 284 116 284 120 288 c 1,314,-1
 120 300 l 1,315,-1
 136 344 l 1,316,-1
 148 368 l 1,317,318
 156 412 156 412 172 440 c 2,319,-1
 176 448 l 1,320,-1
 180 476 l 1,321,-1
 196 564 l 2,322,323
 204 600 204 600 216 628 c 1,324,-1
 216 640 l 1,325,-1
 240 708 l 1,326,-1
 244 716 l 1,327,328
 248 760 248 760 260 788 c 1,329,-1
 264 812 l 1,330,-1
 276 844 l 1,331,-1
 284 864 l 1,332,-1
 284 876 l 1,333,334
 300 912 300 912 304 940 c 1,335,-1
 316 968 l 1,336,-1
 340 1056 l 1,337,-1
 344 1076 l 1,338,-1
 384 1212 l 1,339,340
 392 1260 392 1260 404 1292 c 1,341,342
 408 1324 408 1324 420 1344 c 1,343,-1
 436 1408 l 2,344,345
 444 1456 444 1456 460 1488 c 1,346,-1
 480 1576 l 1,347,348
 488 1656 488 1656 520 1712 c 1,349,350
 556 1724 556 1724 584 1708 c 1,351,-1
 600 1720 l 1,352,353
 624 1720 624 1720 664 1728 c 1,354,-1
 692 1728 l 1,355,356
 704 1732 704 1732 732 1736 c 2,357,-1
 760 1740 l 1,358,-1
 788 1744 l 1,359,360
 832 1744 832 1744 860 1752 c 1,361,-1
 948 1748 l 1,193,-1
688 1444 m 1,362,363
 688 1384 688 1384 680 1356 c 0,364,365
 668 1308 668 1308 660 1292 c 2,366,-1
 652 1268 l 2,367,368
 640 1232 640 1232 636 1204 c 1,369,-1
 632 1192 l 1,370,371
 620 1172 620 1172 620 1160 c 1,372,-1
 608 1140 l 1,373,-1
 584 1080 l 1,374,-1
 584 1068 l 1,375,376
 576 1032 576 1032 576 1004 c 1,377,378
 564 976 564 976 560 952 c 1,379,-1
 540 908 l 1,380,381
 536 864 536 864 520 836 c 1,382,-1
 524 816 l 1,383,384
 536 804 536 804 546 800 c 128,-1,385
 556 796 556 796 568 800 c 2,386,-1
 588 808 l 1,387,-1
 600 800 l 1,388,-1
 620 800 l 1,389,390
 664 808 664 808 692 800 c 1,391,392
 716 808 716 808 736 808 c 2,393,-1
 852 816 l 1,394,-1
 892 800 l 1,395,-1
 916 836 l 1,396,397
 884 904 884 904 876 956 c 1,398,-1
 804 1152 l 1,399,400
 800 1192 800 1192 792 1220 c 2,401,-1
 788 1236 l 1,402,-1
 780 1280 l 1,403,-1
 776 1296 l 1,404,-1
 752 1452 l 1,405,406
 728 1468 728 1468 708 1468 c 1,407,-1
 688 1444 l 1,362,363
732 1276 m 1,408,-1
 744 1220 l 1,409,-1
 748 1204 l 1,410,-1
 760 1136 l 1,411,-1
 768 1116 l 1,412,-1
 788 1040 l 1,413,-1
 792 1012 l 1,414,-1
 804 988 l 1,415,-1
 836 864 l 1,416,417
 704 832 704 832 592 860 c 1,418,-1
 596 880 l 1,419,-1
 604 904 l 2,420,421
 608 916 608 916 612 920 c 0,422,423
 616 956 616 956 628 984 c 1,424,-1
 628 996 l 1,425,426
 636 1024 636 1024 644 1040 c 1,427,428
 644 1080 644 1080 658 1110 c 128,-1,429
 672 1140 672 1140 674 1162 c 128,-1,430
 676 1184 676 1184 688 1200 c 1,431,-1
 692 1228 l 1,432,433
 712 1280 712 1280 720 1316 c 1,434,-1
 732 1276 l 1,408,-1
EndSplineSet
Validated: 41
Layer: 2
EndChar

StartChar: B
Encoding: 66 66 37
Width: 1175
Flags: W
LayerCount: 3
Back
Fore
SplineSet
16 1167 m 1,0,1
 12 1122 12 1122 16 1091 c 1,2,-1
 12 1064 l 1,3,-1
 12 1038 l 1,4,-1
 8 1022 l 1,5,-1
 8 980 l 1,6,7
 16 934 16 934 12 904 c 1,8,-1
 16 892 l 1,9,10
 12 870 12 870 16 850 c 1,11,12
 4 808 4 808 12 774 c 1,13,-1
 8 755 l 1,14,-1
 8 495 l 1,15,-1
 4 488 l 1,16,-1
 4 400 l 1,17,-1
 0 392 l 1,18,-1
 8 270 l 1,19,20
 0 197 0 197 4 110 c 1,21,-1
 0 102 l 1,22,-1
 12 83 l 1,23,-1
 12 -5 l 1,24,-1
 20 -1 l 1,25,-1
 20 79 l 1,26,27
 52 75 52 75 72 90 c 1,28,-1
 100 90 l 1,29,-1
 112 87 l 1,30,-1
 240 90 l 1,31,-1
 268 83 l 1,32,33
 344 83 344 83 372 75 c 1,34,-1
 404 83 l 1,35,36
 460 75 460 75 500 90 c 1,37,38
 876 94 876 94 1016 404 c 1,39,40
 1172 690 1172 690 900 957 c 1,41,42
 868 969 868 969 852 984 c 1,43,44
 824 996 824 996 804 1011 c 1,45,46
 764 1019 764 1019 744 1038 c 1,47,48
 912 1190 912 1190 912 1385 c 1,49,50
 920 1542 920 1542 828 1649 c 1,51,52
 804 1714 804 1714 764 1756 c 1,53,-1
 744 1759 l 1,54,-1
 712 1767 l 1,55,56
 684 1767 684 1767 664 1779 c 1,57,-1
 644 1782 l 1,58,-1
 608 1794 l 1,59,-1
 600 1790 l 1,60,61
 572 1798 572 1798 548 1794 c 1,62,-1
 532 1798 l 2,63,64
 516 1805 516 1805 500 1801 c 1,65,-1
 488 1805 l 2,66,67
 460 1817 460 1817 416 1821 c 1,68,69
 380 1813 380 1813 352 1817 c 0,70,71
 304 1821 304 1821 264 1809 c 1,72,-1
 256 1813 l 1,73,-1
 156 1821 l 1,74,-1
 148 1824 l 1,75,-1
 140 1821 l 1,76,-1
 104 1821 l 1,77,-1
 56 1813 l 1,78,79
 48 1801 48 1801 44 1779 c 1,80,81
 52 1710 52 1710 44 1664 c 1,82,-1
 44 1645 l 1,83,84
 48 1607 48 1607 40 1580 c 1,85,-1
 40 1565 l 1,86,-1
 44 1523 l 1,87,-1
 44 1458 l 1,88,-1
 40 1416 l 1,89,-1
 28 1374 l 1,90,-1
 28 1347 l 1,91,92
 24 1305 24 1305 24 1278 c 2,93,-1
 20 1305 l 1,94,-1
 20 1412 l 2,95,96
 20 1442 20 1442 24 1465 c 1,97,-1
 24 1737 l 1,98,99
 32 1828 32 1828 16 1885 c 1,100,-1
 16 1167 l 1,0,1
168 1767 m 1,101,102
 220 1763 220 1763 260 1752 c 1,103,-1
 284 1752 l 1,104,-1
 300 1759 l 1,105,106
 348 1752 348 1752 392 1763 c 1,107,108
 416 1759 416 1759 432 1752 c 1,109,110
 464 1752 464 1752 484 1756 c 1,111,112
 508 1744 508 1744 528 1744 c 1,113,-1
 540 1748 l 1,114,-1
 552 1744 l 1,115,116
 572 1744 572 1744 582 1740.5 c 128,-1,117
 592 1737 592 1737 596 1733 c 2,118,-1
 628 1725 l 1,119,120
 688 1721 688 1721 732 1698 c 1,121,122
 752 1679 752 1679 760 1668 c 0,123,124
 776 1641 776 1641 780 1622 c 1,125,126
 796 1595 796 1595 812 1580 c 1,127,128
 820 1557 820 1557 840 1538 c 1,129,130
 848 1507 848 1507 860 1484 c 1,131,-1
 852 1458 l 1,132,133
 880 1267 880 1267 752 1141 c 1,134,-1
 748 1133 l 1,135,136
 708 1080 708 1080 672 1049 c 1,137,138
 624 1045 624 1045 588 1022 c 1,139,-1
 596 988 l 1,140,-1
 620 969 l 1,141,142
 852 1003 852 1003 952 793 c 1,143,144
 1060 629 1060 629 984 469 c 0,145,146
 964 419 964 419 928 388 c 1,147,148
 760 106 760 106 420 152 c 1,149,-1
 384 132 l 1,150,-1
 352 140 l 1,151,152
 284 129 284 129 228 144 c 1,153,154
 136 129 136 129 64 152 c 1,155,-1
 60 247 l 1,156,-1
 56 255 l 1,157,-1
 60 323 l 2,158,159
 60 362 60 362 52 388 c 1,160,-1
 52 472 l 1,161,-1
 56 488 l 1,162,-1
 60 541 l 1,163,-1
 60 610 l 1,164,165
 56 621 56 621 58 630.5 c 128,-1,166
 60 640 60 640 56 652 c 1,167,-1
 60 778 l 1,168,-1
 64 789 l 1,169,-1
 64 858 l 1,170,171
 60 885 60 885 60 900 c 2,172,-1
 60 1080 l 1,173,174
 64 1114 64 1114 60 1141 c 1,175,176
 68 1171 68 1171 64 1194 c 1,177,178
 68 1202 68 1202 72 1221 c 2,179,-1
 76 1336 l 1,180,-1
 80 1358 l 2,181,182
 92 1420 92 1420 92 1462 c 1,183,-1
 96 1496 l 1,184,-1
 88 1511 l 1,185,-1
 88 1607 l 1,186,187
 96 1633 96 1633 88 1656 c 1,188,189
 96 1691 96 1691 92 1717 c 1,190,191
 112 1767 112 1767 160 1771 c 1,192,-1
 168 1767 l 1,101,102
388 1626 m 0,194,195
 356 1622 356 1622 340 1626 c 1,196,-1
 328 1622 l 1,197,198
 276 1633 276 1633 236 1622 c 1,199,200
 236 1588 236 1588 228 1561 c 1,201,202
 240 1530 240 1530 240 1504 c 1,203,204
 224 1454 224 1454 240 1420 c 1,205,-1
 224 1381 l 1,206,-1
 228 1370 l 1,207,-1
 228 1324 l 1,208,209
 220 1301 220 1301 224 1282 c 1,210,-1
 212 1198 l 1,211,212
 224 1183 224 1183 244 1171 c 1,213,214
 272 1175 272 1175 292 1187 c 1,215,216
 380 1171 380 1171 444 1209 c 1,217,218
 596 1217 596 1217 648 1351 c 1,219,220
 660 1610 660 1610 416 1633 c 0,221,193
 408 1630 408 1630 388 1626 c 0,194,195
380 1568 m 1,222,223
 572 1591 572 1591 588 1408 c 1,224,225
 576 1236 576 1236 288 1248 c 1,226,227
 280 1309 280 1309 292 1355 c 1,228,-1
 292 1370 l 2,229,230
 292 1378 292 1378 288 1397 c 1,231,-1
 292 1427 l 1,232,-1
 296 1507 l 1,233,-1
 316 1534 l 1,234,-1
 316 1561 l 1,235,236
 332 1572 332 1572 348 1576 c 1,237,-1
 380 1568 l 1,222,223
508 847 m 1,238,-1
 472 850 l 1,239,-1
 456 847 l 1,240,-1
 320 847 l 1,241,242
 292 824 292 824 264 816 c 1,243,-1
 260 793 l 1,244,245
 268 751 268 751 268 721 c 2,246,-1
 268 705 l 1,247,-1
 272 679 l 1,248,-1
 276 595 l 1,249,250
 268 560 268 560 276 533 c 1,251,-1
 272 526 l 1,252,-1
 276 514 l 1,253,-1
 272 507 l 1,254,255
 260 446 260 446 264 404 c 1,256,-1
 268 388 l 1,257,-1
 264 377 l 1,258,-1
 264 350 l 1,259,260
 268 335 268 335 268 312 c 0,261,262
 264 285 264 285 264 266 c 1,263,-1
 292 243 l 1,264,-1
 336 255 l 1,265,266
 368 255 368 255 392 259 c 2,267,-1
 452 262 l 1,268,269
 768 255 768 255 832 522 c 1,270,271
 860 850 860 850 520 854 c 1,272,-1
 508 847 l 1,238,-1
444 797 m 1,273,-1
 496 793 l 1,274,275
 692 824 692 824 768 675 c 1,276,277
 804 526 804 526 724 411 c 1,278,279
 596 297 596 297 388 316 c 1,280,281
 356 304 356 304 328 308 c 1,282,-1
 324 327 l 2,283,284
 308 404 308 404 328 469 c 1,285,-1
 328 495 l 1,286,-1
 324 507 l 1,287,-1
 324 598 l 1,288,-1
 320 640 l 1,289,-1
 316 728 l 1,290,291
 320 751 320 751 328 766 c 1,292,293
 380 797 380 797 432 801 c 1,294,-1
 444 797 l 1,273,-1
EndSplineSet
Validated: 41
Layer: 2
EndChar

StartChar: C
Encoding: 67 67 38
Width: 1180
Flags: W
LayerCount: 3
Back
Fore
SplineSet
448 1793 m 1,1,-1
 440 1785 l 1,2,3
 400 1764 400 1764 388 1751 c 1,4,5
 340 1726 340 1726 308 1701 c 1,6,7
 288 1692 288 1692 276 1684 c 1,8,-1
 248 1646 l 1,9,10
 212 1625 212 1625 200 1596 c 1,11,-1
 176 1579 l 1,12,-1
 156 1541 l 1,13,14
 144 1507 144 1507 132 1486 c 2,15,-1
 108 1436 l 1,16,17
 108 1419 108 1419 104 1393 c 1,18,-1
 88 1347 l 1,19,-1
 76 1318 l 1,20,21
 68 1263 68 1263 44 1229 c 1,22,-1
 40 1196 l 1,23,-1
 36 1174 l 1,24,-1
 28 1120 l 1,25,-1
 28 1065 l 1,26,27
 24 1019 24 1019 24 989 c 1,28,-1
 12 943 l 1,29,-1
 16 934 l 1,30,-1
 16 838 l 1,31,-1
 8 800 l 1,32,-1
 12 724 l 1,33,34
 0 690 0 690 0 661 c 1,35,-1
 4 640 l 1,36,-1
 4 568 l 1,37,-1
 8 551 l 1,38,39
 8 526 8 526 16 505 c 1,40,-1
 12 480 l 1,41,-1
 12 442 l 1,42,-1
 24 400 l 1,43,-1
 20 387 l 1,44,45
 32 353 32 353 32 324 c 1,46,-1
 48 299 l 1,47,-1
 60 282 l 1,48,49
 80 244 80 244 108 223 c 1,50,51
 140 151 140 151 188 118 c 1,52,53
 216 54 216 54 272 29 c 1,54,-1
 296 4 l 1,55,-1
 308 4 l 1,56,-1
 336 0 l 1,57,58
 360 4 360 4 376 4 c 2,59,-1
 420 4 l 1,60,-1
 452 0 l 1,61,-1
 476 4 l 1,62,-1
 500 8 l 1,63,64
 528 4 528 4 552 12 c 2,65,-1
 596 33 l 1,66,-1
 648 33 l 1,67,-1
 672 46 l 1,68,-1
 696 50 l 1,69,-1
 724 63 l 1,70,-1
 732 71 l 1,71,72
 856 122 856 122 948 223 c 1,73,74
 964 261 964 261 984 286 c 1,75,-1
 984 307 l 1,76,-1
 988 316 l 2,77,78
 1012 379 1012 379 1012 433 c 1,79,80
 1032 467 1032 467 1036 501 c 2,81,-1
 1040 547 l 1,82,-1
 1040 593 l 1,83,-1
 1036 606 l 1,84,-1
 1036 652 l 1,85,86
 1032 673 1032 673 1036 694 c 1,87,-1
 1032 728 l 1,88,89
 1040 753 1040 753 1040 774 c 1,90,-1
 1024 804 l 1,91,92
 952 821 952 821 896 774 c 1,93,94
 824 770 824 770 776 753 c 1,95,96
 768 737 768 737 768 720 c 0,97,98
 772 690 772 690 764 669 c 1,99,100
 752 227 752 227 416 353 c 1,101,-1
 400 366 l 1,102,-1
 348 408 l 1,103,-1
 348 421 l 1,104,105
 316 513 316 513 332 598 c 1,106,107
 324 636 324 636 328 665 c 1,108,-1
 316 728 l 1,109,-1
 316 741 l 1,110,111
 320 766 320 766 316 783 c 1,112,-1
 316 808 l 1,113,-1
 320 821 l 1,114,115
 320 863 320 863 328 897 c 1,116,-1
 324 905 l 1,117,-1
 332 1057 l 1,118,-1
 340 1082 l 1,119,-1
 340 1094 l 1,120,121
 352 1128 352 1128 352 1153 c 1,122,-1
 388 1263 l 1,123,-1
 448 1334 l 1,124,125
 532 1381 532 1381 616 1372 c 1,126,127
 672 1347 672 1347 704 1322 c 1,128,129
 760 1238 760 1238 756 1145 c 1,130,-1
 772 1132 l 1,131,-1
 796 1132 l 1,132,-1
 804 1137 l 1,133,-1
 868 1145 l 2,134,135
 896 1145 896 1145 924 1149 c 2,136,-1
 976 1162 l 1,137,-1
 1000 1145 l 1,138,139
 1028 1145 1028 1145 1044 1162 c 1,140,-1
 1044 1208 l 1,141,142
 1036 1259 1036 1259 1048 1301 c 1,143,144
 1044 1334 1044 1334 1048 1360 c 1,145,-1
 1044 1377 l 1,146,-1
 1040 1398 l 1,147,-1
 1036 1414 l 1,148,-1
 1028 1431 l 1,149,-1
 1028 1444 l 1,150,-1
 1008 1473 l 1,151,-1
 1000 1490 l 1,152,-1
 1000 1503 l 1,153,-1
 980 1549 l 2,154,155
 960 1587 960 1587 952 1621 c 1,156,157
 932 1633 932 1633 916 1659 c 1,158,159
 880 1684 880 1684 860 1718 c 1,160,-1
 824 1739 l 1,161,-1
 812 1743 l 1,162,-1
 788 1756 l 2,163,164
 772 1768 772 1768 752 1768 c 1,165,166
 736 1781 736 1781 708 1789 c 1,167,-1
 692 1789 l 1,168,-1
 652 1798 l 1,169,-1
 512 1802 l 1,170,0
 476 1793 476 1793 448 1793 c 1,1,-1
592 1739 m 1,172,-1
 636 1730 l 1,173,174
 688 1697 688 1697 736 1697 c 1,175,176
 780 1667 780 1667 824 1667 c 1,177,178
 848 1646 848 1646 856 1621 c 2,179,-1
 864 1604 l 1,180,-1
 872 1596 l 1,181,182
 896 1562 896 1562 916 1545 c 1,183,-1
 928 1524 l 2,184,185
 940 1499 940 1499 944 1478 c 1,186,187
 968 1452 968 1452 980 1431 c 1,188,189
 984 1385 984 1385 996 1356 c 1,190,-1
 988 1301 l 1,191,192
 992 1250 992 1250 984 1217 c 1,193,-1
 976 1208 l 1,194,-1
 960 1204 l 2,195,196
 936 1196 936 1196 912 1200 c 1,197,-1
 896 1191 l 1,198,-1
 872 1191 l 1,199,200
 848 1183 848 1183 824 1183 c 1,201,202
 720 1545 720 1545 408 1385 c 1,203,-1
 392 1368 l 1,204,205
 380 1364 380 1364 376 1356 c 0,206,207
 360 1326 360 1326 340 1309 c 1,208,209
 312 1212 312 1212 308 1145 c 1,210,211
 288 1103 288 1103 280 1031 c 2,212,-1
 272 960 l 1,213,-1
 272 913 l 1,214,-1
 268 901 l 1,215,-1
 268 867 l 2,216,217
 268 817 268 817 264 783 c 1,218,-1
 268 770 l 1,219,220
 264 699 264 699 268 669 c 2,221,-1
 272 648 l 1,222,-1
 272 581 l 1,223,-1
 276 568 l 1,224,-1
 280 438 l 1,225,-1
 292 412 l 2,226,227
 308 374 308 374 324 349 c 1,228,229
 472 231 472 231 620 282 c 1,230,-1
 672 282 l 1,231,-1
 680 294 l 1,232,-1
 688 299 l 1,233,-1
 712 320 l 1,234,-1
 720 337 l 1,235,-1
 728 345 l 1,236,-1
 740 362 l 1,237,-1
 768 404 l 1,238,239
 780 433 780 433 796 454 c 1,240,-1
 800 484 l 1,241,-1
 800 501 l 1,242,-1
 812 539 l 1,243,-1
 816 606 l 1,244,-1
 828 665 l 1,245,246
 824 690 824 690 828 711 c 1,247,248
 908 753 908 753 980 728 c 1,249,250
 1004 429 1004 429 868 236 c 1,251,252
 796 177 796 177 728 156 c 1,253,-1
 704 130 l 1,254,-1
 684 130 l 1,255,256
 656 109 656 109 644 105 c 2,257,-1
 604 88 l 1,258,259
 568 92 568 92 540 88 c 0,260,261
 400 54 400 54 280 101 c 1,262,263
 200 164 200 164 164 231 c 1,264,-1
 148 257 l 1,265,266
 124 282 124 282 116 307 c 1,267,-1
 96 332 l 1,268,269
 88 362 88 362 76 379 c 1,270,-1
 72 396 l 1,271,-1
 64 454 l 1,272,-1
 64 467 l 1,273,-1
 68 488 l 1,274,-1
 60 497 l 1,275,-1
 60 530 l 1,276,-1
 56 543 l 1,277,278
 64 581 64 581 56 614 c 1,279,280
 60 627 60 627 56 640 c 1,281,-1
 60 665 l 1,282,-1
 52 686 l 1,283,-1
 60 711 l 1,284,285
 60 745 60 745 64 791 c 0,286,287
 68 850 68 850 64 888 c 1,288,289
 68 901 68 901 72 922 c 1,290,291
 68 968 68 968 76 1002 c 128,-1,292
 84 1036 84 1036 80 1061 c 1,293,-1
 84 1120 l 1,294,295
 92 1162 92 1162 92 1187 c 1,296,297
 108 1246 108 1246 128 1280 c 1,298,-1
 144 1326 l 1,299,300
 160 1427 160 1427 200 1503 c 1,301,302
 344 1697 344 1697 544 1739 c 1,303,171
 572 1730 572 1730 592 1739 c 1,172,-1
EndSplineSet
Validated: 41
Layer: 2
EndChar

StartChar: D
Encoding: 68 68 39
Width: 1220
Flags: W
LayerCount: 3
Back
Fore
SplineSet
178 1764 m 1,1,2
 101 1744 101 1744 34 1752 c 1,3,-1
 24 1744 l 1,4,-1
 0 1724 l 1,5,6
 5 1700 5 1700 29 1684 c 1,7,8
 24 1668 24 1668 29 1656 c 1,9,10
 24 1644 24 1644 29 1632 c 1,11,-1
 29 1564 l 1,12,-1
 24 1552 l 1,13,-1
 24 1524 l 1,14,-1
 29 1512 l 1,15,-1
 24 1500 l 1,16,-1
 24 1372 l 2,17,18
 24 1340 24 1340 19 1320 c 1,19,-1
 24 1292 l 1,20,21
 19 1204 19 1204 19 1176 c 1,22,-1
 24 1168 l 1,23,-1
 19 1160 l 1,24,-1
 34 964 l 1,25,26
 29 928 29 928 29 900 c 2,27,-1
 29 832 l 1,28,-1
 24 788 l 1,29,-1
 29 764 l 1,30,-1
 24 748 l 1,31,-1
 29 732 l 1,32,-1
 24 712 l 1,33,34
 24 676 24 676 19 648 c 1,35,-1
 24 636 l 1,36,-1
 24 608 l 1,37,-1
 34 580 l 1,38,39
 29 520 29 520 34 480 c 1,40,41
 24 444 24 444 26.5 414 c 128,-1,42
 29 384 29 384 26.5 362 c 128,-1,43
 24 340 24 340 14 320 c 1,44,-1
 19 308 l 1,45,-1
 10 288 l 1,46,47
 10 256 10 256 5 236 c 1,48,-1
 10 220 l 1,49,-1
 5 196 l 1,50,-1
 10 184 l 1,51,-1
 5 168 l 1,52,-1
 5 112 l 1,53,-1
 0 104 l 1,54,-1
 0 40 l 1,55,56
 29 16 29 16 67 24 c 1,57,58
 91 8 91 8 115 0 c 1,59,60
 130 20 130 20 130 40 c 1,61,-1
 154 44 l 2,62,63
 202 48 202 48 235 44 c 1,64,-1
 293 56 l 1,65,-1
 403 60 l 1,66,-1
 413 56 l 1,67,68
 451 52 451 52 480 60 c 1,69,70
 523 52 523 52 562 60 c 1,71,72
 758 68 758 68 878 184 c 1,73,-1
 893 204 l 1,74,-1
 898 220 l 1,75,-1
 955 312 l 1,76,77
 984 348 984 348 994 380 c 1,78,79
 994 428 994 428 1013 460 c 1,80,81
 1008 544 1008 544 1042 608 c 1,82,-1
 1037 720 l 2,83,84
 1032 764 1032 764 1051 796 c 1,85,-1
 1051 816 l 1,86,87
 1046 844 1046 844 1056 868 c 1,88,89
 1056 892 1056 892 1046 908 c 1,90,-1
 1056 920 l 1,91,92
 1056 952 1056 952 1061 976 c 0,93,94
 1061 988 1061 988 1066 992 c 1,95,-1
 1061 1004 l 1,96,-1
 1061 1028 l 1,97,-1
 1066 1044 l 1,98,-1
 1066 1116 l 1,99,100
 1075 1140 1075 1140 1075 1160 c 1,101,102
 1061 1176 1061 1176 1061 1192 c 1,103,-1
 1056 1200 l 1,104,-1
 1046 1224 l 1,105,106
 1042 1260 1042 1260 1022 1288 c 1,107,108
 1022 1312 1022 1312 1018 1328 c 2,109,-1
 965 1456 l 1,110,-1
 960 1464 l 1,111,-1
 898 1544 l 1,112,113
 883 1548 883 1548 878 1552 c 0,114,115
 802 1664 802 1664 691 1724 c 1,116,-1
 667 1724 l 1,117,-1
 662 1732 l 1,118,119
 624 1724 624 1724 590 1732 c 2,120,-1
 514 1756 l 1,121,-1
 490 1756 l 1,122,123
 437 1772 437 1772 394 1768 c 1,124,125
 341 1776 341 1776 302 1776 c 1,126,0
 235 1756 235 1756 178 1764 c 1,1,2
365 1724 m 1,127,-1
 427 1716 l 1,128,-1
 442 1720 l 1,129,-1
 490 1708 l 1,130,131
 514 1708 514 1708 533 1696 c 1,132,133
 552 1696 552 1696 581 1688 c 1,134,-1
 619 1684 l 1,135,136
 648 1668 648 1668 672 1664 c 1,137,138
 701 1644 701 1644 725 1636 c 1,139,-1
 734 1624 l 1,140,141
 744 1620 744 1620 758 1600 c 1,142,-1
 821 1536 l 1,143,144
 845 1492 845 1492 878 1468 c 1,145,146
 893 1436 893 1436 907 1416 c 2,147,-1
 946 1340 l 1,148,149
 960 1276 960 1276 984 1236 c 1,150,-1
 984 1192 l 1,151,152
 994 1160 994 1160 994 1136 c 2,153,-1
 994 996 l 1,154,155
 989 952 989 952 979 928 c 1,156,157
 989 896 989 896 984 868 c 1,158,-1
 989 860 l 1,159,-1
 984 852 l 1,160,-1
 965 736 l 1,161,-1
 965 656 l 1,162,-1
 960 648 l 1,163,-1
 950 584 l 1,164,-1
 950 544 l 1,165,-1
 946 536 l 1,166,167
 946 508 946 508 941 464 c 1,168,169
 926 432 926 432 922 408 c 1,170,-1
 917 400 l 1,171,172
 898 348 898 348 869 316 c 1,173,-1
 869 292 l 1,174,175
 821 208 821 208 744 164 c 1,176,177
 715 156 715 156 696 144 c 1,178,-1
 634 140 l 1,179,-1
 600 128 l 1,180,-1
 586 128 l 1,181,-1
 552 120 l 1,182,183
 499 120 499 120 480 116 c 1,184,-1
 398 116 l 1,185,-1
 379 112 l 1,186,187
 350 116 350 116 307 112 c 0,188,189
 283 108 283 108 259 108 c 1,190,-1
 226 100 l 1,191,-1
 173 100 l 1,192,193
 144 92 144 92 120 92 c 1,194,195
 91 100 91 100 72 116 c 1,196,-1
 77 124 l 1,197,-1
 72 160 l 1,198,-1
 72 192 l 1,199,-1
 82 204 l 1,200,-1
 77 232 l 1,201,202
 82 260 82 260 91 280 c 1,203,-1
 86 332 l 1,204,-1
 91 340 l 1,205,-1
 86 352 l 1,206,207
 91 384 91 384 86 404 c 1,208,-1
 91 432 l 2,209,210
 91 452 91 452 96 464 c 1,211,-1
 91 592 l 1,212,-1
 96 604 l 1,213,214
 86 648 86 648 91 680 c 1,215,-1
 91 748 l 1,216,217
 86 784 86 784 96 812 c 1,218,-1
 91 836 l 1,219,-1
 91 920 l 1,220,-1
 86 928 l 1,221,-1
 91 940 l 1,222,-1
 96 1060 l 1,223,-1
 91 1072 l 1,224,-1
 91 1096 l 1,225,-1
 86 1128 l 1,226,-1
 82 1136 l 1,227,-1
 82 1212 l 1,228,-1
 86 1236 l 1,229,-1
 86 1424 l 1,230,231
 91 1468 91 1468 86 1496 c 1,232,-1
 86 1592 l 1,233,234
 82 1652 82 1652 86 1692 c 1,235,-1
 106 1696 l 1,236,-1
 163 1696 l 1,237,-1
 197 1704 l 2,238,239
 221 1708 221 1708 245 1712 c 1,240,241
 307 1712 307 1712 350 1724 c 1,242,-1
 365 1724 l 1,127,-1
246.5 1458 m 128,-1,244
 244 1444 244 1444 254 1424 c 1,245,-1
 249 1372 l 1,246,247
 259 1324 259 1324 244 1284 c 1,248,-1
 249 1268 l 1,249,-1
 254 1244 l 1,250,251
 249 1196 249 1196 259 1164 c 1,252,-1
 259 1124 l 1,253,-1
 263 1104 l 1,254,-1
 259 1056 l 1,255,-1
 263 1028 l 1,256,257
 259 1008 259 1008 263 1000 c 1,258,-1
 263 968 l 1,259,-1
 259 956 l 1,260,-1
 259 888 l 1,261,-1
 263 860 l 1,262,-1
 263 788 l 1,263,264
 254 744 254 744 259 712 c 1,265,-1
 254 680 l 1,266,267
 259 660 259 660 254 648 c 1,268,269
 259 580 259 580 244 536 c 1,270,271
 249 528 249 528 259 528 c 1,272,-1
 249 512 l 1,273,-1
 249 480 l 1,274,-1
 244 464 l 1,275,-1
 244 408 l 1,276,277
 220 356 220 356 225 312 c 1,278,-1
 235 308 l 1,279,-1
 273 284 l 1,280,-1
 287 284 l 1,281,-1
 331 304 l 1,282,283
 359 304 359 304 379 312 c 0,284,285
 417 320 417 320 441 336 c 1,286,287
 479 340 479 340 503 348 c 2,288,-1
 518 352 l 1,289,290
 556 376 556 376 590 384 c 1,291,-1
 657 448 l 1,292,293
 667 472 667 472 671 476 c 2,294,-1
 695 528 l 1,295,296
 705 560 705 560 719 580 c 1,297,-1
 715 608 l 2,298,299
 715 636 715 636 724 664 c 1,300,-1
 724 736 l 1,301,-1
 729 756 l 1,302,-1
 734 796 l 1,303,-1
 734 892 l 1,304,-1
 739 908 l 1,305,-1
 739 924 l 1,306,-1
 743 968 l 1,307,-1
 739 988 l 1,308,-1
 743 1000 l 1,309,-1
 743 1040 l 2,310,311
 743 1060 743 1060 748 1072 c 1,312,-1
 743 1088 l 1,313,314
 748 1128 748 1128 743 1156 c 2,315,-1
 739 1192 l 1,316,-1
 691 1332 l 1,317,318
 671 1360 671 1360 652 1376 c 1,319,320
 628 1408 628 1408 604 1428 c 1,321,322
 571 1436 571 1436 547 1456 c 1,323,324
 532 1456 532 1456 527 1460 c 1,325,-1
 513 1460 l 1,326,327
 470 1472 470 1472 431 1464 c 1,328,329
 403 1468 403 1468 376.5 1468 c 128,-1,330
 350 1468 350 1468 331 1472 c 1,331,332
 297 1488 297 1488 263 1488 c 1,333,243
 249 1472 249 1472 246.5 1458 c 128,-1,244
355 1416 m 1,334,-1
 407 1404 l 1,335,336
 489 1412 489 1412 547 1392 c 1,337,-1
 566 1372 l 1,338,339
 599 1352 599 1352 623 1320 c 1,340,341
 691 1184 691 1184 676 1056 c 1,342,-1
 676 1000 l 1,343,344
 681 964 681 964 671 936 c 1,345,-1
 676 912 l 1,346,347
 667 888 667 888 667 868 c 0,348,349
 662 800 662 800 662 774 c 128,-1,350
 662 748 662 748 657 728 c 1,351,-1
 657 684 l 1,352,-1
 652 660 l 1,353,354
 652 624 652 624 647 596 c 1,355,-1
 633 568 l 1,356,357
 623 532 623 532 609 504 c 1,358,359
 489 388 489 388 326 360 c 1,360,-1
 311 368 l 1,361,-1
 307 388 l 1,362,363
 316 424 316 424 316 452 c 1,364,-1
 321 464 l 1,365,-1
 316 600 l 1,366,367
 326 640 326 640 326 668 c 2,368,-1
 321 840 l 1,369,370
 331 860 331 860 321 876 c 1,371,-1
 321 888 l 2,372,373
 321 916 321 916 326 936 c 1,374,-1
 321 980 l 1,375,-1
 326 988 l 1,376,377
 321 1020 321 1020 326 1048 c 1,378,-1
 326 1104 l 1,379,-1
 321 1112 l 1,380,381
 326 1140 326 1140 321 1160 c 0,382,383
 316 1196 316 1196 321 1224 c 1,384,385
 311 1256 311 1256 311 1280 c 128,-1,386
 311 1304 311 1304 321 1320 c 1,387,388
 307 1376 307 1376 335 1416 c 1,389,-1
 355 1416 l 1,334,-1
EndSplineSet
Validated: 41
Layer: 2
EndChar

StartChar: E
Encoding: 69 69 40
Width: 1190
Flags: W
LayerCount: 3
Back
Fore
SplineSet
908 1812 m 1,1,2
 896 1816 896 1816 876 1816 c 2,3,-1
 844 1812 l 2,4,5
 796 1808 796 1808 764 1796 c 1,6,7
 740 1796 740 1796 704 1788 c 1,8,-1
 692 1792 l 1,9,-1
 660 1788 l 1,10,-1
 576 1788 l 1,11,12
 524 1784 524 1784 488 1772 c 1,13,-1
 404 1772 l 1,14,15
 316 1752 316 1752 244 1768 c 1,16,17
 212 1764 212 1764 184 1768 c 1,18,19
 124 1756 124 1756 76 1772 c 1,20,21
 36 1768 36 1768 8 1744 c 1,22,-1
 8 1716 l 1,23,-1
 12 1700 l 1,24,25
 4 1660 4 1660 12 1628 c 1,26,-1
 8 1600 l 1,27,-1
 12 1556 l 1,28,-1
 12 1512 l 2,29,30
 12 1500 12 1500 8 1496 c 1,31,-1
 12 1472 l 1,32,-1
 8 1460 l 1,33,-1
 8 1296 l 1,34,35
 4 1264 4 1264 8 1244 c 1,36,-1
 4 1184 l 1,37,-1
 4 1024 l 1,38,-1
 8 1000 l 1,39,-1
 8 892 l 1,40,41
 12 868 12 868 8 836 c 1,42,-1
 8 812 l 1,43,44
 16 772 16 772 8 740 c 1,45,46
 8 720 8 720 16 708 c 1,47,-1
 12 696 l 1,48,-1
 16 688 l 1,49,-1
 12 676 l 1,50,51
 16 648 16 648 12 624 c 1,52,-1
 16 596 l 1,53,-1
 16 568 l 1,54,-1
 20 524 l 1,55,-1
 16 512 l 2,56,57
 16 500 16 500 20 496 c 1,58,-1
 20 464 l 1,59,-1
 28 420 l 1,60,61
 28 396 28 396 32 380 c 1,62,-1
 32 344 l 1,63,-1
 28 300 l 1,64,-1
 40 252 l 1,65,66
 32 200 32 200 36 132 c 0,67,68
 36 84 36 84 32 52 c 1,69,70
 36 24 36 24 48 4 c 1,71,72
 88 0 88 0 108 28 c 1,73,-1
 136 32 l 1,74,-1
 172 40 l 1,75,-1
 228 40 l 1,76,-1
 244 36 l 1,77,-1
 256 44 l 1,78,-1
 272 40 l 1,79,-1
 316 40 l 1,80,81
 376 52 376 52 416 48 c 1,82,-1
 428 52 l 1,83,84
 468 52 468 52 494 54 c 128,-1,85
 520 56 520 56 540 64 c 1,86,-1
 548 60 l 1,87,88
 572 64 572 64 588 60 c 1,89,-1
 612 64 l 1,90,-1
 672 76 l 2,91,92
 724 84 724 84 764 76 c 1,93,-1
 800 80 l 1,94,-1
 820 84 l 1,95,-1
 884 92 l 1,96,97
 944 92 944 92 984 104 c 1,98,99
 996 84 996 84 1016 76 c 1,100,101
 1032 84 1032 84 1040 92 c 1,102,-1
 1056 148 l 1,103,104
 1044 168 1044 168 1024 176 c 1,105,106
 1016 272 1016 272 1064 344 c 1,107,108
 1064 380 1064 380 1044 404 c 1,109,110
 1020 408 1020 408 1004 404 c 2,111,-1
 996 400 l 1,112,-1
 968 388 l 1,113,114
 928 388 928 388 900 380 c 1,115,116
 860 388 860 388 824 380 c 1,117,-1
 776 384 l 1,118,-1
 764 380 l 1,119,120
 736 388 736 388 712 380 c 1,121,-1
 692 384 l 1,122,123
 648 380 648 380 620 384 c 0,124,125
 600 384 600 384 588 388 c 1,126,-1
 560 388 l 1,127,-1
 544 392 l 1,128,-1
 532 388 l 1,129,-1
 468 392 l 1,130,131
 444 388 444 388 404 384 c 1,132,133
 360 388 360 388 332 384 c 1,134,-1
 328 400 l 1,135,-1
 328 432 l 2,136,137
 328 480 328 480 340 516 c 1,138,-1
 336 528 l 1,139,-1
 340 592 l 2,140,141
 340 604 340 604 344 608 c 1,142,-1
 344 620 l 1,143,-1
 352 632 l 1,144,145
 352 644 352 644 348 648 c 1,146,-1
 356 800 l 1,147,-1
 364 808 l 1,148,-1
 372 804 l 1,149,-1
 396 812 l 1,150,151
 416 828 416 828 436 836 c 1,152,153
 520 828 520 828 584 852 c 1,154,-1
 620 852 l 1,155,156
 632 860 632 860 636 868 c 2,157,-1
 640 892 l 1,158,159
 600 1016 600 1016 636 1124 c 0,160,161
 648 1156 648 1156 624 1176 c 1,162,-1
 604 1180 l 1,163,164
 580 1176 580 1176 564 1176 c 1,165,166
 508 1160 508 1160 468 1164 c 1,167,-1
 404 1160 l 1,168,169
 348 1148 348 1148 304 1156 c 1,170,-1
 296 1168 l 1,171,-1
 296 1220 l 2,172,173
 296 1240 296 1240 300 1252 c 1,174,-1
 296 1276 l 1,175,-1
 300 1308 l 1,176,-1
 304 1372 l 1,177,-1
 324 1392 l 1,178,-1
 344 1400 l 1,179,-1
 376 1400 l 1,180,181
 408 1408 408 1408 436 1408 c 2,182,-1
 476 1408 l 1,183,-1
 504 1412 l 1,184,-1
 576 1416 l 1,185,-1
 620 1420 l 1,186,-1
 648 1424 l 2,187,188
 700 1432 700 1432 736 1432 c 1,189,-1
 748 1440 l 1,190,191
 772 1440 772 1440 788 1448 c 1,192,-1
 856 1452 l 1,193,-1
 900 1456 l 1,194,195
 948 1444 948 1444 988 1452 c 1,196,-1
 1000 1468 l 1,197,198
 972 1560 972 1560 992 1644 c 1,199,200
 980 1716 980 1716 1016 1772 c 1,201,-1
 1012 1808 l 1,202,203
 976 1824 976 1824 952 1828 c 1,204,0
 928 1816 928 1816 908 1812 c 1,1,2
948 1752 m 1,205,-1
 944 1736 l 1,206,-1
 936 1668 l 1,207,-1
 940 1660 l 1,208,-1
 944 1528 l 1,209,-1
 936 1520 l 1,210,211
 912 1516 912 1516 908 1512 c 0,212,213
 884 1504 884 1504 864 1504 c 1,214,-1
 856 1500 l 1,215,-1
 748 1492 l 1,216,-1
 728 1484 l 1,217,-1
 716 1484 l 1,218,-1
 608 1464 l 1,219,-1
 520 1464 l 1,220,-1
 480 1456 l 1,221,-1
 464 1452 l 1,222,223
 424 1456 424 1456 396 1448 c 1,224,-1
 384 1452 l 1,225,-1
 340 1444 l 1,226,227
 288 1456 288 1456 248 1452 c 1,228,-1
 236 1408 l 1,229,-1
 252 1344 l 1,230,231
 248 1320 248 1320 244 1284 c 1,232,-1
 240 1268 l 1,233,-1
 240 1240 l 1,234,235
 244 1224 244 1224 244 1196 c 0,236,237
 248 1152 248 1152 244 1124 c 1,238,239
 276 1100 276 1100 308 1096 c 1,240,241
 416 1124 416 1124 508 1108 c 1,242,243
 532 1112 532 1112 548 1120 c 1,244,-1
 568 1108 l 1,245,246
 572 1016 572 1016 580 984 c 1,247,248
 576 932 576 932 560 896 c 1,249,-1
 548 896 l 1,250,-1
 520 888 l 1,251,-1
 472 888 l 1,252,253
 412 880 412 880 368 888 c 1,254,-1
 292 868 l 1,255,256
 292 836 292 836 296 816 c 2,257,-1
 300 752 l 1,258,259
 296 720 296 720 300 700 c 1,260,261
 292 648 292 648 296 612 c 1,262,-1
 292 584 l 1,263,-1
 284 552 l 1,264,-1
 284 540 l 1,265,-1
 276 488 l 1,266,-1
 272 456 l 1,267,268
 272 408 272 408 268 376 c 1,269,270
 272 340 272 340 284 312 c 1,271,-1
 304 308 l 1,272,273
 340 308 340 308 356 336 c 1,274,275
 416 332 416 332 456 344 c 1,276,-1
 472 344 l 1,277,278
 508 340 508 340 536 348 c 1,279,280
 556 340 556 340 572 344 c 1,281,-1
 580 340 l 1,282,-1
 600 336 l 1,283,-1
 632 336 l 1,284,285
 692 332 692 332 732 340 c 1,286,-1
 744 336 l 1,287,-1
 768 336 l 1,288,-1
 816 328 l 1,289,-1
 832 332 l 1,290,-1
 860 336 l 1,291,292
 932 324 932 324 984 336 c 1,293,294
 992 324 992 324 992 316 c 2,295,-1
 988 288 l 1,296,-1
 984 260 l 1,297,-1
 980 232 l 1,298,-1
 980 160 l 1,299,300
 944 144 944 144 908 140 c 2,301,-1
 784 132 l 1,302,-1
 756 128 l 1,303,-1
 676 128 l 1,304,-1
 660 124 l 1,305,-1
 636 120 l 1,306,-1
 420 104 l 1,307,-1
 396 100 l 1,308,-1
 376 96 l 2,309,310
 344 88 344 88 320 88 c 2,311,-1
 200 88 l 1,312,-1
 188 84 l 1,313,-1
 100 80 l 1,314,315
 92 92 92 92 92 104 c 2,316,-1
 92 236 l 1,317,318
 80 284 80 284 84 316 c 1,319,-1
 84 384 l 1,320,-1
 72 448 l 1,321,-1
 68 476 l 1,322,-1
 68 664 l 1,323,324
 60 700 60 700 60 728 c 1,325,-1
 64 740 l 1,326,327
 56 788 56 788 64 820 c 1,328,-1
 64 864 l 1,329,-1
 60 884 l 1,330,-1
 60 952 l 1,331,332
 56 964 56 964 60 968 c 1,333,-1
 56 1000 l 1,334,-1
 56 1128 l 1,335,-1
 60 1152 l 1,336,337
 56 1168 56 1168 60 1180 c 1,338,-1
 60 1228 l 1,339,-1
 56 1240 l 1,340,-1
 60 1252 l 1,341,-1
 56 1260 l 1,342,-1
 60 1388 l 1,343,344
 56 1416 56 1416 60 1440 c 1,345,-1
 56 1456 l 1,346,347
 52 1496 52 1496 60 1528 c 1,348,-1
 56 1608 l 1,349,350
 48 1672 48 1672 60 1716 c 1,351,352
 68 1720 68 1720 88 1724 c 2,353,-1
 232 1728 l 1,354,-1
 288 1720 l 1,355,-1
 304 1724 l 1,356,-1
 312 1720 l 1,357,-1
 320 1724 l 1,358,-1
 356 1724 l 1,359,360
 384 1732 384 1732 424 1728 c 1,361,-1
 464 1728 l 1,362,-1
 484 1732 l 1,363,-1
 512 1732 l 1,364,-1
 528 1736 l 1,365,-1
 548 1740 l 1,366,367
 580 1740 580 1740 604 1736 c 1,368,-1
 620 1740 l 1,369,370
 652 1740 652 1740 676 1744 c 2,371,-1
 708 1748 l 1,372,-1
 736 1744 l 1,373,-1
 744 1748 l 1,374,-1
 792 1748 l 1,375,376
 848 1768 848 1768 896 1756 c 1,377,-1
 912 1768 l 1,378,379
 932 1760 932 1760 944 1772 c 1,380,-1
 948 1752 l 1,205,-1
EndSplineSet
Validated: 41
Layer: 2
EndChar

StartChar: F
Encoding: 70 70 41
Width: 1120
Flags: W
LayerCount: 3
Back
Fore
SplineSet
908 1792 m 1,1,2
 872 1784 872 1784 844 1788 c 1,3,-1
 832 1788 l 1,4,5
 792 1776 792 1776 764 1772 c 0,6,7
 704 1764 704 1764 664 1768 c 1,8,-1
 636 1768 l 1,9,10
 604 1760 604 1760 580 1760 c 1,11,-1
 556 1752 l 1,12,-1
 404 1756 l 1,13,14
 352 1744 352 1744 284 1744 c 1,15,-1
 268 1748 l 1,16,17
 228 1744 228 1744 196 1752 c 1,18,-1
 184 1748 l 1,19,-1
 84 1760 l 1,20,21
 48 1756 48 1756 24 1740 c 1,22,-1
 24 1728 l 1,23,-1
 32 1700 l 1,24,25
 28 1676 28 1676 32 1656 c 1,26,27
 32 1604 32 1604 40 1568 c 1,28,-1
 40 1480 l 1,29,-1
 36 1468 l 1,30,-1
 32 1440 l 1,31,-1
 28 1412 l 1,32,33
 28 1368 28 1368 20 1340 c 0,34,35
 16 1320 16 1320 20 1308 c 1,36,-1
 16 1284 l 1,37,-1
 16 1256 l 2,38,39
 16 1244 16 1244 20 1216 c 1,40,41
 16 1208 16 1208 18 1198 c 128,-1,42
 20 1188 20 1188 16 1180 c 1,43,-1
 20 872 l 2,44,45
 20 860 20 860 16 836 c 0,46,47
 16 812 16 812 12 796 c 1,48,-1
 12 724 l 1,49,-1
 4 644 l 2,50,51
 0 588 0 588 8 552 c 1,52,-1
 4 536 l 1,53,-1
 4 512 l 2,54,55
 4 476 4 476 0 448 c 1,56,-1
 4 428 l 1,57,58
 0 352 0 352 0 304 c 1,59,-1
 4 280 l 1,60,61
 4 172 4 172 12 140 c 1,62,63
 -8 72 -8 72 8 12 c 1,64,65
 32 0 32 0 52 4 c 1,66,67
 80 16 80 16 100 20 c 2,68,-1
 132 24 l 1,69,-1
 168 24 l 1,70,-1
 180 28 l 1,71,72
 240 24 240 24 280 28 c 1,73,-1
 296 16 l 1,74,-1
 332 20 l 1,75,76
 348 36 348 36 356 52 c 1,77,-1
 352 84 l 1,78,-1
 352 148 l 1,79,80
 348 164 348 164 352 176 c 2,81,-1
 356 208 l 1,82,-1
 352 276 l 1,83,84
 356 296 356 296 352 312 c 1,85,86
 356 324 356 324 352 348 c 1,87,88
 356 376 356 376 352 400 c 1,89,-1
 356 472 l 2,90,91
 356 484 356 484 360 488 c 1,92,-1
 360 524 l 1,93,-1
 364 532 l 1,94,95
 364 556 364 556 368 592 c 1,96,97
 360 632 360 632 364 660 c 2,98,-1
 368 676 l 1,99,-1
 368 720 l 1,100,101
 364 740 364 740 368 756 c 1,102,103
 352 804 352 804 360 848 c 1,104,105
 452 888 452 888 536 872 c 1,106,-1
 580 876 l 1,107,108
 600 884 600 884 616 884 c 1,109,110
 628 860 628 860 656 856 c 1,111,112
 684 876 684 876 680 904 c 1,113,114
 640 1016 640 1016 672 1132 c 1,115,116
 668 1152 668 1152 656 1172 c 1,117,-1
 632 1180 l 1,118,-1
 584 1180 l 1,119,-1
 572 1176 l 1,120,121
 500 1188 500 1188 440 1164 c 1,122,123
 416 1168 416 1168 400 1160 c 1,124,125
 368 1164 368 1164 344 1180 c 1,126,-1
 348 1196 l 1,127,-1
 348 1220 l 1,128,129
 328 1308 328 1308 348 1380 c 1,130,131
 340 1404 340 1404 340 1416 c 1,132,-1
 364 1428 l 1,133,-1
 480 1432 l 1,134,-1
 504 1436 l 1,135,-1
 524 1440 l 1,136,-1
 548 1444 l 1,137,-1
 684 1452 l 1,138,-1
 700 1456 l 1,139,-1
 780 1456 l 1,140,-1
 788 1460 l 1,141,142
 836 1472 836 1472 872 1472 c 1,143,-1
 904 1464 l 1,144,145
 924 1428 924 1428 960 1436 c 1,146,-1
 968 1448 l 1,147,-1
 964 1516 l 1,148,-1
 968 1548 l 1,149,-1
 980 1592 l 1,150,-1
 984 1628 l 1,151,-1
 984 1652 l 1,152,-1
 988 1660 l 1,153,154
 984 1708 984 1708 996 1744 c 1,155,156
 996 1764 996 1764 984 1780 c 1,157,158
 964 1796 964 1796 940 1796 c 1,159,0
 928 1792 928 1792 908 1792 c 1,1,2
856 1740 m 1,160,161
 904 1748 904 1748 936 1740 c 1,162,163
 952 1632 952 1632 920 1544 c 1,164,-1
 868 1524 l 1,165,166
 824 1524 824 1524 792 1508 c 1,167,-1
 748 1508 l 1,168,-1
 736 1504 l 1,169,-1
 720 1508 l 1,170,171
 632 1488 632 1488 572 1492 c 1,172,-1
 544 1492 l 1,173,174
 456 1468 456 1468 392 1476 c 0,175,176
 360 1480 360 1480 336 1496 c 1,177,178
 292 1492 292 1492 264 1472 c 1,179,180
 256 1400 256 1400 284 1344 c 1,181,-1
 288 1328 l 1,182,-1
 288 1184 l 1,183,184
 280 1132 280 1132 284 1096 c 1,185,186
 292 1076 292 1076 300 1064 c 1,187,188
 352 1056 352 1056 352 1116 c 1,189,-1
 388 1112 l 1,190,191
 420 1120 420 1120 448 1120 c 1,192,-1
 468 1128 l 1,193,-1
 512 1132 l 1,194,-1
 604 1128 l 1,195,196
 612 1116 612 1116 620 1112 c 1,197,-1
 612 1056 l 1,198,199
 616 984 616 984 604 936 c 1,200,-1
 596 940 l 1,201,202
 560 928 560 928 532 932 c 1,203,-1
 524 924 l 1,204,-1
 508 928 l 1,205,206
 416 908 416 908 336 920 c 1,207,-1
 308 900 l 1,208,-1
 304 872 l 1,209,-1
 312 760 l 1,210,211
 308 716 308 716 308 688 c 1,212,-1
 312 668 l 1,213,-1
 308 660 l 1,214,-1
 312 596 l 1,215,216
 308 584 308 584 306 574 c 128,-1,217
 304 564 304 564 308 540 c 1,218,-1
 304 508 l 2,219,220
 300 472 300 472 300 442 c 128,-1,221
 300 412 300 412 296 388 c 1,222,-1
 300 380 l 1,223,-1
 296 368 l 1,224,-1
 300 356 l 1,225,-1
 296 348 l 1,226,227
 300 320 300 320 296 300 c 1,228,-1
 300 264 l 1,229,-1
 292 248 l 1,230,-1
 300 240 l 1,231,-1
 300 228 l 2,232,233
 300 200 300 200 288 180 c 1,234,-1
 292 172 l 1,235,-1
 292 108 l 1,236,-1
 268 84 l 1,237,-1
 256 80 l 1,238,-1
 112 68 l 1,239,-1
 68 84 l 1,240,-1
 60 260 l 1,241,-1
 64 284 l 1,242,-1
 64 304 l 1,243,-1
 60 316 l 1,244,-1
 60 424 l 1,245,-1
 64 436 l 1,246,-1
 60 580 l 1,247,248
 64 628 64 628 60 660 c 1,249,-1
 64 684 l 1,250,-1
 68 736 l 1,251,-1
 68 864 l 1,252,-1
 72 876 l 1,253,-1
 68 888 l 1,254,255
 72 912 72 912 68 952 c 1,256,-1
 68 996 l 1,257,-1
 64 1008 l 1,258,-1
 68 1020 l 1,259,260
 64 1056 64 1056 68 1084 c 1,261,-1
 68 1180 l 1,262,-1
 72 1192 l 1,263,-1
 72 1220 l 1,264,-1
 68 1228 l 1,265,266
 72 1284 72 1284 68 1320 c 1,267,-1
 72 1340 l 1,268,-1
 72 1368 l 1,269,-1
 76 1380 l 1,270,-1
 80 1400 l 1,271,-1
 84 1428 l 1,272,-1
 92 1508 l 2,273,274
 92 1532 92 1532 88 1548 c 1,275,-1
 88 1584 l 1,276,277
 84 1600 84 1600 80 1636 c 1,278,-1
 80 1700 l 1,279,-1
 104 1712 l 1,280,-1
 120 1708 l 1,281,-1
 204 1708 l 1,282,283
 228 1704 228 1704 244 1708 c 1,284,285
 296 1708 296 1708 316 1704 c 1,286,-1
 344 1704 l 1,287,-1
 352 1708 l 1,288,289
 396 1708 396 1708 424 1716 c 1,290,-1
 436 1716 l 1,291,-1
 468 1712 l 1,292,293
 500 1720 500 1720 528 1708 c 1,294,-1
 540 1712 l 1,295,296
 584 1708 584 1708 616 1720 c 1,297,-1
 732 1724 l 1,298,-1
 752 1728 l 1,299,-1
 824 1744 l 1,300,-1
 856 1740 l 1,160,161
EndSplineSet
Validated: 41
Layer: 2
EndChar

StartChar: G
Encoding: 71 71 42
Width: 1240
Flags: W
LayerCount: 3
Back
Fore
SplineSet
636 1748 m 1,0,1
 464 1748 464 1748 316 1668 c 1,2,-1
 308 1660 l 1,3,4
 284 1628 284 1628 264 1616 c 1,5,-1
 252 1596 l 1,6,-1
 232 1572 l 1,7,-1
 180 1460 l 1,8,-1
 172 1448 l 2,9,10
 156 1420 156 1420 140 1404 c 1,11,-1
 132 1388 l 1,12,-1
 100 1300 l 2,13,14
 88 1264 88 1264 72 1236 c 1,15,-1
 72 1224 l 1,16,-1
 64 1160 l 1,17,18
 -20 1012 -20 1012 12 864 c 1,19,20
 4 828 4 828 12 800 c 1,21,22
 4 748 4 748 8 712 c 1,23,24
 -4 664 -4 664 8 620 c 1,25,26
 -8 504 -8 504 48 412 c 1,27,28
 56 300 56 300 104 212 c 0,29,30
 116 196 116 196 116 180 c 1,31,32
 144 152 144 152 152 132 c 1,33,-1
 176 104 l 1,34,35
 216 76 216 76 232 48 c 1,36,37
 588 -64 588 -64 884 104 c 1,38,39
 900 120 900 120 908 136 c 1,40,-1
 916 144 l 2,41,42
 936 168 936 168 944 184 c 1,43,-1
 956 192 l 1,44,-1
 960 204 l 1,45,-1
 980 224 l 1,46,47
 1004 276 1004 276 1024 304 c 1,48,49
 1056 330 1056 330 1073 372 c 1,50,-1
 1073 384 l 1,51,52
 1084 468 1084 468 1096 524 c 1,53,-1
 1088 548 l 1,54,-1
 1088 564 l 1,55,-1
 1084 572 l 1,56,-1
 1088 584 l 1,57,58
 1076 640 1076 640 1080 684 c 1,59,-1
 1076 696 l 1,60,-1
 1072 740 l 1,61,-1
 1068 752 l 1,62,-1
 1064 796 l 1,63,-1
 1064 892 l 1,64,-1
 1060 904 l 1,65,66
 1068 940 1068 940 1068 968 c 1,67,-1
 1088 1000 l 1,68,-1
 1080 1032 l 1,69,-1
 1072 1040 l 1,70,71
 1032 1048 1032 1048 1004 1060 c 1,72,-1
 988 1060 l 1,73,74
 956 1056 956 1056 932 1060 c 1,75,76
 920 1056 920 1056 916 1052 c 2,77,-1
 900 1048 l 1,78,-1
 880 1048 l 1,79,-1
 836 1036 l 2,80,81
 824 1036 824 1036 820 1032 c 2,82,-1
 792 1028 l 1,83,-1
 764 1024 l 2,84,85
 720 1020 720 1020 664 1008 c 1,86,87
 604 1040 604 1040 560 1004 c 1,88,-1
 556 992 l 1,89,90
 580 912 580 912 580 852 c 2,91,-1
 580 840 l 1,92,93
 560 804 560 804 560 768 c 1,94,95
 584 748 584 748 616 736 c 1,96,97
 640 740 640 740 656 752 c 1,98,-1
 704 752 l 1,99,-1
 732 760 l 1,100,-1
 760 760 l 1,101,-1
 772 756 l 1,102,103
 792 760 792 760 808 756 c 1,104,105
 836 664 836 664 796 592 c 1,106,107
 748 380 748 380 552 336 c 1,108,109
 480 344 480 344 428 384 c 1,110,111
 400 424 400 424 388 452 c 1,112,-1
 384 472 l 2,113,114
 368 540 368 540 366 570 c 128,-1,115
 364 600 364 600 352 620 c 1,116,117
 352 648 352 648 344 692 c 1,118,-1
 340 772 l 2,119,120
 340 832 340 832 332 872 c 1,121,-1
 336 888 l 1,122,-1
 340 916 l 1,123,-1
 344 944 l 1,124,-1
 340 952 l 1,125,126
 348 988 348 988 348 1016 c 1,127,-1
 360 1044 l 1,128,129
 364 1068 364 1068 376 1084 c 1,130,-1
 396 1140 l 1,131,-1
 408 1172 l 1,132,-1
 424 1216 l 1,133,-1
 432 1228 l 1,134,-1
 444 1248 l 1,135,136
 468 1320 468 1320 508 1368 c 1,137,138
 540 1392 540 1392 564 1404 c 1,139,140
 752 1452 752 1452 752 1308 c 1,141,142
 764 1284 764 1284 776 1268 c 1,143,-1
 812 1272 l 1,144,-1
 820 1276 l 1,145,146
 896 1340 896 1340 976 1360 c 1,147,148
 992 1352 992 1352 1004 1354 c 128,-1,149
 1016 1356 1016 1356 1020 1360 c 0,150,151
 1036 1376 1036 1376 1040 1392 c 1,152,-1
 1032 1416 l 1,153,154
 1036 1508 1036 1508 992 1580 c 1,155,156
 972 1680 972 1680 896 1732 c 1,157,-1
 888 1736 l 1,158,-1
 864 1744 l 1,159,-1
 852 1744 l 1,160,-1
 784 1756 l 1,161,-1
 732 1756 l 1,162,163
 680 1748 680 1748 644 1756 c 1,164,-1
 636 1748 l 1,0,1
752 1708 m 1,165,-1
 772 1704 l 2,166,167
 812 1696 812 1696 844 1696 c 1,168,169
 860 1684 860 1684 868 1672 c 1,170,171
 892 1660 892 1660 908 1644 c 1,172,173
 972 1528 972 1528 976 1420 c 1,174,-1
 956 1400 l 1,175,-1
 928 1392 l 1,176,177
 868 1368 868 1368 828 1360 c 1,178,-1
 812 1376 l 1,179,180
 808 1408 808 1408 792 1432 c 1,181,182
 600 1552 600 1552 476 1416 c 1,183,184
 384 1328 384 1328 364 1216 c 1,185,-1
 348 1200 l 1,186,-1
 348 1184 l 1,187,-1
 336 1152 l 1,188,-1
 328 1140 l 1,189,-1
 312 1100 l 1,190,191
 304 1048 304 1048 284 1016 c 1,192,-1
 284 1004 l 1,193,194
 280 980 280 980 280 964 c 2,195,-1
 280 928 l 1,196,-1
 272 900 l 1,197,-1
 276 888 l 1,198,199
 272 840 272 840 276 808 c 1,200,-1
 272 756 l 1,201,-1
 276 732 l 1,202,-1
 284 700 l 1,203,-1
 284 688 l 1,204,205
 292 656 292 656 292 636 c 1,206,207
 308 568 308 568 300 520 c 1,208,-1
 304 504 l 1,209,-1
 312 492 l 1,210,211
 316 432 316 432 336 388 c 1,212,213
 380 320 380 320 452 300 c 1,214,215
 628 240 628 240 748 368 c 1,216,217
 840 448 840 448 860 552 c 1,218,-1
 872 568 l 1,219,220
 864 580 864 580 864 588 c 0,221,222
 896 696 896 696 876 796 c 1,223,224
 860 816 860 816 848 820 c 1,225,226
 820 816 820 816 792 808 c 1,227,-1
 768 808 l 1,228,229
 684 796 684 796 628 804 c 1,230,-1
 628 848 l 1,231,232
 620 900 620 900 628 940 c 1,233,234
 640 948 640 948 644 956 c 1,235,-1
 656 956 l 1,236,-1
 720 968 l 1,237,-1
 732 968 l 1,238,-1
 772 980 l 1,239,-1
 780 976 l 1,240,241
 820 988 820 988 852 984 c 1,242,-1
 860 988 l 1,243,244
 896 996 896 996 928 988 c 1,245,-1
 988 984 l 1,246,-1
 1012 972 l 1,247,-1
 1008 956 l 1,248,-1
 1008 940 l 1,249,250
 1004 896 1004 896 1012 868 c 1,251,-1
 1008 856 l 1,252,253
 1008 828 1008 828 1004 824 c 1,254,255
 1004 792 1004 792 1008 768 c 1,256,-1
 1008 712 l 1,257,258
 1020 676 1020 676 1016 648 c 1,259,-1
 1020 620 l 1,260,-1
 1024 592 l 2,261,262
 1028 568 1028 568 1028 528 c 1,263,264
 1020 504 1020 504 1020 488 c 0,265,266
 1028 440 1028 440 1005 404 c 2,267,-1
 993 384 l 1,268,269
 984 360 984 360 964 348 c 1,270,271
 940 304 940 304 912 276 c 1,272,-1
 908 264 l 1,273,-1
 880 224 l 1,274,-1
 876 216 l 1,275,-1
 828 152 l 1,276,-1
 816 144 l 1,277,-1
 768 120 l 2,278,279
 736 108 736 108 712 104 c 2,280,-1
 680 96 l 1,281,-1
 672 88 l 1,282,-1
 640 76 l 1,283,284
 592 72 592 72 560 56 c 1,285,-1
 508 60 l 1,286,-1
 468 52 l 1,287,-1
 428 68 l 1,288,289
 300 80 300 80 212 148 c 1,290,291
 116 280 116 280 100 420 c 1,292,293
 28 592 28 592 68 748 c 1,294,-1
 64 768 l 1,295,-1
 64 784 l 1,296,297
 68 808 68 808 64 840 c 1,298,-1
 68 856 l 1,299,-1
 68 1000 l 1,300,301
 72 1008 72 1008 74 1018 c 128,-1,302
 76 1028 76 1028 80 1032 c 2,303,-1
 120 1124 l 1,304,305
 128 1240 128 1240 184 1332 c 1,306,307
 204 1388 204 1388 228 1424 c 1,308,309
 332 1724 332 1724 692 1700 c 1,310,-1
 740 1708 l 1,311,-1
 752 1708 l 1,165,-1
EndSplineSet
Validated: 41
Layer: 2
EndChar

StartChar: H
Encoding: 72 72 43
Width: 1300
Flags: W
LayerCount: 3
Back
Fore
SplineSet
1160 1824 m 1,0,-1
 1144 1824 l 1,1,-1
 1100 1820 l 1,2,-1
 1088 1816 l 1,3,4
 1056 1812 1056 1812 1032 1804 c 1,5,6
 960 1808 960 1808 908 1788 c 1,7,8
 904 1744 904 1744 912 1712 c 2,9,-1
 916 1692 l 1,10,-1
 916 1628 l 1,11,-1
 912 1616 l 1,12,-1
 912 1592 l 1,13,14
 908 1548 908 1548 908 1520 c 2,15,-1
 908 1476 l 1,16,-1
 904 1456 l 1,17,-1
 908 1440 l 1,18,-1
 904 1412 l 1,19,-1
 904 1340 l 1,20,-1
 900 1332 l 1,21,22
 904 1288 904 1288 900 1260 c 1,23,24
 868 1272 868 1272 824 1268 c 1,25,-1
 804 1264 l 1,26,-1
 784 1260 l 1,27,-1
 768 1260 l 1,28,-1
 760 1256 l 1,29,30
 664 1240 664 1240 604 1244 c 1,31,-1
 596 1236 l 1,32,33
 588 1240 588 1240 568 1236 c 0,34,35
 496 1216 496 1216 436 1220 c 1,36,37
 380 1216 380 1216 340 1236 c 1,38,-1
 340 1312 l 1,39,-1
 344 1324 l 1,40,41
 340 1336 340 1336 344 1340 c 1,42,-1
 344 1376 l 1,43,-1
 340 1396 l 1,44,45
 344 1416 344 1416 340 1428 c 1,46,47
 352 1460 352 1460 344 1492 c 1,48,-1
 348 1508 l 1,49,50
 340 1540 340 1540 340 1560 c 2,51,-1
 344 1676 l 2,52,53
 348 1716 348 1716 344 1744 c 1,54,55
 356 1776 356 1776 348 1804 c 1,56,-1
 328 1824 l 1,57,58
 204 1776 204 1776 92 1796 c 1,59,60
 52 1788 52 1788 24 1788 c 1,61,62
 -4 1740 -4 1740 0 1696 c 1,63,-1
 0 1680 l 1,64,-1
 12 1636 l 2,65,66
 12 1624 12 1624 16 1604 c 1,67,68
 16 1580 16 1580 20 1564 c 1,69,-1
 20 1532 l 2,70,71
 20 1520 20 1520 24 1516 c 2,72,-1
 28 1412 l 2,73,74
 28 1392 28 1392 24 1380 c 1,75,76
 32 1348 32 1348 24 1292 c 1,77,-1
 28 1264 l 1,78,-1
 28 1204 l 1,79,80
 24 1188 24 1188 24 1152 c 0,81,82
 24 1140 24 1140 28 1120 c 1,83,-1
 24 1088 l 2,84,85
 24 1064 24 1064 28 1060 c 1,86,-1
 24 1052 l 1,87,-1
 24 968 l 1,88,89
 28 956 28 956 28 928 c 1,90,-1
 32 904 l 1,91,92
 28 864 28 864 32 836 c 2,93,-1
 44 704 l 1,94,-1
 48 692 l 1,95,-1
 44 680 l 1,96,-1
 48 652 l 1,97,-1
 44 624 l 1,98,-1
 44 552 l 1,99,-1
 48 528 l 1,100,-1
 48 504 l 1,101,102
 52 488 52 488 48 452 c 1,103,-1
 48 420 l 1,104,105
 52 404 52 404 56 376 c 1,106,107
 52 348 52 348 60 324 c 1,108,-1
 56 312 l 1,109,110
 52 252 52 252 56 212 c 1,111,112
 52 168 52 168 56 136 c 1,113,114
 44 72 44 72 64 16 c 1,115,-1
 92 0 l 1,116,-1
 104 0 l 1,117,118
 128 32 128 32 156 44 c 1,119,-1
 236 52 l 1,120,121
 284 40 284 40 328 52 c 1,122,123
 384 36 384 36 432 64 c 1,124,125
 436 100 436 100 380 104 c 1,126,-1
 376 132 l 1,127,-1
 380 160 l 1,128,-1
 376 172 l 1,129,-1
 376 280 l 1,130,131
 380 288 380 288 372 308 c 1,132,-1
 372 388 l 1,133,-1
 368 408 l 1,134,-1
 368 424 l 1,135,136
 360 464 360 464 364 492 c 1,137,-1
 364 504 l 1,138,-1
 360 524 l 1,139,-1
 356 692 l 1,140,-1
 352 720 l 1,141,-1
 348 744 l 1,142,-1
 352 824 l 1,143,-1
 372 836 l 1,144,-1
 396 840 l 1,145,-1
 420 848 l 1,146,-1
 440 848 l 1,147,-1
 464 856 l 1,148,-1
 484 852 l 1,149,150
 496 856 496 856 506 856 c 128,-1,151
 516 856 516 856 544 860 c 2,152,-1
 592 872 l 1,153,-1
 604 872 l 1,154,155
 628 880 628 880 672 884 c 2,156,-1
 704 888 l 2,157,158
 756 892 756 892 788 888 c 1,159,160
 824 900 824 900 852 904 c 1,161,162
 888 880 888 880 888 840 c 2,163,-1
 888 540 l 1,164,165
 864 464 864 464 872 408 c 1,166,-1
 872 364 l 1,167,-1
 876 352 l 1,168,-1
 876 328 l 1,169,-1
 880 316 l 1,170,171
 880 280 880 280 888 252 c 1,172,173
 888 212 888 212 884 184 c 2,174,-1
 880 124 l 1,175,176
 884 80 884 80 876 52 c 1,177,-1
 892 40 l 1,178,179
 932 40 932 40 960 52 c 1,180,181
 984 44 984 44 1000 48 c 0,182,183
 1008 48 1008 48 1028 52 c 1,184,185
 1068 44 1068 44 1100 52 c 1,186,187
 1172 40 1172 40 1232 56 c 1,188,189
 1232 64 1232 64 1236 84 c 1,190,191
 1200 128 1200 128 1200 176 c 0,192,193
 1200 196 1200 196 1204 208 c 1,194,-1
 1200 308 l 1,195,196
 1204 340 1204 340 1196 368 c 1,197,198
 1196 388 1196 388 1200 400 c 2,199,-1
 1204 480 l 2,200,201
 1208 512 1208 512 1204 532 c 1,202,-1
 1204 596 l 1,203,-1
 1200 612 l 1,204,205
 1208 648 1208 648 1204 680 c 1,206,-1
 1208 696 l 1,207,-1
 1208 728 l 1,208,209
 1204 788 1204 788 1216 828 c 1,210,-1
 1216 852 l 1,211,212
 1220 864 1220 864 1216 876 c 2,213,-1
 1212 900 l 1,214,-1
 1212 1004 l 2,215,216
 1212 1024 1212 1024 1208 1036 c 1,217,218
 1212 1060 1212 1060 1208 1080 c 1,219,-1
 1212 1108 l 1,220,221
 1200 1144 1200 1144 1204 1176 c 2,222,-1
 1208 1492 l 1,223,-1
 1212 1512 l 1,224,-1
 1212 1564 l 2,225,226
 1212 1584 1212 1584 1216 1596 c 1,227,-1
 1216 1716 l 1,228,229
 1228 1764 1228 1764 1256 1800 c 1,230,231
 1232 1840 1232 1840 1184 1832 c 1,232,-1
 1160 1824 l 1,0,-1
1188 1760 m 1,234,-1
 1180 1732 l 1,235,-1
 1180 1708 l 1,236,237
 1172 1684 1172 1684 1172 1660 c 2,238,-1
 1172 1540 l 1,239,-1
 1168 1532 l 1,240,-1
 1168 1472 l 1,241,-1
 1164 1460 l 1,242,243
 1164 1416 1164 1416 1156 1388 c 1,244,-1
 1160 1372 l 1,245,-1
 1156 1356 l 1,246,-1
 1160 1340 l 1,247,-1
 1164 1296 l 1,248,-1
 1164 1228 l 1,249,250
 1152 1156 1152 1156 1160 1104 c 2,251,-1
 1164 1076 l 1,252,-1
 1160 1024 l 1,253,-1
 1164 896 l 1,254,-1
 1160 860 l 1,255,-1
 1160 772 l 1,256,257
 1156 752 1156 752 1160 740 c 1,258,-1
 1156 712 l 1,259,260
 1152 636 1152 636 1152 584 c 1,261,-1
 1156 572 l 1,262,-1
 1152 556 l 1,263,-1
 1152 488 l 1,264,265
 1156 456 1156 456 1148 428 c 1,266,267
 1144 384 1144 384 1144 356 c 1,268,-1
 1148 344 l 1,269,270
 1144 308 1144 308 1144 280 c 1,271,272
 1160 188 1160 188 1140 116 c 1,273,-1
 1112 104 l 1,274,-1
 1084 100 l 2,275,276
 1044 96 1044 96 1016 100 c 1,277,-1
 1000 100 l 1,278,-1
 956 96 l 1,279,-1
 944 108 l 1,280,-1
 924 364 l 1,281,-1
 928 376 l 1,282,-1
 924 476 l 1,283,284
 928 504 928 504 936 524 c 1,285,-1
 940 788 l 2,286,287
 940 808 940 808 936 820 c 1,288,-1
 940 920 l 1,289,290
 928 936 928 936 916 944 c 1,291,292
 876 956 876 956 840 952 c 1,293,-1
 828 948 l 1,294,-1
 788 948 l 1,295,-1
 768 944 l 2,296,297
 720 932 720 932 684 936 c 1,298,-1
 668 932 l 1,299,-1
 628 924 l 1,300,-1
 612 920 l 1,301,-1
 596 920 l 1,302,303
 536 908 536 908 524 906 c 128,-1,304
 512 904 512 904 488 904 c 2,305,-1
 460 900 l 1,306,-1
 432 896 l 1,307,-1
 360 892 l 1,308,309
 336 904 336 904 312 904 c 1,310,-1
 296 876 l 1,311,-1
 296 852 l 1,312,313
 308 816 308 816 304 784 c 1,314,-1
 308 696 l 1,315,-1
 312 680 l 1,316,317
 308 524 308 524 316 488 c 1,318,-1
 316 436 l 2,319,320
 316 412 316 412 320 396 c 1,321,-1
 320 320 l 2,322,323
 320 288 320 288 324 264 c 1,324,-1
 324 224 l 1,325,-1
 320 216 l 1,326,-1
 320 144 l 1,327,328
 308 120 308 120 304 100 c 1,329,-1
 292 108 l 1,330,331
 192 72 192 72 104 104 c 1,332,-1
 104 128 l 1,333,-1
 108 144 l 1,334,-1
 108 180 l 1,335,-1
 112 196 l 1,336,337
 100 244 100 244 104 276 c 1,338,-1
 104 292 l 1,339,-1
 100 336 l 1,340,-1
 108 360 l 1,341,342
 104 368 104 368 104 388 c 2,343,-1
 96 452 l 1,344,-1
 100 460 l 1,345,-1
 92 644 l 1,346,-1
 88 688 l 1,347,-1
 88 728 l 1,348,-1
 84 748 l 1,349,-1
 80 828 l 1,350,351
 84 880 84 880 72 916 c 1,352,-1
 68 960 l 1,353,-1
 72 980 l 1,354,-1
 72 1000 l 2,355,356
 72 1032 72 1032 68 1056 c 1,357,-1
 72 1100 l 1,358,-1
 72 1128 l 1,359,-1
 68 1140 l 1,360,361
 72 1176 72 1176 68 1204 c 1,362,-1
 72 1220 l 1,363,-1
 76 1244 l 1,364,365
 68 1268 68 1268 72 1288 c 1,366,-1
 72 1320 l 1,367,368
 76 1336 76 1336 76 1360 c 1,369,370
 64 1420 64 1420 68 1460 c 0,371,372
 68 1484 68 1484 64 1498 c 128,-1,373
 60 1512 60 1512 64 1516 c 1,374,-1
 60 1560 l 1,375,-1
 56 1572 l 1,376,-1
 56 1600 l 1,377,-1
 52 1612 l 1,378,-1
 48 1668 l 1,379,380
 40 1700 40 1700 44 1728 c 1,381,-1
 52 1736 l 1,382,-1
 76 1740 l 1,383,-1
 256 1740 l 1,384,-1
 280 1744 l 1,385,-1
 292 1736 l 1,386,387
 300 1708 300 1708 288 1660 c 0,388,389
 288 1648 288 1648 292 1644 c 0,390,391
 296 1616 296 1616 292 1592 c 1,392,393
 296 1584 296 1584 292 1576 c 1,394,-1
 296 1344 l 2,395,396
 296 1296 296 1296 292 1264 c 1,397,398
 284 1244 284 1244 276 1232 c 1,399,400
 280 1208 280 1208 280 1192 c 1,401,-1
 288 1188 l 1,402,403
 312 1168 312 1168 332 1160 c 1,404,-1
 396 1172 l 1,405,-1
 428 1176 l 1,406,-1
 444 1172 l 1,407,408
 476 1172 476 1172 500 1176 c 1,409,-1
 544 1176 l 1,410,-1
 644 1196 l 1,411,-1
 656 1192 l 1,412,-1
 668 1196 l 1,413,414
 696 1196 696 1196 716 1204 c 1,415,-1
 724 1200 l 1,416,-1
 732 1204 l 1,417,418
 784 1208 784 1208 820 1220 c 1,419,420
 888 1220 888 1220 888 1164 c 1,421,422
 900 1148 900 1148 912 1140 c 1,423,424
 940 1144 940 1144 956 1160 c 1,425,-1
 964 1188 l 1,426,427
 948 1220 948 1220 952 1252 c 2,428,-1
 956 1272 l 1,429,-1
 956 1344 l 1,430,431
 952 1392 952 1392 956 1424 c 1,432,-1
 956 1564 l 1,433,434
 960 1580 960 1580 962 1596 c 128,-1,435
 964 1612 964 1612 960 1624 c 1,436,437
 972 1680 972 1680 960 1720 c 1,438,-1
 968 1728 l 1,439,440
 1000 1736 1000 1736 1024 1756 c 1,441,-1
 1036 1752 l 1,442,-1
 1044 1756 l 1,443,444
 1076 1760 1076 1760 1092 1772 c 1,445,446
 1120 1772 1120 1772 1144 1780 c 1,447,233
 1168 1776 1168 1776 1188 1760 c 1,234,-1
EndSplineSet
Validated: 41
Layer: 2
EndChar

